<svg xmlns="http://www.w3.org/2000/svg" width="512" height="512" fill="none" viewBox="0 0 512 512">
  <path fill="#D7162F" d="M251.512 268.275s-10.528 14.802-6.3 21.875c4.27 7.149 18.935 6.435 48.603-4.345 39.1-14.207 57.148-33.761 57.148-33.761l-11.716-14.936 48.922 4.158-8.319 47.668-12.074-14.756s-14.579 14.534-41.228 31.525c-21.102 13.453-53.044 25.816-74.769 29.915-20.095 3.796-34.442-.577-39.262-8.851-10.693-18.37-.267-49.01 38.995-58.492"/>
  <path fill="url(#a)" d="M236.855 175.071a26.668 26.668 0 0 0-5.381 1.777 26.143 26.143 0 0 0-9.072 6.859c-1.405 1.606-2.477 3.178-3.291 4.755a20.528 20.528 0 0 0-1.75 4.793c-.379 1.636-.584 3.318-.693 5.094-.11 1.775-.125 3.639-.125 5.641v7.323h-7.208v16.901h7.208v40.902h20.509v-40.902h14.31v-16.901h-14.31v-9.35c0-1.634.113-3.059.365-4.273.25-1.215.642-2.223 1.198-3.025a5.057 5.057 0 0 1 2.193-1.798c.914-.399 2.018-.596 3.342-.596.677 0 1.318.057 1.936.156.617.1 1.212.246 1.796.422.584.176 1.159.384 1.734.609.578.227 1.154.476 1.746.729v-17.69a17.76 17.76 0 0 0-2.119-.936 17.095 17.095 0 0 0-2.149-.629 19.195 19.195 0 0 0-2.212-.353 23.56 23.56 0 0 0-2.309-.111c-1.942 0-3.858.206-5.718.603m44.759 9.087H258.12v84.956h31.324a43.823 43.823 0 0 0 16.677-3.277 43.25 43.25 0 0 0 13.73-9.003 42.158 42.158 0 0 0 9.316-13.485c2.207-5.1 3.431-10.741 3.431-16.711 0-5.975-1.218-11.614-3.414-16.716a42.078 42.078 0 0 0-9.29-13.481 43.149 43.149 0 0 0-13.723-9.006 43.983 43.983 0 0 0-16.727-3.277h-7.83Zm-1.408 54.366v-35.663h5.184c3.546 0 6.835.536 9.773 1.577 2.937 1.039 5.521 2.586 7.663 4.606 2.141 2.022 3.837 4.52 4.999 7.46 1.161 2.942 1.788 6.33 1.788 10.134 0 4.14-.703 7.695-1.967 10.701-1.261 3.004-3.081 5.458-5.313 7.396-2.233 1.938-4.878 3.356-7.787 4.29-2.91.936-6.087 1.385-9.384 1.385h-4.956v-11.886Zm-105.671-54.366h-18.083l-8.172 21.239-8.169 21.239-8.168 21.241-8.169 21.236h23.435l1.467-3.689 1.462-3.691 1.467-3.688 1.464-3.691h30.422l1.381 3.691 1.38 3.688 1.381 3.691 1.382 3.689h23.548l-8.001-21.236-8.001-21.241-7.999-21.239-8.001-21.239h-6.026Zm-13.097 46.534 2.28-6.761 2.281-6.758 2.282-6.762h.225l2.255 6.762 2.253 6.758 2.251 6.761 2.255 6.761h-18.367l2.285-6.761Z"/>
  <defs>
    <linearGradient id="a" x1="152.333" x2="304.088" y1="297.665" y2="145.909" gradientUnits="userSpaceOnUse">
      <stop stop-color="#0066A5"/>
      <stop offset=".001" stop-color="#0066A5"/>
      <stop offset="1" stop-color="#00A2DE"/>
    </linearGradient>
  </defs>
</svg>
