<svg xmlns="http://www.w3.org/2000/svg" width="512" height="512" fill="none" viewBox="0 0 512 512">
  <path fill="#E2001A" d="M150 151.618h212v208.763H150z"/>
  <path fill="#fff" d="m206.463 296.417 7.972-12.199c-44.155-24.397-65.006 28.668-25.144 35.377 19.625 3.05 2.453 19.518-15.945 3.659l-7.972 13.419c45.381 29.887 74.818-29.887 28.21-34.156-9.812-.61-10.425-15.859 12.879-6.1Z"/>
  <path fill="#fff" fill-rule="evenodd" d="M220.397 278.663v63.917h18.253v-21.306h13.993c22.512 0 23.12-43.22 0-42.611h-32.246Zm18.253 14.001h7.301c7.909 0 7.909 15.218 0 15.218h-7.301v-15.218Z" clip-rule="evenodd"/>
  <path fill="#fff" fill-rule="evenodd" d="M272.992 278.656v63.92h28.418c36.449.609 36.449-63.92.618-63.92h-29.036Zm17.916 15.219h3.089c22.858 0 22.858 34.091 0 34.091h-3.089v-34.091Z" clip-rule="evenodd"/>
</svg>
