<svg xmlns="http://www.w3.org/2000/svg" width="512" height="512" fill="none" viewBox="0 0 512 512">
  <g clip-path="url(#a)">
    <path fill="#ED1C24" fill-rule="evenodd" d="M249.888 235.517c5.54 0 8.881.873 11.419 2.976 4.221 3.5 5.939 10.049 4.842 17.292-1.61 10.616-6.067 20.246-21.017 20.246h-12.961l6.16-40.514h11.557Zm7.805-15.288c22.638 0 35.27 13.382 32.8 35.552-2.423 21.745-14.101 35.986-41.251 35.986H205.91l10.887-71.538h40.896Z" clip-rule="evenodd"/>
    <path fill="#ED1C24" d="m328.5 220.229-6.105 40.12c-1.364 8.967 3.547 15.654 13.066 15.654 8.109 0 14.938-5.497 16.484-15.656l6.106-40.118h23.953l-5.735 37.693C373.107 278.697 361.607 293 333.754 293c-18.506 0-28.772-6.747-33.199-15.438-3.314-6.504-3.462-14.155-2.485-20.574l5.593-36.759H328.5m-128.998 52.489c-3.577 1.116-11.772 2.065-19.929 2.065-18.4 0-24.769-8.715-24.09-19.002.756-11.458 10.576-19.554 29.66-19.554 7.694 0 15.926 1.99 17.925 2.617l2.568-16.813c-3.539-.999-13.628-3.035-27.448-3.035-33.936 0-45.548 18.897-47.756 32.727-3.106 19.45 9.212 41.277 41.921 41.277 10.422 0 21.075-1.557 24.518-3.166l2.631-17.116Z"/>
  </g>
  <defs>
    <clipPath id="a">
      <path fill="#fff" d="M0 0h252v74H0z" transform="translate(130 219)"/>
    </clipPath>
  </defs>
</svg>
