<svg xmlns="http://www.w3.org/2000/svg" width="1024" height="161" fill="none" viewBox="0 0 1024 161">
  <path fill="#000" d="M217.011 133.737v-4.903c3.269.384 4.903 1.61 4.903 3.677l12.257-1.226c34.32-10.863 51.48-26.797 51.48-47.802v-6.129l-1.226-6.128L285.651 70l-6.129-12.257C267.554 41.4 254.479 33.229 240.3 33.229l-8.58 1.226-3.677-2.452h-4.903l-2.452 2.452-1.225-1.226h-1.226c-5.72 16.92-9.806 43.885-12.257 80.896 0 2.356 2.451 5.216 7.354 8.58v1.226l-1.226 1.226 1.226 1.225v7.355h3.677Zm-3.677-52.706h-1.226v-1.225l6.129-35.546h1.226v2.452l-6.129 34.32Zm12.257 25.74c1.634-19.419 4.086-36.579 7.354-51.48 3.269 0 4.903-.817 4.903-2.45h13.483c12.257 1.633 18.386 6.945 18.386 15.933v3.677c0 7.21-3.269 14.156-9.806 20.837h2.451v1.226c-19.755 8.171-32.012 12.257-36.771 12.257Zm41.674-50.254-4.903-2.451V52.84h1.226l3.677 2.451v1.226Zm7.354 28.191h-2.451L273.394 70h1.225l1.226 6.129-1.226 4.902v3.677Zm2.452 15.935h-1.226v-1.226l6.129-19.611h1.225v2.451l-6.128 18.386Zm-8.58-7.355h-1.226l2.452-4.902h1.225l-2.451 4.902Zm-6.129 17.16 8.58-8.58v1.226c-3.797 4.614-6.657 7.066-8.58 7.354Zm-23.288 8.58h-4.903v-1.225l9.806-2.452h1.226v1.226l-6.129 2.451Zm-11.031 3.677h-2.452l-1.225-3.677 1.225 1.226 3.677-1.226h1.226v1.226l-2.451 2.451Zm-18.386 7.355 2.451-2.452v-1.226h-1.225l-2.452 2.452v1.226h1.226Zm84.148 1.369 57.031-8.363.217-2.452-9.806-.648.072-1.226c7.643.48 12.642-.817 14.997-3.894l.216-3.677-1.081-1.298 2.451.145.072-2.452-5.984-1.658c-10.094-.673-27.374.625-51.84 3.893l2.379-17.015 1.226.072-.721 11.031h1.226l5.912-15.573-1.154-1.226 12.329-.433c21.678-2.836 33.407-6.537 35.185-11.103l.072-1.226-8.435-1.875v-1.225l2.451.216.072-1.226-1.081-1.297-33.311 2.667-1.225-.072 2.235-15.862 28.479-2.956.072-1.226-2.451-.216-8.652.72-1.226-.071-1.153-1.37-7.427.72-6.056-.432.144-2.451 32.013-1.442c4.518.288 7.642-3.197 9.373-10.455l-5.913-4.11-43.043.794-3.678-.289-1.297 1.154-1.154-1.226-1.226-.144-1.297 1.154-1.154-1.298-1.226-.144-.216 3.677L298.275 47l.793 6.2-.144 2.452-1.226-.072-1.153-1.298-2.668 20.693-.072 1.226 1.154 1.297-2.812 5.913 1.225.072-3.893 20.693-.144 2.451 1.225.072.145-2.451 1.225.072-.216 3.605 1.226.144.504-7.354-1.225-.072-1.37 1.153 1.658-6.056 2.452.216-.866 12.185 1.154 1.37c-1.442-.144-2.403 1.827-2.884 5.912l-1.226-.144.433-6.129-2.452-.072 1.154 1.298-3.389 13.267-.216 3.677v.216c0 1.682 1.971 2.956 5.912 3.821l1.226.072Zm0-36.843-1.226-.072.577-8.58 1.226.144-.577 8.508Zm18.674-3.605 22.207-2.235.144-1.226h-1.226l-11.175 1.659.072-1.226-11.104.505-.072 1.153 1.154 1.37Zm111.979-52.993 2.884-4.903.216-2.452h-2.451l-2.957 6.129h1.226l1.082 1.225Zm5.84 101.733c.384-4.086 1.802-6.129 4.254-6.129.192-2.451 1.514-3.677 3.965-3.677l3.028-34.32-1.153-1.225h1.226l1.297-1.226-2.163-2.451 2.596-2.452-2.163-2.451 2.596-2.451.144-1.226-1.154-1.226.361-3.677 2.379-13.483-1.803-7.354h2.452l.432-4.903-1.081-1.225 1.298-1.226.36-3.677c-4.806-8.172-8.964-12.257-12.473-12.257l-.072 1.225-3.461-2.451c-2.451 0-10.094 12.666-22.928 37.997h-2.451l17.376-30.643.072-1.226h-1.226l-1.298 1.226-16.943 25.74c-3.028-17.16-5.96-25.74-8.796-25.74-1.827-3.268-4.927-5.311-9.301-6.128l-.072 1.225-3.461-2.451h-2.452l-2.667 2.451h-1.226l-1.154-1.225h-1.225l-.289 3.677 1.082 1.225h1.225l1.37-1.225-.288 3.677-4.47 8.58 1.153 1.226-.36 3.677h-1.226l.216-2.452h-1.225l-.144 1.226.865 4.903-1.659 4.903-.144 1.225 1.154 1.226h-1.226c-3.701 14.468-6.104 27.95-7.21 40.448l-.144 1.226 1.081 1.226-1.297 1.225-.505 6.129.072 13.483-1.803 6.128 8.292 3.677h1.226l6.633-6.128c.24-2.452 1.178-3.677 2.812-3.677l2.307-26.966-.649-6.128 1.514-3.678.865-9.805 2.524-14.709h1.226c-.337 3.75 1.586 9.878 5.768 18.386.432 7.354 1.73 11.031 3.893 11.031l5.552 6.129h1.226c3.508-2.067 5.431-5.336 5.768-9.806h2.451l-.288 3.677-2.668 2.452 1.154 1.225-.145 1.226-1.37 1.226-.072 1.226h1.226c3.413-1.779 5.335-5.047 5.768-9.806 4.855-13.7 9.325-22.688 13.411-26.966l-8.292 52.706 1.803 7.354-1.875 7.354 6.922 4.903h3.677Zm-17.737-49.028h-1.226l-.937-3.677c6.585-16.103 12.93-27.951 19.035-35.546l-1.731 6.129c-9.757 17.688-14.804 28.72-15.141 33.094Zm16.872 2.451h-1.226l2.74-30.642 1.298-1.226h1.225l-.072 1.226-1.37 1.225-.072 1.226 1.082 1.226h-1.226l1.154 1.225-3.533 25.74Zm-4.831 41.674h-1.226l.865-9.805h1.226l.937 3.677-1.802 6.128Zm67.421-4.758 6.128-1.226c11.392-6.778 19.972-14.132 25.74-22.063h-1.226c8.172-16.631 12.257-27.254 12.257-31.868V70c-1.634 0-2.451 2.043-2.451 6.129h-1.226l-3.677-26.966h1.226l1.225 1.226h2.452l-4.903-7.355V41.81l1.226-1.226c-8.364-5.72-17.352-8.58-26.966-8.58-15.525 1.97-23.288 4.83-23.288 8.58h1.226l8.579-4.903c-19.082 18.266-30.113 33.383-33.094 45.351h-1.225v-1.225c3.797-9.902 8.7-18.89 14.708-26.966v-1.226c-13.074 16.92-19.611 28.768-19.611 35.546v2.451l1.226 8.58-1.226 1.226 4.903 7.354c5.095 15.526 17.352 23.289 36.771 23.289h1.226Zm-12.257-17.16h-1.226c-7.354-4.903-11.032-10.623-11.032-17.16 6.297-22.88 12.834-34.32 19.612-34.32l8.58-7.354-1.226-1.226v-1.226l1.226 1.226 4.903-2.451v1.225h1.225l1.226-1.225h1.226c8.171 1.01 12.257 2.643 12.257 4.902v9.806c0 4.134-2.043 10.671-6.129 19.612-11.488 18.794-21.702 28.191-30.642 28.191Zm53.931-50.254v-6.129h-2.452v6.129h2.452Zm-67.414 14.708h-1.226L468.734 70h1.226l-3.677 7.354Zm49.028 12.257h-3.677l4.903-12.257h1.225l1.226 3.677-3.677 8.58Zm9.806-1.225h-1.226v-2.452l1.226-3.677h1.225v1.226l-1.225 4.903Zm-71.091 8.58H452.8V87.16h1.226v9.806Zm52.705 0h-1.226l4.903-6.129h1.226l-4.903 6.129Zm-29.417 25.739-6.128-3.677v-1.225l6.128 3.677v1.225Zm92.079 8.076 14.709-2.38v-1.225h-1.226l-4.903 1.225h-6.128v-1.225c13.41 0 25.259-6.129 35.545-18.386v-1.226h-2.451c0 3.028-6.946 7.931-20.837 14.709v-2.452h1.225l1.226-1.225c12.257-9.614 18.386-15.742 18.386-18.386v-3.677l-3.678-4.903c-12.689 14.709-23.312 22.063-31.868 22.063h-1.226v-1.226c10.912-2.163 20.717-9.517 29.417-22.063V89.18h-1.225c-12.69 14.708-24.13 22.062-34.32 22.062h-3.677l-3.677-23.288 2.451-8.58c9.517-19.611 23.817-29.417 42.9-29.417 0 1.058 2.451 1.875 7.354 2.451v-1.225l-1.226-1.226h2.452V48.73c-6.105-9.805-15.093-14.708-26.966-14.708h-1.226l-11.031 2.451V37.7h1.226l3.677-1.226c-13.758 9.615-22.883 17.758-27.376 24.429l-.345.525 3.207-5.342V54.86c-8.172 5.672-12.257 18.746-12.257 39.223l1.225 15.934c1.394 7.835 5.889 14.348 13.483 19.539h3.677v-1.154l-6.128-9.805v-1.226c6.873 8.94 13.41 13.411 19.611 13.411Zm-9.806-86.953 8.58-3.678v-1.225h-1.225c-4.903 1.634-7.355 3.268-7.355 4.903Zm-9.805 11.03 6.128-6.128v-1.225l-6.128 6.128v1.226Zm-6.129 14.71h-1.225v-1.226l3.252-5.425-.189.346c-1.123 2.105-1.731 4.046-1.825 5.824l-.013.48Zm0 45.35h-1.225l-1.226-4.902v-3.677h1.226l1.225 7.354v1.225Zm138.512 33.239 6.128-3.677h1.226c0-2.211-2.043-5.48-6.128-9.806v-1.226l6.128 4.903v-1.226c-3.268-5.191-6.537-8.459-9.806-9.805-15.381-21.246-23.961-31.869-25.739-31.869V90.55l7.354-2.452c6.441-2.932 11.752-9.06 15.934-18.385V67.26l-12.257 11.031h-1.226l12.257-17.16v-7.354c0-11.488-8.58-18.842-25.739-22.062h-14.709l-22.063 11.031c0 2.451 1.635 3.677 4.903 3.677v1.226c-3.268 0-4.903.817-4.903 2.451h1.226l7.354-2.451h2.452v1.226c-4.903.817-7.355 2.042-7.355 3.677v1.225h7.355v2.452h1.225c0-3.269.818-4.903 2.452-4.903l-6.129 25.74h-1.225v-4.903h-1.226l-7.354 34.32v4.903l-1.442 11.175 5.407 7.21c3.076.817 4.615-.408 4.615-3.677h1.225c0 3.269.817 4.903 2.452 4.903h3.677v-2.452c-1.586-1.97-1.178-3.941 1.226-5.912 1.345-1.778 1.754-6.753 1.225-14.925.385-9.805 2.019-14.708 4.903-14.708l6.129 12.257c6.537 13.603 17.977 27.086 34.319 40.448h1.226l1.226-1.225 2.451 3.677h1.226ZM638.039 75.84h-1.225l6.128-28.191 7.355-2.452c9.805 2.933 14.708 5.792 14.708 8.58v2.452c-5.143 6.922-14.132 13.459-26.966 19.611Zm28.192-24.514c-1.635-.385-3.269-2.427-4.903-6.129l4.903 3.678v2.451Zm2.451 7.354h-1.226l1.226-6.128h1.226v4.903l-1.226 1.225Zm-45.351 6.129 1.226-4.903v-3.677h-1.226l-1.226 4.903v3.677h1.226Zm36.771 4.903h-1.226l6.129-8.58h1.226v1.225l-6.129 7.355Zm18.386-2.452 1.225-3.677h-2.451v3.677h1.226Zm-56.383 4.903V67.26h-1.225v4.903h1.225Zm-2.451 15.934h-1.226v-4.903h1.226v4.903Zm40.448 37.997-4.903-4.903v-1.225c1.683.384 3.317 2.427 4.903 6.128Zm6.129 7.354-4.903-3.677v-1.226l4.903 3.678v1.225Zm80.687 15.862c1.634 0 2.451-1.225 2.451-3.677h1.226l1.226 1.226h1.225l-1.225-3.677v-1.226c1.634 0 2.451 1.226 2.451 3.677h2.451l-3.677-18.385h1.226l1.226 1.225v-7.354l-1.226-14.708 1.226-1.226h-1.226l1.226-1.226-1.226-7.354 1.226-3.677-2.452-7.354c8.172-1.442 12.257-3.077 12.257-4.903v-1.226h-9.805c0-1.634-1.226-2.451-3.677-2.451v-1.226l7.354-1.226v-1.225h-8.58l-9.806-42.9c-6.008 0-9.277-1.226-9.805-3.677-4.951 0-10.263 1.634-15.935 4.903v-1.226l1.226-1.226h-4.903l-6.128 17.16c2.451 0 3.677.817 3.677 2.452v1.225h-1.226l-1.225-1.225h-1.226l-2.452 4.902v1.226l1.226 1.226h-1.226l-1.225-1.226-1.226 6.129v4.902h1.226l1.225-1.225-1.225 6.128c-1.635 0-2.452-1.225-2.452-3.677h-1.225l-20.837 50.254 3.677 3.677-1.226 7.354 2.451 2.452c0-6.537 1.226-9.806 3.678-9.806h1.225l-2.451 7.354 3.677 2.452v-1.226h1.226l1.225 1.226h3.677v-2.452c2.74-2.451 5.192-8.171 7.355-17.16 0-5.095 8.58-9.18 25.74-12.257v-2.451l-6.129 1.226-4.903-1.226-8.58 2.451v-2.451l26.966-6.129v7.355l1.225 1.225h-1.225l-1.226-1.225h-1.226v4.903l1.226-1.226h1.226l-1.226 1.226v4.902h1.226v-3.677h2.451v3.677l-1.226 1.226c1.779 0 3.005 3.677 3.678 11.031v1.226l-3.678-2.451 2.452 14.708h1.226v-4.903h1.225l6.129 20.837Zm-30.643-68.64h-2.451l9.805-25.739h1.226l4.903 18.386c-.817 4.902-5.311 7.354-13.483 7.354Zm-6.128-6.128h-1.226l-1.226-4.903h1.226l1.226 1.226 2.451-8.58h1.226v1.226l-3.677 11.031Zm-11.032 2.452h-1.225v-2.452l1.225-1.225h1.226l-1.226 3.677Zm7.355 6.128h-1.226l1.226-4.903h1.225v3.678l-1.225 1.225Zm-11.032 1.226h-1.226l1.226-4.903h2.452l-2.452 4.903Zm23.289 0h-2.452v-1.226l12.257-2.451h1.226c0 1.634-3.677 2.86-11.031 3.677Zm17.159 33.094v-7.354h-2.451l1.226 7.354h1.225Zm17.16 8.58h-1.225l-1.226-4.903v-2.451h1.226l1.225 4.903v2.451Zm-14.708-1.226v-2.451l3.677-1.226v2.452l-3.677 1.225Zm62.734 5.985 14.709-2.38v-1.225h-1.226l-4.903 1.225h-6.128v-1.225c13.41 0 25.259-6.129 35.545-18.386v-1.226h-2.451c0 3.028-6.946 7.931-20.837 14.709v-2.452h1.225l1.226-1.225c12.257-9.614 18.386-15.742 18.386-18.386v-3.677l-3.678-4.903c-12.689 14.709-23.312 22.063-31.868 22.063h-1.226v-1.226c10.912-2.163 20.717-9.517 29.417-22.063V89.18h-1.225c-12.69 14.708-24.13 22.062-34.32 22.062h-3.677l-3.677-23.288 2.451-8.58c9.517-19.611 23.817-29.417 42.9-29.417 0 1.058 2.451 1.875 7.354 2.451v-1.225l-1.226-1.226h2.452V48.73c-6.105-9.805-15.093-14.708-26.966-14.708h-1.226l-11.031 2.451V37.7h1.226l3.677-1.226c-13.758 9.615-22.883 17.758-27.376 24.429l-.311.47 3.173-5.287V54.86c-8.172 5.672-12.257 18.746-12.257 39.223l1.225 15.934c1.394 7.835 5.889 14.348 13.483 19.539h3.677v-1.154l-6.128-9.805v-1.226c6.873 8.94 13.41 13.411 19.611 13.411Zm-9.806-86.953 8.58-3.678v-1.225h-1.225c-4.903 1.634-7.355 3.268-7.355 4.903Zm-9.805 11.03 6.128-6.128v-1.225l-6.128 6.128v1.226Zm-6.129 14.71h-1.225v-1.226l3.237-5.393-.174.314c-1.123 2.105-1.731 4.046-1.825 5.824l-.013.48Zm0 45.35h-1.225l-1.226-4.902v-3.677h1.226l1.225 7.354v1.225Zm92.44 26.966 6.128-11.031v-1.226l-1.225-1.226 2.451-12.185c-.673-18.553 13.507-43.452 42.539-74.696v-1.225l-1.226-1.226 1.226-1.226v-1.226h-3.677c0 2.404-1.634 4.447-4.903 6.13h-2.451l6.128-7.355c0-1.346-2.86-2.98-8.58-4.903h-1.225l-1.226 1.226v-2.452h-1.226l-15.357 18.242v1.225l14.132-14.564v1.226L870.439 74.47h-1.225v-1.225c0-1.875 4.085-8.004 12.257-18.386v-1.226c-3.461 1.683-7.547 6.994-12.257 15.934-8.796-16.294-13.195-26.965-13.195-32.012h-3.677l-3.677 2.451c-.577-4.085-1.802-6.128-3.677-6.128h-2.451l-1.226 1.225 2.451 6.129h-2.451v2.451l16.871 43.044v1.226l-1.225 1.226 1.225 9.805h1.226v-3.677h1.226l1.226 3.677-1.442 14.781h-1.226v-4.903l1.226-6.128-3.678 1.225 1.226 1.226v1.226l-1.226 1.225v1.226l1.226 1.226h-1.226l-1.225-1.226-1.226 14.709v2.451l3.677 4.831v9.805l9.806 1.226Zm10.022-55.157h-2.452c0-3.509 8.797-16.535 26.389-39.078h1.226c-9.71 12.45-18.097 25.475-25.163 39.078Zm4.903-34.32 2.451-2.45V48.73l-2.451 2.452v1.225Zm-19.828 85.8h-1.226v-4.903h1.226v4.903Z"/>
  <path fill="#43EDF9" fill-rule="evenodd" d="M121.875 0C145 0 160 15 160 38.125v83.75C160 145 145 160 121.875 160h-83.75C15 160 0 145 0 121.875v-83.75C0 15 15 0 38.125 0h83.75Z" clip-rule="evenodd"/>
  <path fill="url(#a)" fill-rule="evenodd" d="M121.875 0C145 0 160 15 160 38.125v83.75C160 145 145 160 121.875 160h-83.75C15 160 0 145 0 121.875v-83.75C0 15 15 0 38.125 0h83.75Z" clip-rule="evenodd"/>
  <path fill="#fff" fill-rule="evenodd" d="M80 12.813c37.107 0 67.188 30.08 67.188 67.187S117.107 147.188 80 147.188 12.812 117.107 12.812 80 42.894 12.812 80 12.812Zm5.576 109.252c-2.85 4.675-5.134 8.196-6.85 10.563-1.599 2.205-3.937 5.103-7.015 8.695 2.71.365 5.478.552 8.289.552a61.71 61.71 0 0 0 22.859-4.36c-1.253-1.027-4.244-3.154-8.526-6.993-1.66-1.488-4.579-4.307-8.757-8.457ZM80 18.125c-34.173 0-61.875 27.702-61.875 61.875 0 18.101 7.773 34.387 20.163 45.702 4.172-2.759 8.168-5.978 11.99-9.658 4.25-4.093 8.9-9.543 13.947-16.35-7.158-7.654-12.305-13.602-15.44-17.842-6.628-8.965-9.326-17.825-9.518-22.46-.334-8.09 7.036-17.99 22.111-29.705 2.036 9.951 4.446 17.701 7.231 23.25 2.785 5.55 7.991 13.253 15.618 23.112 5.923-7.677 10.237-12.919 12.942-15.726 5.203-5.398 10.311-9.05 14.133-11.702 6.251-4.334 12.302-6.27 18.154-5.809C118.166 27.82 100.215 18.125 80 18.125Zm60.483 48.762-.06.02c-5.168 1.708-11.687 6.312-19.557 13.81-8.114 7.732-13.357 13.804-15.731 18.217 5.084 5.431 10.328 9.98 15.731 13.646 4.59 3.114 7.381 4.745 8.374 4.892 7.928-10.399 12.635-23.386 12.635-37.472 0-4.5-.48-8.886-1.392-13.113Z" clip-rule="evenodd"/>
  <defs>
    <linearGradient id="a" x1="0" x2="160" y1="0" y2="160" gradientUnits="userSpaceOnUse">
      <stop stop-color="#4FB2FF"/>
      <stop offset="1" stop-color="#387CB2"/>
    </linearGradient>
  </defs>
</svg>
