<svg xmlns="http://www.w3.org/2000/svg" width="512" height="512" fill="none" viewBox="0 0 512 512">
  <g clip-path="url(#a)">
    <path fill="#000" d="M463.689 305c7.177 0 14-5.634 15.138-12.733 1.208-7.548-4.059-13.068-11.462-13.068-6.721 0-13.469 5.859-14.57 12.732-1.155 7.21 3.603 13.069 10.894 13.069Zm-63.075-1.24h41.01l3.053-20.054h-18.938l1.971-12.957h16.99l3.052-20.053h-16.991l1.8-11.832h18.937l3.052-20.053h-41.013l-12.923 84.949Zm-4.27 0-13.009-43.94 23.878-41.01h-23.266l-17.62 36.166 5.392-36.166h-22.074l-12.924 84.95h22.076l5.93-38.982 7.921 38.982h23.696Zm-125.936 0h21.21l3.787-24.898c1.217-8.002 1.443-15.887 2.119-23.885l9.243 48.783h21.209l12.924-84.949h-21.21l-3.29 21.631c-1.491 9.801-1.343 19.49-1.969 29.292l-10.106-50.923h-20.993l-12.924 84.949Zm-38.948 0 3.049-20.054h-16.556l9.873-64.895h-22.075l-12.924 84.949h38.633Zm-103.643 0h41.012l3.051-20.054h-18.937l1.971-12.957h16.989l3.051-20.053h-16.99l1.8-11.832H178.7l3.052-20.053H140.74l-12.923 84.949Zm-8.788 0 12.922-84.95h-22.074l-12.923 84.95h22.075Zm-53.252-63.768c10.063 0 9.841 12.843 8.436 22.082-1.216 7.999-4.937 21.068-15.018 21.18l6.582-43.262ZM34 303.76h19.263c13.417 0 37.665-3.605 43.63-42.813 3.906-25.687-7.118-42.136-32.222-42.136H46.924L34 303.76Zm227.48 0 10.887-69.399h-22.074l-10.89 69.399h22.077Z"/>
    <path fill="#DC0000" d="m276.807 206-42.633 12.792 38.86 11.338 3.773-24.13Z"/>
  </g>
  <defs>
    <clipPath id="a">
      <path fill="#fff" d="M0 0h445v99H0z" transform="translate(34 206)"/>
    </clipPath>
  </defs>
</svg>
