<?xml version="1.0" encoding="UTF-8" standalone="no"?><svg xmlns="http://www.w3.org/2000/svg" xmlns:xlink="http://www.w3.org/1999/xlink" contentScriptType="application/ecmascript" contentStyleType="text/css" height="344px" preserveAspectRatio="none" style="width:545px;height:344px;" version="1.1" viewBox="0 0 545 344" width="545px" zoomAndPan="magnify"><defs><filter height="300%" id="f1ai7qvxggretd" width="300%" x="-1" y="-1"><feGaussianBlur result="blurOut" stdDeviation="2.0"/><feColorMatrix in="blurOut" result="blurOut2" type="matrix" values="0 0 0 0 0 0 0 0 0 0 0 0 0 0 0 0 0 0 .4 0"/><feOffset dx="4.0" dy="4.0" in="blurOut2" result="blurOut3"/><feBlend in="SourceGraphic" in2="blurOut3" mode="normal"/></filter></defs><g><!--cluster Parser--><polygon fill="#FFFFFF" filter="url(#f1ai7qvxggretd)" points="22,24,74,24,81,47.6094,523,47.6094,523,332,22,332,22,24" style="stroke: #000000; stroke-width: 1.5;"/><line style="stroke: #000000; stroke-width: 1.5;" x1="22" x2="81" y1="47.6094" y2="47.6094"/><text fill="#000000" font-family="sans-serif" font-size="14" font-weight="bold" lengthAdjust="spacingAndGlyphs" textLength="46" x="26" y="40.5332">Parser</text><!--class IParser--><rect fill="#FEFECE" filter="url(#f1ai7qvxggretd)" height="61.8359" id="IParser" style="stroke: #A80036; stroke-width: 1.5;" width="156" x="194" y="146"/><ellipse cx="209" cy="162" fill="#B4A7E5" rx="11" ry="11" style="stroke: #A80036; stroke-width: 1.0;"/><path d="M209.9531,158.6406 L209.9531,165.2969 L211.6719,165.2969 Q212.2813,165.2969 212.5469,165.5313 Q212.8125,165.7656 212.8125,166.1563 Q212.8125,166.5313 212.5469,166.7656 Q212.2813,167 211.6719,167 L206.5313,167 Q205.9219,167 205.6563,166.7656 Q205.3906,166.5313 205.3906,166.1406 Q205.3906,165.7656 205.6563,165.5313 Q205.9219,165.2969 206.5313,165.2969 L208.25,165.2969 L208.25,158.6406 L206.5313,158.6406 Q205.9219,158.6406 205.6563,158.4063 Q205.3906,158.1719 205.3906,157.7813 Q205.3906,157.4063 205.6563,157.1719 Q205.9219,156.9375 206.5313,156.9375 L211.6719,156.9375 Q212.2813,156.9375 212.5469,157.1719 Q212.8125,157.4063 212.8125,157.7813 Q212.8125,158.1719 212.5469,158.4063 Q212.2813,158.6406 211.6719,158.6406 L209.9531,158.6406 Z "/><text fill="#000000" font-family="sans-serif" font-size="12" font-style="italic" lengthAdjust="spacingAndGlyphs" textLength="40" x="223" y="166.9102">IParser</text><rect fill="#FFFFFF" height="17.0938" style="stroke: #000000; stroke-width: 1.0; stroke-dasharray: 2.0,2.0;" width="82" x="271" y="143"/><text fill="#000000" font-family="sans-serif" font-size="12" font-style="italic" lengthAdjust="spacingAndGlyphs" textLength="80" x="272" y="156.457">T extends IFile</text><line style="stroke: #A80036; stroke-width: 1.5;" x1="195" x2="349" y1="178" y2="178"/><line style="stroke: #A80036; stroke-width: 1.5;" x1="195" x2="349" y1="186" y2="186"/><text fill="#000000" font-family="sans-serif" font-size="11" lengthAdjust="spacingAndGlyphs" textLength="114" x="200" y="201.4189">JSON parse(content: T)</text><path d="M87.5,60 L87.5,86.3516 A0,0 0 0 0 87.5,86.3516 L268,86.3516 L272,145.591 L276,86.3516 L456.5,86.3516 A0,0 0 0 0 456.5,86.3516 L456.5,70 L446.5,60 L87.5,60 A0,0 0 0 0 87.5,60 " fill="#FBFB77" filter="url(#f1ai7qvxggretd)" style="stroke: #A80036; stroke-width: 1.0;"/><path d="M446.5,60 L446.5,70 L456.5,70 L446.5,60 " fill="#FBFB77" style="stroke: #A80036; stroke-width: 1.0;"/><text fill="#000000" font-family="sans-serif" font-size="13" lengthAdjust="spacingAndGlyphs" textLength="348" x="93.5" y="78.4951">Extrahiert die gewünschten Daten aus dem gegebenen IFile.</text><!--class DipProcedureDataParser--><rect fill="#FEFECE" filter="url(#f1ai7qvxggretd)" height="48" id="DipProcedureDataParser" style="stroke: #A80036; stroke-width: 1.5;" width="201" x="38.5" y="268"/><ellipse cx="53.5" cy="284" fill="#ADD1B2" rx="11" ry="11" style="stroke: #A80036; stroke-width: 1.0;"/><path d="M56.2656,279.875 Q56.4219,279.6563 56.6094,279.5469 Q56.7969,279.4375 57.0156,279.4375 Q57.3906,279.4375 57.625,279.6953 Q57.8594,279.9531 57.8594,280.5625 L57.8594,282.0156 Q57.8594,282.625 57.625,282.8906 Q57.3906,283.1563 57.0156,283.1563 Q56.6719,283.1563 56.4688,282.9531 Q56.2656,282.7656 56.1563,282.25 Q56.1094,281.8906 55.9219,281.7031 Q55.5938,281.3281 54.9844,281.1094 Q54.375,280.8906 53.75,280.8906 Q52.9844,280.8906 52.3516,281.2188 Q51.7188,281.5469 51.2266,282.2969 Q50.7344,283.0469 50.7344,284.0781 L50.7344,285.1719 Q50.7344,286.4063 51.625,287.2266 Q52.5156,288.0469 54.1094,288.0469 Q55.0469,288.0469 55.7031,287.7969 Q56.0938,287.6406 56.5156,287.2031 Q56.7813,286.9375 56.9297,286.8594 Q57.0781,286.7813 57.2813,286.7813 Q57.6094,286.7813 57.8672,287.0391 Q58.125,287.2969 58.125,287.6406 Q58.125,287.9844 57.7813,288.3906 Q57.2813,288.9688 56.4844,289.2969 Q55.4063,289.75 54.1094,289.75 Q52.5938,289.75 51.3906,289.125 Q50.4063,288.625 49.7188,287.5547 Q49.0313,286.4844 49.0313,285.2031 L49.0313,284.0469 Q49.0313,282.7188 49.6484,281.5703 Q50.2656,280.4219 51.3594,279.8047 Q52.4531,279.1875 53.6875,279.1875 Q54.4219,279.1875 55.0703,279.3516 Q55.7188,279.5156 56.2656,279.875 Z "/><text fill="#000000" font-family="sans-serif" font-size="12" lengthAdjust="spacingAndGlyphs" textLength="139" x="67.5" y="288.9102">DipProcedureDataParser</text><rect fill="#FFFFFF" height="17.0938" style="stroke: #000000; stroke-width: 1.0; stroke-dasharray: 2.0,2.0;" width="28" x="214.5" y="265"/><text fill="#000000" font-family="sans-serif" font-size="12" font-style="italic" lengthAdjust="spacingAndGlyphs" textLength="26" x="215.5" y="278.457">Html</text><line style="stroke: #A80036; stroke-width: 1.5;" x1="39.5" x2="238.5" y1="300" y2="300"/><line style="stroke: #A80036; stroke-width: 1.5;" x1="39.5" x2="238.5" y1="308" y2="308"/><!--class PlenarProtocolSpeechesParser--><rect fill="#FEFECE" filter="url(#f1ai7qvxggretd)" height="48" id="PlenarProtocolSpeechesParser" style="stroke: #A80036; stroke-width: 1.5;" width="232" x="275" y="268"/><ellipse cx="290" cy="284" fill="#ADD1B2" rx="11" ry="11" style="stroke: #A80036; stroke-width: 1.0;"/><path d="M292.7656,279.875 Q292.9219,279.6563 293.1094,279.5469 Q293.2969,279.4375 293.5156,279.4375 Q293.8906,279.4375 294.125,279.6953 Q294.3594,279.9531 294.3594,280.5625 L294.3594,282.0156 Q294.3594,282.625 294.125,282.8906 Q293.8906,283.1563 293.5156,283.1563 Q293.1719,283.1563 292.9688,282.9531 Q292.7656,282.7656 292.6563,282.25 Q292.6094,281.8906 292.4219,281.7031 Q292.0938,281.3281 291.4844,281.1094 Q290.875,280.8906 290.25,280.8906 Q289.4844,280.8906 288.8516,281.2188 Q288.2188,281.5469 287.7266,282.2969 Q287.2344,283.0469 287.2344,284.0781 L287.2344,285.1719 Q287.2344,286.4063 288.125,287.2266 Q289.0156,288.0469 290.6094,288.0469 Q291.5469,288.0469 292.2031,287.7969 Q292.5938,287.6406 293.0156,287.2031 Q293.2813,286.9375 293.4297,286.8594 Q293.5781,286.7813 293.7813,286.7813 Q294.1094,286.7813 294.3672,287.0391 Q294.625,287.2969 294.625,287.6406 Q294.625,287.9844 294.2813,288.3906 Q293.7813,288.9688 292.9844,289.2969 Q291.9063,289.75 290.6094,289.75 Q289.0938,289.75 287.8906,289.125 Q286.9063,288.625 286.2188,287.5547 Q285.5313,286.4844 285.5313,285.2031 L285.5313,284.0469 Q285.5313,282.7188 286.1484,281.5703 Q286.7656,280.4219 287.8594,279.8047 Q288.9531,279.1875 290.1875,279.1875 Q290.9219,279.1875 291.5703,279.3516 Q292.2188,279.5156 292.7656,279.875 Z "/><text fill="#000000" font-family="sans-serif" font-size="12" lengthAdjust="spacingAndGlyphs" textLength="174" x="304" y="288.9102">PlenarProtocolSpeechesParser</text><rect fill="#FFFFFF" height="17.0938" style="stroke: #000000; stroke-width: 1.0; stroke-dasharray: 2.0,2.0;" width="24" x="486" y="265"/><text fill="#000000" font-family="sans-serif" font-size="12" font-style="italic" lengthAdjust="spacingAndGlyphs" textLength="22" x="487" y="278.457">Xml</text><line style="stroke: #A80036; stroke-width: 1.5;" x1="276" x2="506" y1="300" y2="300"/><line style="stroke: #A80036; stroke-width: 1.5;" x1="276" x2="506" y1="308" y2="308"/><!--link IParser to DipProcedureDataParser--><path d="M220.944,221.378 C202.347,237.179 182.043,254.4299 166.298,267.8067 " fill="none" id="IParser-DipProcedureDataParser" style="stroke: #A80036; stroke-width: 1.0;"/><polygon fill="none" points="216.584,215.897,236.358,208.282,225.649,226.566,216.584,215.897" style="stroke: #A80036; stroke-width: 1.0;"/><!--link IParser to PlenarProtocolSpeechesParser--><path d="M318.435,222.094 C334.868,237.698 352.7,254.6316 366.575,267.8067 " fill="none" id="IParser-PlenarProtocolSpeechesParser" style="stroke: #A80036; stroke-width: 1.0;"/><polygon fill="none" points="313.573,227.13,303.89,208.282,323.213,216.978,313.573,227.13" style="stroke: #A80036; stroke-width: 1.0;"/><!--
@startuml Parser
  package Parser {
    note top of IParser
      Extrahiert die gewünschten Daten aus dem gegebenen IFile.
    end note

    interface IParser<T extends IFile> {
      JSON parse(content: T) 
    }

    class DipProcedureDataParser<Html> {
    }

    class PlenarProtocolSpeechesParser<Xml> {
    }

    IParser <|- - DipProcedureDataParser
    IParser <|- - PlenarProtocolSpeechesParser
  }
@enduml

PlantUML version 1.2018.12(Sun Oct 21 12:15:15 CEST 2018)
(GPL source distribution)
Java Runtime: Java(TM) SE Runtime Environment
JVM: Java HotSpot(TM) 64-Bit Server VM
Java Version: 1.8.0_191-b12
Operating System: Windows 10
OS Version: 10.0
Default Encoding: Cp1252
Language: de
Country: DE
--></g></svg>