<svg xmlns="http://www.w3.org/2000/svg" width="512" height="300" fill="none" viewBox="0 0 512 300">
  <path fill="#fff" d="M0 0h512v300H0z"/>
  <path fill="#D7162F" d="M252.099 160.916s-8.745 12.295-5.234 18.17c3.548 5.937 15.728 5.344 40.37-3.61 32.476-11.8 47.467-28.042 47.467-28.042l-9.731-12.405 40.634 3.454-6.91 39.593-10.028-12.257s-12.109 12.072-34.244 26.185c-17.527 11.174-44.058 21.442-62.102 24.847-16.691 3.153-28.608-.479-32.611-7.352-8.882-15.258-.223-40.707 32.389-48.583"/>
  <path fill="url(#a)" d="M239.925 83.501a22.065 22.065 0 0 0-4.47 1.476 21.701 21.701 0 0 0-7.535 5.697c-1.167 1.334-2.057 2.64-2.733 3.95a17.04 17.04 0 0 0-1.454 3.981c-.315 1.359-.485 2.755-.576 4.231-.091 1.474-.103 3.023-.103 4.685v6.083h-5.988v14.037h5.988v33.973h17.034v-33.973h11.886v-14.037h-11.886v-7.766c0-1.358.094-2.541.303-3.55.208-1.009.534-1.846.995-2.512a4.206 4.206 0 0 1 1.822-1.494c.759-.331 1.676-.495 2.776-.495.562 0 1.095.048 1.607.13.513.083 1.008.204 1.493.35.485.147.962.32 1.439.506.481.189.959.395 1.451.605V84.686a14.797 14.797 0 0 0-1.76-.778 14.2 14.2 0 0 0-1.785-.523 15.955 15.955 0 0 0-1.837-.292 19.48 19.48 0 0 0-1.918-.093c-1.613 0-3.205.171-4.749.501m37.177 7.548h-19.515v70.564h26.018c4.891 0 9.575-.965 13.852-2.722a35.911 35.911 0 0 0 11.404-7.478 34.996 34.996 0 0 0 7.737-11.2c1.834-4.237 2.85-8.922 2.85-13.881 0-4.962-1.011-9.646-2.835-13.884a34.921 34.921 0 0 0-7.717-11.197 35.817 35.817 0 0 0-11.398-7.48 36.527 36.527 0 0 0-13.893-2.722h-6.503Zm-1.17 45.156v-29.622h4.306c2.945 0 5.677.445 8.117 1.31 2.439.863 4.586 2.148 6.365 3.826 1.778 1.679 3.187 3.754 4.152 6.196.965 2.444 1.485 5.258 1.485 8.417 0 3.439-.583 6.392-1.634 8.889-1.047 2.495-2.559 4.533-4.412 6.143-1.855 1.609-4.052 2.787-6.468 3.563-2.417.777-5.057 1.151-7.795 1.151h-4.116v-9.873Zm-87.771-45.156h-15.019l-6.788 17.641-6.785 17.641-6.784 17.642L146 161.612h19.465l1.218-3.064 1.215-3.066 1.218-3.063 1.216-3.066H195.6l1.147 3.066 1.147 3.063 1.146 3.066 1.148 3.064h19.559l-6.645-17.639-6.646-17.642-6.643-17.641-6.646-17.641h-5.006Zm-10.878 38.65 1.894-5.615 1.894-5.613 1.896-5.616h.187l1.873 5.616 1.872 5.613 1.869 5.615 1.873 5.617h-15.256l1.898-5.617Z"/>
  <defs>
    <linearGradient id="a" x1="169.72" x2="295.768" y1="185.327" y2="59.279" gradientUnits="userSpaceOnUse">
      <stop stop-color="#0066A5"/>
      <stop offset=".001" stop-color="#0066A5"/>
      <stop offset="1" stop-color="#00A2DE"/>
    </linearGradient>
  </defs>
</svg>
