<svg xmlns="http://www.w3.org/2000/svg" width="512" height="300" fill="none" viewBox="0 0 512 300">
  <path fill="#FFED00" d="M0 0h512v300H0z"/>
  <path fill="#FFED00" d="M58 243h396V57H58v186Z"/>
  <path fill="#009EE3" d="M169.145 70v8.687h8.691v-8.68L169.145 70m.472 39.84h-3.538v6.33h15.952v-6.33h-3.723V83.713h-12.911v6.33h4.22v19.797Zm-60.545 0h-3.538v6.33h16.325v-6.33h-4.097V99.353c0-5.337 3.352-8.563 8.069-8.563.869 0 1.862.123 2.793.31l.559-7.757c-.931-.188-1.801-.373-2.856-.373-4.965 0-8.007 2.73-9.31 8.192h-.125c.436-3.041.559-5.214.559-7.449h-12.599v6.33h4.22v19.797M72.003 72.342v6.329h4.656v31.171h-3.91v6.328h17.876v-6.328H85.72v-12.04h13.204v-6.703H85.72V78.671h10.244l-.003 2.961h7.449l.001-9.29H72.004m333.672 91.572h-3.166v6.33h15.58v-6.33h-3.723v-10.798c0-4.903 2.296-8.626 7.571-8.626 3.29 0 5.65 1.613 5.65 6.082v13.342h-3.539v6.33H440v-6.33h-3.724v-14.21c0-7.758-3.537-12.661-11.234-12.661-5.647 0-9.621 3.166-11.235 7.447h-.123c.495-2.359.495-4.468.495-6.703h-12.723v6.33h4.22v19.797m-57.534-26.126h-4.407v6.33h4.407v18.183c0 5.709 3.415 8.688 9.807 8.688 2.11 0 4.345-.434 7.572-1.552l.015-6.144c-1.615.622-2.745.994-3.924.994-3.599 0-4.779-1.118-4.779-5.709v-14.46h7.259v-6.33h-7.259v-7.198l-8.691.495v6.703m-16.575 18.68c0 5.958-3.037 8.191-6.513 8.191-3.413 0-4.779-1.985-4.779-3.909 0-2.794 1.796-4.282 8.872-4.282h2.42Zm11.67 7.446h-3.663c.125-4.592.311-9.061.311-14.397 0-9.432-5.085-12.473-13.775-12.473-5.772 0-10.862 2.171-12.972 3.35v8.254h7.448v-4.344c1.49-.558 4.158-.93 5.4-.93 4.097 0 5.706 1.303 5.706 6.205v1.551c-6.332 0-10.298.311-13.588 1.491-3.415 1.24-6.518 4.281-6.518 8.934 0 5.09 3.538 9.433 10.863 9.433 5.461 0 8-2.296 10.174-7.198h.123c-.311 1.241-.434 2.358-.434 4.468v1.986h10.925v-6.33m-53.572 0h-3.539v6.33h16.324v-6.33h-4.095v-10.487c0-5.337 3.352-8.564 8.069-8.564.868 0 1.862.125 2.794.31l.557-7.758c-.931-.184-1.801-.371-2.855-.371-4.965 0-8.006 2.73-9.31 8.191h-.124c.433-3.04.558-5.213.558-7.448h-12.601v6.33h4.222v19.797Zm-43.536 6.33h15.208v-6.33h-2.98v-10.178l6.953 7.758c.93.992 1.8 1.738 2.731 2.296v.124h-3.414v6.33h17.255v-6.33h-3.6l-10.862-11.729 10.117-8.068h2.856v-6.328h-16.511v6.328h4.469v.125c-.498.186-.869.435-1.304.744l-8.69 6.641v-29.105h-13.656v6.33h4.967v35.062h-3.539v6.33m-11.959-15.701c0 5.833-1.858 9.371-7.195 9.371-5.338 0-7.195-3.538-7.195-9.371 0-5.895 1.857-10.425 7.195-10.425 5.337 0 7.195 3.475 7.195 10.425Zm9.435-.186c0-11.293-5.706-17.313-16.63-17.313-10.614 0-16.63 8.006-16.63 17.313 0 11.047 6.265 16.632 16.63 16.632 10.365 0 16.63-6.951 16.63-16.632Zm-50.935 15.887h15.58v-6.33h-3.723v-14.21c0-7.758-3.539-12.66-11.236-12.66-5.709 0-9.311 2.792-10.862 7.322h-.124c-.87-4.841-4.22-7.322-9.559-7.322-5.4 0-9.435 2.606-11.236 7.322h-.123c.496-2.234.496-4.344.496-6.577h-12.724v6.328h4.221v19.797h-3.539v6.33h15.953v-6.33h-3.724v-10.799c0-4.902 2.296-8.625 6.89-8.625 3.29 0 5.648 1.613 5.648 6.081v13.343h-3.166v6.33h15.58v-6.33h-3.724v-10.799c0-5.211 2.667-8.625 6.889-8.625 3.29 0 5.649 1.613 5.649 6.081v13.343h-3.166v6.33m-90.532-22.402c0 11.915-4.163 16.072-11.144 16.072h-5.276v-30.781h5.151c7.106 0 11.269 3.601 11.269 14.709m9.806-.249c0-13.652-7.261-20.789-19.646-20.789H72v6.329h4.655v30.781H72v6.33h20.794c11.889 0 19.15-9.185 19.15-22.651m82.293-51.856c.131-1.371.326-3.053 1.823-4.797 1.172-1.308 2.67-2.056 4.69-2.056 5.34 0 6.25 5.11 6.25 6.853h-12.763Zm12.575 10.759c-.342 1.703-1.745 4.564-6.259 4.564-1.953 0-4.102-.747-5.404-3.176-1.172-2.242-1.238-5.295-1.238-6.852h22.011c0-2.68 0-9.344-3.908-13.642-2.798-3.115-7.097-4.424-11.524-4.424-3.453 0-7.556.685-10.941 4.111-2.084 2.118-4.804 5.67-4.804 12.77 0 11.463 5.519 17.071 15.874 17.071 2.214 0 8.335-.064 12.503-4.985 1.612-1.953 2.321-3.998 2.497-5.428l-8.807-.009m170.327 43.323c.132-1.371.326-3.053 1.823-4.797 1.173-1.308 2.67-2.055 4.69-2.055 5.339 0 6.25 5.108 6.25 6.852h-12.763Zm12.576 10.759c-.343 1.703-1.746 4.565-6.259 4.565-1.955 0-4.102-.749-5.406-3.177-1.17-2.243-1.236-5.295-1.236-6.852h22.01c0-2.679 0-9.344-3.907-13.642-2.8-3.115-7.098-4.424-11.525-4.424-3.453 0-7.555.685-10.941 4.112-2.084 2.117-4.804 5.668-4.804 12.77 0 11.462 5.519 17.07 15.874 17.07 2.215 0 8.336-.064 12.503-4.985 1.612-1.952 2.323-3.998 2.497-5.428l-8.806-.009m-264.516-10.759c.13-1.371.326-3.053 1.823-4.797 1.172-1.308 2.67-2.055 4.69-2.055 5.34 0 6.25 5.108 6.25 6.852h-12.763Zm12.575 10.759c-.342 1.703-1.745 4.565-6.259 4.565-1.953 0-4.102-.749-5.404-3.177-1.172-2.243-1.238-5.295-1.238-6.852h22.011c0-2.679 0-9.344-3.908-13.642-2.798-3.115-7.097-4.424-11.526-4.424-3.451 0-7.554.685-10.939 4.112-2.084 2.117-4.804 5.668-4.804 12.77 0 11.462 5.519 17.07 15.874 17.07 2.214 0 8.335-.064 12.503-4.985 1.612-1.952 2.321-3.998 2.497-5.428l-8.807-.009m2.719-64.841c.131-1.37.326-3.053 1.824-4.797 1.171-1.308 2.669-2.056 4.689-2.056 5.339 0 6.251 5.11 6.251 6.853h-12.764Zm12.576 10.759c-.343 1.703-1.745 4.564-6.26 4.564-1.952 0-4.102-.747-5.404-3.176-1.172-2.242-1.237-5.295-1.237-6.852h22.011c0-2.68 0-9.344-3.908-13.642-2.8-3.115-7.098-4.424-11.526-4.424-3.452 0-7.554.685-10.939 4.111-2.084 2.118-4.805 5.67-4.805 12.77 0 11.463 5.52 17.071 15.874 17.071 2.215 0 8.336-.064 12.504-4.985 1.611-1.953 2.321-3.998 2.497-5.428l-8.807-.009"/>
  <path fill="#E5007D" d="M216 230h224v-49H216v49Z"/>
  <path fill="#fff" d="M361.612 197.146h4.854l.001-6.146H346v4.188h3.033v20.619h-2.548v4.188h11.65v-4.188h-3.195v-7.965h8.602v-4.432h-8.602v-8.222h6.674l-.001 1.958m30.641 7.896c0 7.952-2.737 10.728-7.329 10.728h-3.468v-20.544h3.389c4.671 0 7.408 2.401 7.408 9.816m6.447-.165c0-9.114-4.776-13.877-12.918-13.877h-13.345v4.226h3.06v20.544h-3.06v4.224h13.672c7.815 0 12.591-6.13 12.591-15.117Zm17.055-.286c2.978 0 4.531-1.823 4.531-4.765 0-2.982-1.756-4.597-4.612-4.597h-3.145v9.362h3.226Zm-9.183-9.362h-2.817v-4.225h11.796c6.897 0 10.448 2.9 10.448 8.574 0 5.427-3.796 9.237-9.469 9.237h-4.001v6.96h2.817V220h-11.591v-4.225h2.817v-20.546"/>
</svg>
