<svg xmlns="http://www.w3.org/2000/svg" width="512" height="300" fill="none" viewBox="0 0 512 300">
  <path fill="#ECECEC" d="M0 0h512v300H0z"/>
  <path fill="#000" d="M80.922 172v-44.8h27.781v5.819H87.681v13.65h19.032v5.797H87.681V172h-6.76Zm35.148 0v-33.6h6.321v5.337h.35c.613-1.808 1.692-3.23 3.238-4.265 1.56-1.05 3.325-1.575 5.294-1.575.408 0 .889.014 1.443.044.569.029 1.014.065 1.335.109v6.256c-.263-.073-.729-.153-1.4-.24a13.378 13.378 0 0 0-2.013-.154c-1.546 0-2.924.329-4.134.985a7.314 7.314 0 0 0-2.844 2.69c-.7 1.138-1.05 2.436-1.05 3.894V172h-6.54Zm33.118.744c-2.129 0-4.054-.394-5.775-1.182-1.721-.802-3.084-1.961-4.09-3.478-.992-1.516-1.488-3.376-1.488-5.578 0-1.896.365-3.456 1.094-4.681a8.061 8.061 0 0 1 2.953-2.909c1.24-.715 2.625-1.255 4.156-1.619a41.125 41.125 0 0 1 4.682-.831l4.9-.569c1.254-.161 2.165-.416 2.734-.766.569-.35.853-.919.853-1.706v-.153c0-1.911-.54-3.391-1.619-4.441-1.064-1.05-2.654-1.575-4.768-1.575-2.203 0-3.938.489-5.207 1.466-1.254.962-2.122 2.034-2.603 3.216l-6.147-1.4c.729-2.042 1.794-3.69 3.194-4.944a12.962 12.962 0 0 1 4.878-2.757 19.057 19.057 0 0 1 5.797-.874c1.342 0 2.764.16 4.266.481 1.516.306 2.931.875 4.243 1.706 1.327.831 2.414 2.02 3.26 3.566.846 1.531 1.269 3.522 1.269 5.972V172h-6.388v-4.594h-.262c-.423.846-1.058 1.677-1.904 2.494-.845.817-1.932 1.495-3.259 2.034-1.327.54-2.917.81-4.769.81Zm1.422-5.25c1.808 0 3.354-.358 4.638-1.072 1.298-.715 2.282-1.648 2.953-2.8a7.27 7.27 0 0 0 1.028-3.741v-4.331c-.233.233-.686.452-1.356.656-.657.19-1.408.358-2.253.503-.846.132-1.67.256-2.472.372-.802.102-1.473.19-2.013.263-1.269.16-2.428.43-3.478.809-1.035.379-1.867.926-2.494 1.641-.612.7-.918 1.633-.918 2.8 0 1.618.597 2.844 1.793 3.675 1.196.816 2.72 1.225 4.572 1.225Zm29.887-6.891-.044-7.984h1.138l13.387-14.219h7.831l-15.268 16.187h-1.029l-6.015 6.016ZM174.481 172v-44.8h6.541V172h-6.541Zm21.219 0-12.031-15.969 4.506-4.572L203.728 172H195.7Zm28.755-33.6v5.25h-18.353v-5.25h18.353Zm-13.432-8.05h6.541v31.784c0 1.269.19 2.224.569 2.866.379.627.868 1.057 1.465 1.291a5.898 5.898 0 0 0 1.991.328c.525 0 .984-.037 1.378-.11.394-.073.7-.131.919-.175l1.181 5.403c-.379.146-.919.292-1.619.438-.7.16-1.575.248-2.625.263-1.72.029-3.325-.278-4.812-.919a8.254 8.254 0 0 1-3.609-2.975c-.919-1.342-1.379-3.026-1.379-5.053V130.35ZM231.69 172v-33.6h6.54V172h-6.54Zm3.303-38.784c-1.138 0-2.115-.38-2.931-1.138-.802-.773-1.203-1.692-1.203-2.756 0-1.079.401-1.998 1.203-2.756.816-.773 1.793-1.16 2.931-1.16 1.137 0 2.107.387 2.909 1.16.817.758 1.225 1.677 1.225 2.756 0 1.064-.408 1.983-1.225 2.756-.802.758-1.772 1.138-2.909 1.138Zm26.19 39.462c-3.15 0-5.899-.722-8.247-2.166-2.348-1.443-4.171-3.463-5.469-6.059s-1.947-5.629-1.947-9.1c0-3.485.649-6.533 1.947-9.144 1.298-2.61 3.121-4.637 5.469-6.081 2.348-1.444 5.097-2.165 8.247-2.165 3.15 0 5.899.721 8.247 2.165s4.171 3.471 5.468 6.081c1.298 2.611 1.947 5.659 1.947 9.144 0 3.471-.649 6.504-1.947 9.1-1.297 2.596-3.12 4.616-5.468 6.059-2.348 1.444-5.097 2.166-8.247 2.166Zm.022-5.49c2.041 0 3.733-.54 5.075-1.619 1.341-1.079 2.333-2.516 2.975-4.31.656-1.793.984-3.769.984-5.928 0-2.144-.328-4.112-.984-5.906-.642-1.808-1.634-3.259-2.975-4.353-1.342-1.094-3.034-1.641-5.075-1.641-2.057 0-3.763.547-5.119 1.641-1.342 1.094-2.341 2.545-2.997 4.353-.642 1.794-.962 3.762-.962 5.906 0 2.159.32 4.135.962 5.928.656 1.794 1.655 3.231 2.997 4.31 1.356 1.079 3.062 1.619 5.119 1.619Zm29.482-15.138V172h-6.541v-33.6h6.278v5.469h.416c.773-1.779 1.983-3.209 3.631-4.288 1.663-1.079 3.755-1.618 6.278-1.618 2.29 0 4.295.481 6.016 1.443 1.721.948 3.055 2.363 4.003 4.244.948 1.881 1.422 4.207 1.422 6.978V172h-6.541v-20.584c0-2.436-.634-4.339-1.903-5.71-1.269-1.385-3.011-2.078-5.228-2.078-1.517 0-2.866.328-4.047.985-1.167.656-2.093 1.618-2.778 2.887-.671 1.254-1.006 2.771-1.006 4.55Zm55.453-5.447-5.928 1.05a7.03 7.03 0 0 0-1.182-2.166c-.525-.685-1.239-1.246-2.143-1.684-.904-.437-2.035-.656-3.391-.656-1.852 0-3.398.415-4.637 1.247-1.24.816-1.86 1.874-1.86 3.172 0 1.123.416 2.027 1.247 2.712.831.686 2.173 1.247 4.025 1.685l5.338 1.224c3.091.715 5.395 1.816 6.912 3.304 1.517 1.487 2.275 3.419 2.275 5.797 0 2.012-.583 3.806-1.75 5.381-1.152 1.56-2.763 2.785-4.834 3.675-2.057.889-4.441 1.334-7.153 1.334-3.763 0-6.833-.802-9.21-2.406-2.377-1.619-3.835-3.916-4.375-6.891l6.322-.962c.394 1.648 1.203 2.895 2.428 3.74 1.225.832 2.822 1.247 4.791 1.247 2.144 0 3.857-.445 5.14-1.334 1.284-.904 1.925-2.005 1.925-3.303 0-1.05-.393-1.933-1.181-2.647-.773-.715-1.961-1.254-3.565-1.619l-5.688-1.247c-3.135-.714-5.454-1.852-6.956-3.412-1.488-1.561-2.231-3.537-2.231-5.928 0-1.984.554-3.719 1.662-5.207 1.108-1.487 2.64-2.646 4.594-3.478 1.954-.846 4.193-1.268 6.715-1.268 3.632 0 6.49.787 8.575 2.362 2.086 1.56 3.464 3.653 4.135 6.278Zm14.388-19.403V172h-6.54v-44.8h6.54Zm22.952 45.478c-3.15 0-5.898-.722-8.246-2.166-2.348-1.443-4.171-3.463-5.469-6.059s-1.947-5.629-1.947-9.1c0-3.485.649-6.533 1.947-9.144 1.298-2.61 3.121-4.637 5.469-6.081 2.348-1.444 5.096-2.165 8.246-2.165 3.15 0 5.899.721 8.247 2.165s4.171 3.471 5.469 6.081c1.298 2.611 1.947 5.659 1.947 9.144 0 3.471-.649 6.504-1.947 9.1s-3.121 4.616-5.469 6.059c-2.348 1.444-5.097 2.166-8.247 2.166Zm.022-5.49c2.042 0 3.734-.54 5.075-1.619 1.342-1.079 2.334-2.516 2.975-4.31.657-1.793.985-3.769.985-5.928 0-2.144-.328-4.112-.985-5.906-.641-1.808-1.633-3.259-2.975-4.353-1.341-1.094-3.033-1.641-5.075-1.641-2.056 0-3.762.547-5.118 1.641-1.342 1.094-2.341 2.545-2.997 4.353-.642 1.794-.963 3.762-.963 5.906 0 2.159.321 4.135.963 5.928.656 1.794 1.655 3.231 2.997 4.31 1.356 1.079 3.062 1.619 5.118 1.619Zm48.12-20.585-5.928 1.05a7.047 7.047 0 0 0-1.181-2.166c-.525-.685-1.24-1.246-2.144-1.684-.904-.437-2.035-.656-3.391-.656-1.852 0-3.398.415-4.637 1.247-1.24.816-1.86 1.874-1.86 3.172 0 1.123.416 2.027 1.247 2.712.831.686 2.173 1.247 4.025 1.685l5.338 1.224c3.091.715 5.395 1.816 6.912 3.304 1.517 1.487 2.275 3.419 2.275 5.797 0 2.012-.583 3.806-1.75 5.381-1.152 1.56-2.763 2.785-4.834 3.675-2.056.889-4.441 1.334-7.153 1.334-3.763 0-6.833-.802-9.21-2.406-2.377-1.619-3.835-3.916-4.375-6.891l6.322-.962c.394 1.648 1.203 2.895 2.428 3.74 1.225.832 2.822 1.247 4.791 1.247 2.144 0 3.857-.445 5.14-1.334 1.284-.904 1.925-2.005 1.925-3.303 0-1.05-.393-1.933-1.181-2.647-.773-.715-1.961-1.254-3.565-1.619l-5.688-1.247c-3.135-.714-5.454-1.852-6.956-3.412-1.488-1.561-2.231-3.537-2.231-5.928 0-1.984.554-3.719 1.662-5.207 1.108-1.487 2.64-2.646 4.594-3.478 1.954-.846 4.193-1.268 6.716-1.268 3.631 0 6.489.787 8.575 2.362 2.085 1.56 3.463 3.653 4.134 6.278Z"/>
</svg>
