<svg xmlns="http://www.w3.org/2000/svg" width="512" height="300" fill="none" viewBox="0 0 512 300">
  <path fill="#DC0000" d="M0 0h512v300H0z"/>
  <path fill="#fff" d="M444.135 195c6.499 0 12.678-5.099 13.708-11.523 1.095-6.831-3.675-11.826-10.379-11.826-6.087 0-12.198 5.302-13.195 11.522-1.046 6.525 3.263 11.827 9.866 11.827Zm-57.122-1.122h37.139l2.765-18.149h-17.151l1.786-11.726h15.386l2.764-18.147h-15.387l1.63-10.708h17.15l2.763-18.147h-37.142l-11.703 76.877Zm-3.868 0-11.78-39.765L392.989 117h-21.07l-15.958 32.729L360.845 117h-19.991l-11.704 76.877h19.993l5.37-35.277 7.173 35.277h21.459v.001Zm-114.049 0h19.208l3.429-22.533c1.103-7.241 1.307-14.377 1.919-21.615l8.371 44.148h19.207l11.704-76.877h-19.208l-2.98 19.575c-1.349 8.87-1.216 17.638-1.782 26.509l-9.153-46.084H280.8l-11.704 76.877Zm-35.272 0 2.761-18.149h-14.994l8.941-58.728h-19.991l-11.704 76.877h34.987Zm-93.861 0h37.141l2.763-18.149h-17.15l1.785-11.726h15.386l2.763-18.147h-15.387l1.63-10.708h17.149l2.764-18.147h-37.141l-11.703 76.877Zm-7.959 0L143.707 117h-19.992l-11.703 76.878h19.992Zm-48.226-57.709c9.113 0 8.912 11.622 7.64 19.983-1.102 7.239-4.471 19.067-13.6 19.168l5.96-39.151ZM55 193.878h17.445c12.151 0 34.11-3.263 39.512-38.745 3.538-23.247-6.446-38.132-29.18-38.132H66.703L55 193.878Zm206.01 0 9.86-62.805h-19.991l-9.862 62.805h19.993ZM276.807 100l-42.633 12.792 38.86 11.338 3.773-24.13Z"/>
</svg>
