<svg xmlns="http://www.w3.org/2000/svg" width="512" height="300" fill="none" viewBox="0 0 512 300">
  <path fill="#fff" d="M0 0h512v300H0z"/>
  <path fill="#BB232A" fill-rule="evenodd" d="m339.095 107.414-7.145 46.034c-1.595 10.287 4.147 17.96 15.279 17.96 9.477 0 17.463-6.308 19.267-17.96l7.144-46.034h28.006l-6.71 43.239c-3.696 23.832-17.138 40.237-49.698 40.237-21.637 0-33.638-7.732-38.813-17.704-3.872-7.46-4.048-16.242-2.904-23.604l6.539-42.168h29.035Zm-72.892 40.792c-1.881 12.18-7.089 23.229-24.568 23.229h-15.158l7.205-46.48h13.508c6.473 0 10.384 1.001 13.354 3.415 4.933 4.024 6.941 11.527 5.659 19.836m-9.889-40.781h-47.811l-12.722 82.062h50.655c31.741 0 45.391-16.339 48.224-41.287 2.887-25.431-11.88-40.781-38.346-40.781m-68.024 60.215c-4.18 1.278-13.761 2.365-23.298 2.365-21.51 0-28.957-9.994-28.16-21.799.88-13.142 12.364-22.429 34.672-22.429 8.998 0 18.618 2.278 20.955 2.996l3.003-19.282c-4.136-1.152-15.928-3.485-32.087-3.485-39.677 0-53.245 21.679-55.83 37.546-3.63 22.315 10.769 47.355 49.005 47.355 12.188 0 24.64-1.783 28.666-3.632l3.074-19.635Z" clip-rule="evenodd"/>
</svg>
