<svg xmlns="http://www.w3.org/2000/svg" width="160" height="161" fill="none" viewBox="0 0 160 161">
  <path fill="#43EDF9" fill-rule="evenodd" d="M121.875 0C145 0 160 15 160 38.125v83.75C160 145 145 160 121.875 160h-83.75C15 160 0 145 0 121.875v-83.75C0 15 15 0 38.125 0h83.75Z" clip-rule="evenodd"/>
  <path fill="url(#a)" fill-rule="evenodd" d="M121.875 0C145 0 160 15 160 38.125v83.75C160 145 145 160 121.875 160h-83.75C15 160 0 145 0 121.875v-83.75C0 15 15 0 38.125 0h83.75Z" clip-rule="evenodd"/>
  <path fill="#fff" fill-rule="evenodd" d="M80 12.813c37.107 0 67.188 30.08 67.188 67.187S117.107 147.188 80 147.188 12.812 117.107 12.812 80 42.894 12.812 80 12.812Zm5.576 109.252c-2.85 4.675-5.134 8.196-6.85 10.563-1.599 2.205-3.937 5.103-7.015 8.695 2.71.365 5.478.552 8.289.552a61.71 61.71 0 0 0 22.859-4.36c-1.253-1.027-4.244-3.154-8.526-6.993-1.66-1.488-4.579-4.307-8.757-8.457ZM80 18.125c-34.173 0-61.875 27.702-61.875 61.875 0 18.101 7.773 34.387 20.163 45.702 4.172-2.759 8.168-5.978 11.99-9.658 4.25-4.093 8.9-9.543 13.947-16.35-7.158-7.654-12.305-13.602-15.44-17.842-6.628-8.965-9.326-17.825-9.518-22.46-.334-8.09 7.036-17.99 22.111-29.705 2.036 9.951 4.446 17.701 7.231 23.25 2.785 5.55 7.991 13.253 15.618 23.112 5.923-7.677 10.237-12.919 12.942-15.726 5.203-5.398 10.311-9.05 14.133-11.702 6.251-4.334 12.302-6.27 18.154-5.809C118.166 27.82 100.215 18.125 80 18.125Zm60.483 48.762-.06.02c-5.168 1.708-11.687 6.312-19.557 13.81-8.114 7.732-13.357 13.804-15.731 18.217 5.084 5.431 10.328 9.98 15.731 13.646 4.59 3.114 7.381 4.745 8.374 4.892 7.928-10.399 12.635-23.386 12.635-37.472 0-4.5-.48-8.886-1.392-13.113Z" clip-rule="evenodd"/>
  <defs>
    <linearGradient id="a" x1="0" x2="160" y1="0" y2="160" gradientUnits="userSpaceOnUse">
      <stop stop-color="#4FB2FF"/>
      <stop offset="1" stop-color="#387CB2"/>
    </linearGradient>
  </defs>
</svg>
