<?xml version="1.0" encoding="UTF-8" standalone="no"?><svg xmlns="http://www.w3.org/2000/svg" xmlns:xlink="http://www.w3.org/1999/xlink" contentScriptType="application/ecmascript" contentStyleType="text/css" height="490px" preserveAspectRatio="none" style="width:1761px;height:490px;" version="1.1" viewBox="0 0 1761 490" width="1761px" zoomAndPan="magnify"><defs><filter height="300%" id="fkz3qfubq6xph" width="300%" x="-1" y="-1"><feGaussianBlur result="blurOut" stdDeviation="2.0"/><feColorMatrix in="blurOut" result="blurOut2" type="matrix" values="0 0 0 0 0 0 0 0 0 0 0 0 0 0 0 0 0 0 .4 0"/><feOffset dx="4.0" dy="4.0" in="blurOut2" result="blurOut3"/><feBlend in="SourceGraphic" in2="blurOut3" mode="normal"/></filter></defs><g><!--cluster Importer--><polygon fill="#FFFFFF" filter="url(#fkz3qfubq6xph)" points="22,24,88,24,95,47.6094,1739,47.6094,1739,478,22,478,22,24" style="stroke: #000000; stroke-width: 1.5;"/><line style="stroke: #000000; stroke-width: 1.5;" x1="22" x2="95" y1="47.6094" y2="47.6094"/><text fill="#000000" font-family="sans-serif" font-size="14" font-weight="bold" lengthAdjust="spacingAndGlyphs" textLength="60" x="26" y="40.5332">Importer</text><!--cluster Parser--><polygon fill="#FFFFFF" filter="url(#fkz3qfubq6xph)" points="1214,79,1266,79,1273,102.6094,1715,102.6094,1715,440,1214,440,1214,79" style="stroke: #000000; stroke-width: 1.5;"/><line style="stroke: #000000; stroke-width: 1.5;" x1="1214" x2="1273" y1="102.6094" y2="102.6094"/><text fill="#000000" font-family="sans-serif" font-size="14" font-weight="bold" lengthAdjust="spacingAndGlyphs" textLength="46" x="1218" y="95.5332">Parser</text><!--cluster Browser--><polygon fill="#FFFFFF" filter="url(#fkz3qfubq6xph)" points="724,79,789,79,796,102.6094,1190,102.6094,1190,440,724,440,724,79" style="stroke: #000000; stroke-width: 1.5;"/><line style="stroke: #000000; stroke-width: 1.5;" x1="724" x2="796" y1="102.6094" y2="102.6094"/><text fill="#000000" font-family="sans-serif" font-size="14" font-weight="bold" lengthAdjust="spacingAndGlyphs" textLength="59" x="728" y="95.5332">Browser</text><!--cluster Scraper--><polygon fill="#FFFFFF" filter="url(#fkz3qfubq6xph)" points="46,68,107,68,114,91.6094,700,91.6094,700,454,46,454,46,68" style="stroke: #000000; stroke-width: 1.5;"/><line style="stroke: #000000; stroke-width: 1.5;" x1="46" x2="114" y1="91.6094" y2="91.6094"/><text fill="#000000" font-family="sans-serif" font-size="14" font-weight="bold" lengthAdjust="spacingAndGlyphs" textLength="55" x="50" y="84.5332">Scraper</text><!--class IParser--><rect fill="#FEFECE" filter="url(#fkz3qfubq6xph)" height="61.8359" id="IParser" style="stroke: #A80036; stroke-width: 1.5;" width="156" x="1386" y="226"/><ellipse cx="1401" cy="242" fill="#B4A7E5" rx="11" ry="11" style="stroke: #A80036; stroke-width: 1.0;"/><path d="M1401.9531,238.6406 L1401.9531,245.2969 L1403.6719,245.2969 Q1404.2813,245.2969 1404.5469,245.5313 Q1404.8125,245.7656 1404.8125,246.1563 Q1404.8125,246.5313 1404.5469,246.7656 Q1404.2813,247 1403.6719,247 L1398.5313,247 Q1397.9219,247 1397.6563,246.7656 Q1397.3906,246.5313 1397.3906,246.1406 Q1397.3906,245.7656 1397.6563,245.5313 Q1397.9219,245.2969 1398.5313,245.2969 L1400.25,245.2969 L1400.25,238.6406 L1398.5313,238.6406 Q1397.9219,238.6406 1397.6563,238.4063 Q1397.3906,238.1719 1397.3906,237.7813 Q1397.3906,237.4063 1397.6563,237.1719 Q1397.9219,236.9375 1398.5313,236.9375 L1403.6719,236.9375 Q1404.2813,236.9375 1404.5469,237.1719 Q1404.8125,237.4063 1404.8125,237.7813 Q1404.8125,238.1719 1404.5469,238.4063 Q1404.2813,238.6406 1403.6719,238.6406 L1401.9531,238.6406 Z "/><text fill="#000000" font-family="sans-serif" font-size="12" font-style="italic" lengthAdjust="spacingAndGlyphs" textLength="40" x="1415" y="246.9102">IParser</text><rect fill="#FFFFFF" height="17.0938" style="stroke: #000000; stroke-width: 1.0; stroke-dasharray: 2.0,2.0;" width="82" x="1463" y="223"/><text fill="#000000" font-family="sans-serif" font-size="12" font-style="italic" lengthAdjust="spacingAndGlyphs" textLength="80" x="1464" y="236.457">T extends IFile</text><line style="stroke: #A80036; stroke-width: 1.5;" x1="1387" x2="1541" y1="258" y2="258"/><line style="stroke: #A80036; stroke-width: 1.5;" x1="1387" x2="1541" y1="266" y2="266"/><text fill="#000000" font-family="sans-serif" font-size="11" lengthAdjust="spacingAndGlyphs" textLength="114" x="1392" y="281.4189">JSON parse(content: T)</text><path d="M1279.5,115 L1279.5,141.3516 A0,0 0 0 0 1279.5,141.3516 L1460,141.3516 L1464,225.993 L1468,141.3516 L1648.5,141.3516 A0,0 0 0 0 1648.5,141.3516 L1648.5,125 L1638.5,115 L1279.5,115 A0,0 0 0 0 1279.5,115 " fill="#FBFB77" filter="url(#fkz3qfubq6xph)" style="stroke: #A80036; stroke-width: 1.0;"/><path d="M1638.5,115 L1638.5,125 L1648.5,125 L1638.5,115 " fill="#FBFB77" style="stroke: #A80036; stroke-width: 1.0;"/><text fill="#000000" font-family="sans-serif" font-size="13" lengthAdjust="spacingAndGlyphs" textLength="348" x="1285.5" y="133.4951">Extrahiert die gew端nschten Daten aus dem gegebenen IFile.</text><!--class DipProcedureDataParser--><rect fill="#FEFECE" filter="url(#fkz3qfubq6xph)" height="48" id="DipProcedureDataParser" style="stroke: #A80036; stroke-width: 1.5;" width="201" x="1230.5" y="376"/><ellipse cx="1245.5" cy="392" fill="#ADD1B2" rx="11" ry="11" style="stroke: #A80036; stroke-width: 1.0;"/><path d="M1248.2656,387.875 Q1248.4219,387.6563 1248.6094,387.5469 Q1248.7969,387.4375 1249.0156,387.4375 Q1249.3906,387.4375 1249.625,387.6953 Q1249.8594,387.9531 1249.8594,388.5625 L1249.8594,390.0156 Q1249.8594,390.625 1249.625,390.8906 Q1249.3906,391.1563 1249.0156,391.1563 Q1248.6719,391.1563 1248.4688,390.9531 Q1248.2656,390.7656 1248.1563,390.25 Q1248.1094,389.8906 1247.9219,389.7031 Q1247.5938,389.3281 1246.9844,389.1094 Q1246.375,388.8906 1245.75,388.8906 Q1244.9844,388.8906 1244.3516,389.2188 Q1243.7188,389.5469 1243.2266,390.2969 Q1242.7344,391.0469 1242.7344,392.0781 L1242.7344,393.1719 Q1242.7344,394.4063 1243.625,395.2266 Q1244.5156,396.0469 1246.1094,396.0469 Q1247.0469,396.0469 1247.7031,395.7969 Q1248.0938,395.6406 1248.5156,395.2031 Q1248.7813,394.9375 1248.9297,394.8594 Q1249.0781,394.7813 1249.2813,394.7813 Q1249.6094,394.7813 1249.8672,395.0391 Q1250.125,395.2969 1250.125,395.6406 Q1250.125,395.9844 1249.7813,396.3906 Q1249.2813,396.9688 1248.4844,397.2969 Q1247.4063,397.75 1246.1094,397.75 Q1244.5938,397.75 1243.3906,397.125 Q1242.4063,396.625 1241.7188,395.5547 Q1241.0313,394.4844 1241.0313,393.2031 L1241.0313,392.0469 Q1241.0313,390.7188 1241.6484,389.5703 Q1242.2656,388.4219 1243.3594,387.8047 Q1244.4531,387.1875 1245.6875,387.1875 Q1246.4219,387.1875 1247.0703,387.3516 Q1247.7188,387.5156 1248.2656,387.875 Z "/><text fill="#000000" font-family="sans-serif" font-size="12" lengthAdjust="spacingAndGlyphs" textLength="139" x="1259.5" y="396.9102">DipProcedureDataParser</text><rect fill="#FFFFFF" height="17.0938" style="stroke: #000000; stroke-width: 1.0; stroke-dasharray: 2.0,2.0;" width="28" x="1406.5" y="373"/><text fill="#000000" font-family="sans-serif" font-size="12" font-style="italic" lengthAdjust="spacingAndGlyphs" textLength="26" x="1407.5" y="386.457">Html</text><line style="stroke: #A80036; stroke-width: 1.5;" x1="1231.5" x2="1430.5" y1="408" y2="408"/><line style="stroke: #A80036; stroke-width: 1.5;" x1="1231.5" x2="1430.5" y1="416" y2="416"/><!--class PlenarProtocolSpeechesParser--><rect fill="#FEFECE" filter="url(#fkz3qfubq6xph)" height="48" id="PlenarProtocolSpeechesParser" style="stroke: #A80036; stroke-width: 1.5;" width="232" x="1467" y="376"/><ellipse cx="1482" cy="392" fill="#ADD1B2" rx="11" ry="11" style="stroke: #A80036; stroke-width: 1.0;"/><path d="M1484.7656,387.875 Q1484.9219,387.6563 1485.1094,387.5469 Q1485.2969,387.4375 1485.5156,387.4375 Q1485.8906,387.4375 1486.125,387.6953 Q1486.3594,387.9531 1486.3594,388.5625 L1486.3594,390.0156 Q1486.3594,390.625 1486.125,390.8906 Q1485.8906,391.1563 1485.5156,391.1563 Q1485.1719,391.1563 1484.9688,390.9531 Q1484.7656,390.7656 1484.6563,390.25 Q1484.6094,389.8906 1484.4219,389.7031 Q1484.0938,389.3281 1483.4844,389.1094 Q1482.875,388.8906 1482.25,388.8906 Q1481.4844,388.8906 1480.8516,389.2188 Q1480.2188,389.5469 1479.7266,390.2969 Q1479.2344,391.0469 1479.2344,392.0781 L1479.2344,393.1719 Q1479.2344,394.4063 1480.125,395.2266 Q1481.0156,396.0469 1482.6094,396.0469 Q1483.5469,396.0469 1484.2031,395.7969 Q1484.5938,395.6406 1485.0156,395.2031 Q1485.2813,394.9375 1485.4297,394.8594 Q1485.5781,394.7813 1485.7813,394.7813 Q1486.1094,394.7813 1486.3672,395.0391 Q1486.625,395.2969 1486.625,395.6406 Q1486.625,395.9844 1486.2813,396.3906 Q1485.7813,396.9688 1484.9844,397.2969 Q1483.9063,397.75 1482.6094,397.75 Q1481.0938,397.75 1479.8906,397.125 Q1478.9063,396.625 1478.2188,395.5547 Q1477.5313,394.4844 1477.5313,393.2031 L1477.5313,392.0469 Q1477.5313,390.7188 1478.1484,389.5703 Q1478.7656,388.4219 1479.8594,387.8047 Q1480.9531,387.1875 1482.1875,387.1875 Q1482.9219,387.1875 1483.5703,387.3516 Q1484.2188,387.5156 1484.7656,387.875 Z "/><text fill="#000000" font-family="sans-serif" font-size="12" lengthAdjust="spacingAndGlyphs" textLength="174" x="1496" y="396.9102">PlenarProtocolSpeechesParser</text><rect fill="#FFFFFF" height="17.0938" style="stroke: #000000; stroke-width: 1.0; stroke-dasharray: 2.0,2.0;" width="24" x="1678" y="373"/><text fill="#000000" font-family="sans-serif" font-size="12" font-style="italic" lengthAdjust="spacingAndGlyphs" textLength="22" x="1679" y="386.457">Xml</text><line style="stroke: #A80036; stroke-width: 1.5;" x1="1468" x2="1698" y1="408" y2="408"/><line style="stroke: #A80036; stroke-width: 1.5;" x1="1468" x2="1698" y1="416" y2="416"/><!--class IBrowser--><rect fill="#FEFECE" filter="url(#fkz3qfubq6xph)" height="89.5078" id="IBrowser" style="stroke: #A80036; stroke-width: 1.5;" width="164" x="875" y="212"/><ellipse cx="890" cy="228" fill="#B4A7E5" rx="11" ry="11" style="stroke: #A80036; stroke-width: 1.0;"/><path d="M890.9531,224.6406 L890.9531,231.2969 L892.6719,231.2969 Q893.2813,231.2969 893.5469,231.5313 Q893.8125,231.7656 893.8125,232.1563 Q893.8125,232.5313 893.5469,232.7656 Q893.2813,233 892.6719,233 L887.5313,233 Q886.9219,233 886.6563,232.7656 Q886.3906,232.5313 886.3906,232.1406 Q886.3906,231.7656 886.6563,231.5313 Q886.9219,231.2969 887.5313,231.2969 L889.25,231.2969 L889.25,224.6406 L887.5313,224.6406 Q886.9219,224.6406 886.6563,224.4063 Q886.3906,224.1719 886.3906,223.7813 Q886.3906,223.4063 886.6563,223.1719 Q886.9219,222.9375 887.5313,222.9375 L892.6719,222.9375 Q893.2813,222.9375 893.5469,223.1719 Q893.8125,223.4063 893.8125,223.7813 Q893.8125,224.1719 893.5469,224.4063 Q893.2813,224.6406 892.6719,224.6406 L890.9531,224.6406 Z "/><text fill="#000000" font-family="sans-serif" font-size="12" font-style="italic" lengthAdjust="spacingAndGlyphs" textLength="48" x="904" y="232.9102">IBrowser</text><rect fill="#FFFFFF" height="17.0938" style="stroke: #000000; stroke-width: 1.0; stroke-dasharray: 2.0,2.0;" width="82" x="960" y="209"/><text fill="#000000" font-family="sans-serif" font-size="12" font-style="italic" lengthAdjust="spacingAndGlyphs" textLength="80" x="961" y="222.457">T extends IFile</text><line style="stroke: #A80036; stroke-width: 1.5;" x1="876" x2="1038" y1="244" y2="244"/><line style="stroke: #A80036; stroke-width: 1.5;" x1="876" x2="1038" y1="252" y2="252"/><text fill="#000000" font-family="sans-serif" font-size="11" lengthAdjust="spacingAndGlyphs" textLength="85" x="881" y="267.4189">void load(uri: URI)</text><text fill="#000000" font-family="sans-serif" font-size="11" lengthAdjust="spacingAndGlyphs" textLength="89" x="881" y="281.2549">boolean hasNext()</text><text fill="#000000" font-family="sans-serif" font-size="11" lengthAdjust="spacingAndGlyphs" textLength="38" x="881" y="295.0908">T next()</text><path d="M740.5,115 L740.5,141.3516 A0,0 0 0 0 740.5,141.3516 L953,141.3516 L957,211.953 L961,141.3516 L1173.5,141.3516 A0,0 0 0 0 1173.5,141.3516 L1173.5,125 L1163.5,115 L740.5,115 A0,0 0 0 0 740.5,115 " fill="#FBFB77" filter="url(#fkz3qfubq6xph)" style="stroke: #A80036; stroke-width: 1.0;"/><path d="M1163.5,115 L1163.5,125 L1173.5,125 L1163.5,115 " fill="#FBFB77" style="stroke: #A80036; stroke-width: 1.0;"/><text fill="#000000" font-family="sans-serif" font-size="13" lengthAdjust="spacingAndGlyphs" textLength="404" x="746.5" y="133.4951">Navigiert in einer Struktur und liefert die gew端nschten IFile-Fragmente.</text><!--class DipBrowser--><rect fill="#FEFECE" filter="url(#fkz3qfubq6xph)" height="48" id="DipBrowser" style="stroke: #A80036; stroke-width: 1.5;" width="127" x="783.5" y="376"/><ellipse cx="798.5" cy="392" fill="#ADD1B2" rx="11" ry="11" style="stroke: #A80036; stroke-width: 1.0;"/><path d="M801.2656,387.875 Q801.4219,387.6563 801.6094,387.5469 Q801.7969,387.4375 802.0156,387.4375 Q802.3906,387.4375 802.625,387.6953 Q802.8594,387.9531 802.8594,388.5625 L802.8594,390.0156 Q802.8594,390.625 802.625,390.8906 Q802.3906,391.1563 802.0156,391.1563 Q801.6719,391.1563 801.4688,390.9531 Q801.2656,390.7656 801.1563,390.25 Q801.1094,389.8906 800.9219,389.7031 Q800.5938,389.3281 799.9844,389.1094 Q799.375,388.8906 798.75,388.8906 Q797.9844,388.8906 797.3516,389.2188 Q796.7188,389.5469 796.2266,390.2969 Q795.7344,391.0469 795.7344,392.0781 L795.7344,393.1719 Q795.7344,394.4063 796.625,395.2266 Q797.5156,396.0469 799.1094,396.0469 Q800.0469,396.0469 800.7031,395.7969 Q801.0938,395.6406 801.5156,395.2031 Q801.7813,394.9375 801.9297,394.8594 Q802.0781,394.7813 802.2813,394.7813 Q802.6094,394.7813 802.8672,395.0391 Q803.125,395.2969 803.125,395.6406 Q803.125,395.9844 802.7813,396.3906 Q802.2813,396.9688 801.4844,397.2969 Q800.4063,397.75 799.1094,397.75 Q797.5938,397.75 796.3906,397.125 Q795.4063,396.625 794.7188,395.5547 Q794.0313,394.4844 794.0313,393.2031 L794.0313,392.0469 Q794.0313,390.7188 794.6484,389.5703 Q795.2656,388.4219 796.3594,387.8047 Q797.4531,387.1875 798.6875,387.1875 Q799.4219,387.1875 800.0703,387.3516 Q800.7188,387.5156 801.2656,387.875 Z "/><text fill="#000000" font-family="sans-serif" font-size="12" lengthAdjust="spacingAndGlyphs" textLength="65" x="812.5" y="396.9102">DipBrowser</text><rect fill="#FFFFFF" height="17.0938" style="stroke: #000000; stroke-width: 1.0; stroke-dasharray: 2.0,2.0;" width="28" x="885.5" y="373"/><text fill="#000000" font-family="sans-serif" font-size="12" font-style="italic" lengthAdjust="spacingAndGlyphs" textLength="26" x="886.5" y="386.457">Html</text><line style="stroke: #A80036; stroke-width: 1.5;" x1="784.5" x2="909.5" y1="408" y2="408"/><line style="stroke: #A80036; stroke-width: 1.5;" x1="784.5" x2="909.5" y1="416" y2="416"/><!--class PlenarProtocolBrowser--><rect fill="#FEFECE" filter="url(#fkz3qfubq6xph)" height="48" id="PlenarProtocolBrowser" style="stroke: #A80036; stroke-width: 1.5;" width="185" x="945.5" y="376"/><ellipse cx="960.5" cy="392" fill="#ADD1B2" rx="11" ry="11" style="stroke: #A80036; stroke-width: 1.0;"/><path d="M963.2656,387.875 Q963.4219,387.6563 963.6094,387.5469 Q963.7969,387.4375 964.0156,387.4375 Q964.3906,387.4375 964.625,387.6953 Q964.8594,387.9531 964.8594,388.5625 L964.8594,390.0156 Q964.8594,390.625 964.625,390.8906 Q964.3906,391.1563 964.0156,391.1563 Q963.6719,391.1563 963.4688,390.9531 Q963.2656,390.7656 963.1563,390.25 Q963.1094,389.8906 962.9219,389.7031 Q962.5938,389.3281 961.9844,389.1094 Q961.375,388.8906 960.75,388.8906 Q959.9844,388.8906 959.3516,389.2188 Q958.7188,389.5469 958.2266,390.2969 Q957.7344,391.0469 957.7344,392.0781 L957.7344,393.1719 Q957.7344,394.4063 958.625,395.2266 Q959.5156,396.0469 961.1094,396.0469 Q962.0469,396.0469 962.7031,395.7969 Q963.0938,395.6406 963.5156,395.2031 Q963.7813,394.9375 963.9297,394.8594 Q964.0781,394.7813 964.2813,394.7813 Q964.6094,394.7813 964.8672,395.0391 Q965.125,395.2969 965.125,395.6406 Q965.125,395.9844 964.7813,396.3906 Q964.2813,396.9688 963.4844,397.2969 Q962.4063,397.75 961.1094,397.75 Q959.5938,397.75 958.3906,397.125 Q957.4063,396.625 956.7188,395.5547 Q956.0313,394.4844 956.0313,393.2031 L956.0313,392.0469 Q956.0313,390.7188 956.6484,389.5703 Q957.2656,388.4219 958.3594,387.8047 Q959.4531,387.1875 960.6875,387.1875 Q961.4219,387.1875 962.0703,387.3516 Q962.7188,387.5156 963.2656,387.875 Z "/><text fill="#000000" font-family="sans-serif" font-size="12" lengthAdjust="spacingAndGlyphs" textLength="127" x="974.5" y="396.9102">PlenarProtocolBrowser</text><rect fill="#FFFFFF" height="17.0938" style="stroke: #000000; stroke-width: 1.0; stroke-dasharray: 2.0,2.0;" width="24" x="1109.5" y="373"/><text fill="#000000" font-family="sans-serif" font-size="12" font-style="italic" lengthAdjust="spacingAndGlyphs" textLength="22" x="1110.5" y="386.457">Xml</text><line style="stroke: #A80036; stroke-width: 1.5;" x1="946.5" x2="1129.5" y1="408" y2="408"/><line style="stroke: #A80036; stroke-width: 1.5;" x1="946.5" x2="1129.5" y1="416" y2="416"/><!--class IScraper--><rect fill="#FEFECE" filter="url(#fkz3qfubq6xph)" height="61.8359" id="IScraper" style="stroke: #A80036; stroke-width: 1.5;" width="258" x="62" y="226"/><ellipse cx="163.25" cy="242" fill="#B4A7E5" rx="11" ry="11" style="stroke: #A80036; stroke-width: 1.0;"/><path d="M164.2031,238.6406 L164.2031,245.2969 L165.9219,245.2969 Q166.5313,245.2969 166.7969,245.5313 Q167.0625,245.7656 167.0625,246.1563 Q167.0625,246.5313 166.7969,246.7656 Q166.5313,247 165.9219,247 L160.7813,247 Q160.1719,247 159.9063,246.7656 Q159.6406,246.5313 159.6406,246.1406 Q159.6406,245.7656 159.9063,245.5313 Q160.1719,245.2969 160.7813,245.2969 L162.5,245.2969 L162.5,238.6406 L160.7813,238.6406 Q160.1719,238.6406 159.9063,238.4063 Q159.6406,238.1719 159.6406,237.7813 Q159.6406,237.4063 159.9063,237.1719 Q160.1719,236.9375 160.7813,236.9375 L165.9219,236.9375 Q166.5313,236.9375 166.7969,237.1719 Q167.0625,237.4063 167.0625,237.7813 Q167.0625,238.1719 166.7969,238.4063 Q166.5313,238.6406 165.9219,238.6406 L164.2031,238.6406 Z "/><text fill="#000000" font-family="sans-serif" font-size="12" font-style="italic" lengthAdjust="spacingAndGlyphs" textLength="47" x="183.75" y="246.9102">IScraper</text><line style="stroke: #A80036; stroke-width: 1.5;" x1="63" x2="319" y1="258" y2="258"/><line style="stroke: #A80036; stroke-width: 1.5;" x1="63" x2="319" y1="266" y2="266"/><ellipse cx="73" cy="278.418" fill="#84BE84" rx="3" ry="3" style="stroke: #038048; stroke-width: 1.0;"/><text fill="#000000" font-family="sans-serif" font-size="11" lengthAdjust="spacingAndGlyphs" textLength="232" x="82" y="281.4189">JSON[]: scrape(configs: ScraperConfiguration[])</text><path d="M62.5,115 L62.5,141.3516 A0,0 0 0 0 62.5,141.3516 L234.918,141.3516 L203.522,225.993 L242.918,141.3516 L425.5,141.3516 A0,0 0 0 0 425.5,141.3516 L425.5,125 L415.5,115 L62.5,115 A0,0 0 0 0 62.5,115 " fill="#FBFB77" filter="url(#fkz3qfubq6xph)" style="stroke: #A80036; stroke-width: 1.0;"/><path d="M415.5,115 L415.5,125 L425.5,125 L415.5,115 " fill="#FBFB77" style="stroke: #A80036; stroke-width: 1.0;"/><text fill="#000000" font-family="sans-serif" font-size="13" lengthAdjust="spacingAndGlyphs" textLength="342" x="68.5" y="133.4951">Sammelt die Daten aus verschiedenen Quellen zusammen.</text><!--class IScraperConfiguration--><rect fill="#FEFECE" filter="url(#fkz3qfubq6xph)" height="89.5078" id="IScraperConfiguration" style="stroke: #A80036; stroke-width: 1.5;" width="237" x="355.5" y="212"/><ellipse cx="370.5" cy="228" fill="#B4A7E5" rx="11" ry="11" style="stroke: #A80036; stroke-width: 1.0;"/><path d="M371.4531,224.6406 L371.4531,231.2969 L373.1719,231.2969 Q373.7813,231.2969 374.0469,231.5313 Q374.3125,231.7656 374.3125,232.1563 Q374.3125,232.5313 374.0469,232.7656 Q373.7813,233 373.1719,233 L368.0313,233 Q367.4219,233 367.1563,232.7656 Q366.8906,232.5313 366.8906,232.1406 Q366.8906,231.7656 367.1563,231.5313 Q367.4219,231.2969 368.0313,231.2969 L369.75,231.2969 L369.75,224.6406 L368.0313,224.6406 Q367.4219,224.6406 367.1563,224.4063 Q366.8906,224.1719 366.8906,223.7813 Q366.8906,223.4063 367.1563,223.1719 Q367.4219,222.9375 368.0313,222.9375 L373.1719,222.9375 Q373.7813,222.9375 374.0469,223.1719 Q374.3125,223.4063 374.3125,223.7813 Q374.3125,224.1719 374.0469,224.4063 Q373.7813,224.6406 373.1719,224.6406 L371.4531,224.6406 Z "/><text fill="#000000" font-family="sans-serif" font-size="12" font-style="italic" lengthAdjust="spacingAndGlyphs" textLength="121" x="384.5" y="232.9102">IScraperConfiguration</text><rect fill="#FFFFFF" height="17.0938" style="stroke: #000000; stroke-width: 1.0; stroke-dasharray: 2.0,2.0;" width="82" x="513.5" y="209"/><text fill="#000000" font-family="sans-serif" font-size="12" font-style="italic" lengthAdjust="spacingAndGlyphs" textLength="80" x="514.5" y="222.457">T extends IFile</text><line style="stroke: #A80036; stroke-width: 1.5;" x1="356.5" x2="591.5" y1="244" y2="244"/><line style="stroke: #A80036; stroke-width: 1.5;" x1="356.5" x2="591.5" y1="252" y2="252"/><text fill="#000000" font-family="sans-serif" font-size="11" lengthAdjust="spacingAndGlyphs" textLength="55" x="361.5" y="267.4189">URI getUri()</text><text fill="#000000" font-family="sans-serif" font-size="11" lengthAdjust="spacingAndGlyphs" textLength="132" x="361.5" y="281.2549">IBrowser&lt;T&gt; getBrowser()</text><text fill="#000000" font-family="sans-serif" font-size="11" lengthAdjust="spacingAndGlyphs" textLength="110" x="361.5" y="295.0908">IParser&lt;T&gt; getParser()</text><!--class DipProcedureScraperConfiguration--><rect fill="#FEFECE" filter="url(#fkz3qfubq6xph)" height="75.6719" id="DipProcedureScraperConfiguration" style="stroke: #A80036; stroke-width: 1.5;" width="255" x="78.5" y="362"/><ellipse cx="93.5" cy="378" fill="#ADD1B2" rx="11" ry="11" style="stroke: #A80036; stroke-width: 1.0;"/><path d="M96.2656,373.875 Q96.4219,373.6563 96.6094,373.5469 Q96.7969,373.4375 97.0156,373.4375 Q97.3906,373.4375 97.625,373.6953 Q97.8594,373.9531 97.8594,374.5625 L97.8594,376.0156 Q97.8594,376.625 97.625,376.8906 Q97.3906,377.1563 97.0156,377.1563 Q96.6719,377.1563 96.4688,376.9531 Q96.2656,376.7656 96.1563,376.25 Q96.1094,375.8906 95.9219,375.7031 Q95.5938,375.3281 94.9844,375.1094 Q94.375,374.8906 93.75,374.8906 Q92.9844,374.8906 92.3516,375.2188 Q91.7188,375.5469 91.2266,376.2969 Q90.7344,377.0469 90.7344,378.0781 L90.7344,379.1719 Q90.7344,380.4063 91.625,381.2266 Q92.5156,382.0469 94.1094,382.0469 Q95.0469,382.0469 95.7031,381.7969 Q96.0938,381.6406 96.5156,381.2031 Q96.7813,380.9375 96.9297,380.8594 Q97.0781,380.7813 97.2813,380.7813 Q97.6094,380.7813 97.8672,381.0391 Q98.125,381.2969 98.125,381.6406 Q98.125,381.9844 97.7813,382.3906 Q97.2813,382.9688 96.4844,383.2969 Q95.4063,383.75 94.1094,383.75 Q92.5938,383.75 91.3906,383.125 Q90.4063,382.625 89.7188,381.5547 Q89.0313,380.4844 89.0313,379.2031 L89.0313,378.0469 Q89.0313,376.7188 89.6484,375.5703 Q90.2656,374.4219 91.3594,373.8047 Q92.4531,373.1875 93.6875,373.1875 Q94.4219,373.1875 95.0703,373.3516 Q95.7188,373.5156 96.2656,373.875 Z "/><text fill="#000000" font-family="sans-serif" font-size="12" lengthAdjust="spacingAndGlyphs" textLength="193" x="107.5" y="382.9102">DipProcedureScraperConfiguration</text><rect fill="#FFFFFF" height="17.0938" style="stroke: #000000; stroke-width: 1.0; stroke-dasharray: 2.0,2.0;" width="28" x="308.5" y="359"/><text fill="#000000" font-family="sans-serif" font-size="12" font-style="italic" lengthAdjust="spacingAndGlyphs" textLength="26" x="309.5" y="372.457">Html</text><line style="stroke: #A80036; stroke-width: 1.5;" x1="79.5" x2="332.5" y1="394" y2="394"/><line style="stroke: #A80036; stroke-width: 1.5;" x1="79.5" x2="332.5" y1="402" y2="402"/><text fill="#000000" font-family="sans-serif" font-size="11" lengthAdjust="spacingAndGlyphs" textLength="146" x="84.5" y="417.4189">IBrowser&lt;Html&gt; getBrowser()</text><text fill="#000000" font-family="sans-serif" font-size="11" lengthAdjust="spacingAndGlyphs" textLength="124" x="84.5" y="431.2549">IParser&lt;Html&gt; getParser()</text><!--class PlenarProtocolSpeechScraperConfiguration--><rect fill="#FEFECE" filter="url(#fkz3qfubq6xph)" height="75.6719" id="PlenarProtocolSpeechScraperConfiguration" style="stroke: #A80036; stroke-width: 1.5;" width="298" x="369" y="362"/><ellipse cx="384" cy="378" fill="#ADD1B2" rx="11" ry="11" style="stroke: #A80036; stroke-width: 1.0;"/><path d="M386.7656,373.875 Q386.9219,373.6563 387.1094,373.5469 Q387.2969,373.4375 387.5156,373.4375 Q387.8906,373.4375 388.125,373.6953 Q388.3594,373.9531 388.3594,374.5625 L388.3594,376.0156 Q388.3594,376.625 388.125,376.8906 Q387.8906,377.1563 387.5156,377.1563 Q387.1719,377.1563 386.9688,376.9531 Q386.7656,376.7656 386.6563,376.25 Q386.6094,375.8906 386.4219,375.7031 Q386.0938,375.3281 385.4844,375.1094 Q384.875,374.8906 384.25,374.8906 Q383.4844,374.8906 382.8516,375.2188 Q382.2188,375.5469 381.7266,376.2969 Q381.2344,377.0469 381.2344,378.0781 L381.2344,379.1719 Q381.2344,380.4063 382.125,381.2266 Q383.0156,382.0469 384.6094,382.0469 Q385.5469,382.0469 386.2031,381.7969 Q386.5938,381.6406 387.0156,381.2031 Q387.2813,380.9375 387.4297,380.8594 Q387.5781,380.7813 387.7813,380.7813 Q388.1094,380.7813 388.3672,381.0391 Q388.625,381.2969 388.625,381.6406 Q388.625,381.9844 388.2813,382.3906 Q387.7813,382.9688 386.9844,383.2969 Q385.9063,383.75 384.6094,383.75 Q383.0938,383.75 381.8906,383.125 Q380.9063,382.625 380.2188,381.5547 Q379.5313,380.4844 379.5313,379.2031 L379.5313,378.0469 Q379.5313,376.7188 380.1484,375.5703 Q380.7656,374.4219 381.8594,373.8047 Q382.9531,373.1875 384.1875,373.1875 Q384.9219,373.1875 385.5703,373.3516 Q386.2188,373.5156 386.7656,373.875 Z "/><text fill="#000000" font-family="sans-serif" font-size="12" lengthAdjust="spacingAndGlyphs" textLength="240" x="398" y="382.9102">PlenarProtocolSpeechScraperConfiguration</text><rect fill="#FFFFFF" height="17.0938" style="stroke: #000000; stroke-width: 1.0; stroke-dasharray: 2.0,2.0;" width="24" x="646" y="359"/><text fill="#000000" font-family="sans-serif" font-size="12" font-style="italic" lengthAdjust="spacingAndGlyphs" textLength="22" x="647" y="372.457">Xml</text><line style="stroke: #A80036; stroke-width: 1.5;" x1="370" x2="666" y1="394" y2="394"/><line style="stroke: #A80036; stroke-width: 1.5;" x1="370" x2="666" y1="402" y2="402"/><text fill="#000000" font-family="sans-serif" font-size="11" lengthAdjust="spacingAndGlyphs" textLength="143" x="375" y="417.4189">IBrowser&lt;Xml&gt; getBrowser()</text><text fill="#000000" font-family="sans-serif" font-size="11" lengthAdjust="spacingAndGlyphs" textLength="121" x="375" y="431.2549">IParser&lt;Xml&gt; getParser()</text><!--class IFile--><rect fill="#FEFECE" filter="url(#fkz3qfubq6xph)" height="48" id="IFile" style="stroke: #A80036; stroke-width: 1.5;" width="56" x="628" y="233"/><ellipse cx="643" cy="249" fill="#B4A7E5" rx="11" ry="11" style="stroke: #A80036; stroke-width: 1.0;"/><path d="M643.9531,245.6406 L643.9531,252.2969 L645.6719,252.2969 Q646.2813,252.2969 646.5469,252.5313 Q646.8125,252.7656 646.8125,253.1563 Q646.8125,253.5313 646.5469,253.7656 Q646.2813,254 645.6719,254 L640.5313,254 Q639.9219,254 639.6563,253.7656 Q639.3906,253.5313 639.3906,253.1406 Q639.3906,252.7656 639.6563,252.5313 Q639.9219,252.2969 640.5313,252.2969 L642.25,252.2969 L642.25,245.6406 L640.5313,245.6406 Q639.9219,245.6406 639.6563,245.4063 Q639.3906,245.1719 639.3906,244.7813 Q639.3906,244.4063 639.6563,244.1719 Q639.9219,243.9375 640.5313,243.9375 L645.6719,243.9375 Q646.2813,243.9375 646.5469,244.1719 Q646.8125,244.4063 646.8125,244.7813 Q646.8125,245.1719 646.5469,245.4063 Q646.2813,245.6406 645.6719,245.6406 L643.9531,245.6406 Z "/><text fill="#000000" font-family="sans-serif" font-size="12" font-style="italic" lengthAdjust="spacingAndGlyphs" textLength="24" x="657" y="253.9102">IFile</text><line style="stroke: #A80036; stroke-width: 1.5;" x1="629" x2="683" y1="265" y2="265"/><line style="stroke: #A80036; stroke-width: 1.5;" x1="629" x2="683" y1="273" y2="273"/><!--class Html--><rect fill="#FEFECE" filter="url(#fkz3qfubq6xph)" height="48" id="Html" style="stroke: #A80036; stroke-width: 1.5;" width="58" x="626" y="104"/><ellipse cx="641" cy="120" fill="#ADD1B2" rx="11" ry="11" style="stroke: #A80036; stroke-width: 1.0;"/><path d="M643.7656,115.875 Q643.9219,115.6563 644.1094,115.5469 Q644.2969,115.4375 644.5156,115.4375 Q644.8906,115.4375 645.125,115.6953 Q645.3594,115.9531 645.3594,116.5625 L645.3594,118.0156 Q645.3594,118.625 645.125,118.8906 Q644.8906,119.1563 644.5156,119.1563 Q644.1719,119.1563 643.9688,118.9531 Q643.7656,118.7656 643.6563,118.25 Q643.6094,117.8906 643.4219,117.7031 Q643.0938,117.3281 642.4844,117.1094 Q641.875,116.8906 641.25,116.8906 Q640.4844,116.8906 639.8516,117.2188 Q639.2188,117.5469 638.7266,118.2969 Q638.2344,119.0469 638.2344,120.0781 L638.2344,121.1719 Q638.2344,122.4063 639.125,123.2266 Q640.0156,124.0469 641.6094,124.0469 Q642.5469,124.0469 643.2031,123.7969 Q643.5938,123.6406 644.0156,123.2031 Q644.2813,122.9375 644.4297,122.8594 Q644.5781,122.7813 644.7813,122.7813 Q645.1094,122.7813 645.3672,123.0391 Q645.625,123.2969 645.625,123.6406 Q645.625,123.9844 645.2813,124.3906 Q644.7813,124.9688 643.9844,125.2969 Q642.9063,125.75 641.6094,125.75 Q640.0938,125.75 638.8906,125.125 Q637.9063,124.625 637.2188,123.5547 Q636.5313,122.4844 636.5313,121.2031 L636.5313,120.0469 Q636.5313,118.7188 637.1484,117.5703 Q637.7656,116.4219 638.8594,115.8047 Q639.9531,115.1875 641.1875,115.1875 Q641.9219,115.1875 642.5703,115.3516 Q643.2188,115.5156 643.7656,115.875 Z "/><text fill="#000000" font-family="sans-serif" font-size="12" lengthAdjust="spacingAndGlyphs" textLength="26" x="655" y="124.9102">Html</text><line style="stroke: #A80036; stroke-width: 1.5;" x1="627" x2="683" y1="136" y2="136"/><line style="stroke: #A80036; stroke-width: 1.5;" x1="627" x2="683" y1="144" y2="144"/><!--class Xml--><rect fill="#FEFECE" filter="url(#fkz3qfubq6xph)" height="48" id="Xml" style="stroke: #A80036; stroke-width: 1.5;" width="53" x="537.5" y="104"/><ellipse cx="552.5" cy="120" fill="#ADD1B2" rx="11" ry="11" style="stroke: #A80036; stroke-width: 1.0;"/><path d="M555.2656,115.875 Q555.4219,115.6563 555.6094,115.5469 Q555.7969,115.4375 556.0156,115.4375 Q556.3906,115.4375 556.625,115.6953 Q556.8594,115.9531 556.8594,116.5625 L556.8594,118.0156 Q556.8594,118.625 556.625,118.8906 Q556.3906,119.1563 556.0156,119.1563 Q555.6719,119.1563 555.4688,118.9531 Q555.2656,118.7656 555.1563,118.25 Q555.1094,117.8906 554.9219,117.7031 Q554.5938,117.3281 553.9844,117.1094 Q553.375,116.8906 552.75,116.8906 Q551.9844,116.8906 551.3516,117.2188 Q550.7188,117.5469 550.2266,118.2969 Q549.7344,119.0469 549.7344,120.0781 L549.7344,121.1719 Q549.7344,122.4063 550.625,123.2266 Q551.5156,124.0469 553.1094,124.0469 Q554.0469,124.0469 554.7031,123.7969 Q555.0938,123.6406 555.5156,123.2031 Q555.7813,122.9375 555.9297,122.8594 Q556.0781,122.7813 556.2813,122.7813 Q556.6094,122.7813 556.8672,123.0391 Q557.125,123.2969 557.125,123.6406 Q557.125,123.9844 556.7813,124.3906 Q556.2813,124.9688 555.4844,125.2969 Q554.4063,125.75 553.1094,125.75 Q551.5938,125.75 550.3906,125.125 Q549.4063,124.625 548.7188,123.5547 Q548.0313,122.4844 548.0313,121.2031 L548.0313,120.0469 Q548.0313,118.7188 548.6484,117.5703 Q549.2656,116.4219 550.3594,115.8047 Q551.4531,115.1875 552.6875,115.1875 Q553.4219,115.1875 554.0703,115.3516 Q554.7188,115.5156 555.2656,115.875 Z "/><text fill="#000000" font-family="sans-serif" font-size="12" lengthAdjust="spacingAndGlyphs" textLength="21" x="566.5" y="124.9102">Xml</text><line style="stroke: #A80036; stroke-width: 1.5;" x1="538.5" x2="589.5" y1="136" y2="136"/><line style="stroke: #A80036; stroke-width: 1.5;" x1="538.5" x2="589.5" y1="144" y2="144"/><!--link IParser to DipProcedureDataParser--><path d="M1421.58,302.975 C1398.73,327.193 1371.51,356.057 1352.91,375.774 " fill="none" id="IParser-DipProcedureDataParser" style="stroke: #A80036; stroke-width: 1.0;"/><polygon fill="none" points="1416.65,297.994,1435.47,288.248,1426.84,307.6,1416.65,297.994" style="stroke: #A80036; stroke-width: 1.0;"/><!--link IParser to PlenarProtocolSpeechesParser--><path d="M1502.54,303.665 C1522.86,327.74 1546.92,356.244 1563.4,375.774 " fill="none" id="IParser-PlenarProtocolSpeechesParser" style="stroke: #A80036; stroke-width: 1.0;"/><polygon fill="none" points="1497.08,308.047,1489.53,288.248,1507.78,299.017,1497.08,308.047" style="stroke: #A80036; stroke-width: 1.0;"/><!--link IBrowser to DipBrowser--><path d="M910.051,318.181 C894.155,338.555 877.343,360.105 865.081,375.824 " fill="none" id="IBrowser-DipBrowser" style="stroke: #A80036; stroke-width: 1.0;"/><polygon fill="none" points="904.676,313.69,922.497,302.226,915.714,322.301,904.676,313.69" style="stroke: #A80036; stroke-width: 1.0;"/><!--link IBrowser to PlenarProtocolBrowser--><path d="M992.442,319.696 C1003.887,339.619 1015.88,360.494 1024.69,375.824 " fill="none" id="IBrowser-PlenarProtocolBrowser" style="stroke: #A80036; stroke-width: 1.0;"/><polygon fill="none" points="986.299,323.055,982.407,302.226,998.439,316.082,986.299,323.055" style="stroke: #A80036; stroke-width: 1.0;"/><!--link IScraper to IScraperConfiguration--><path d="M320.063,257 C330.049,257 340.034,257 350.019,257 " fill="none" id="IScraper-IScraperConfiguration" style="stroke: #A80036; stroke-width: 1.0;"/><polygon fill="#A80036" points="355.24,257,346.24,253,350.24,257,346.24,261,355.24,257" style="stroke: #A80036; stroke-width: 1.0;"/><text fill="#000000" font-family="sans-serif" font-size="13" lengthAdjust="spacingAndGlyphs" textLength="7" x="328.1411" y="254.0233">1</text><text fill="#000000" font-family="sans-serif" font-size="13" lengthAdjust="spacingAndGlyphs" textLength="5" x="342.4718" y="254.0096">*</text><!--link IScraperConfiguration to DipProcedureScraperConfiguration--><path d="M372.348,311.481 C340.365,328.308 305.767,346.51 276.451,361.934 " fill="none" id="IScraperConfiguration-DipProcedureScraperConfiguration" style="stroke: #A80036; stroke-width: 1.0;"/><polygon fill="none" points="369.346,305.151,390.306,302.033,375.865,317.54,369.346,305.151" style="stroke: #A80036; stroke-width: 1.0;"/><!--link IScraperConfiguration to PlenarProtocolSpeechScraperConfiguration--><path d="M493.882,321.714 C498.136,335.346 502.497,349.319 506.32,361.57 " fill="none" id="IScraperConfiguration-PlenarProtocolSpeechScraperConfiguration" style="stroke: #A80036; stroke-width: 1.0;"/><polygon fill="none" points="487.077,323.404,487.801,302.226,500.441,319.233,487.077,323.404" style="stroke: #A80036; stroke-width: 1.0;"/><!--link Html to IFile--><path d="M655.183,152.294 C655.316,169.122 655.499,192.35 655.658,212.557 " fill="none" id="Html-IFile" style="stroke: #A80036; stroke-width: 1.0;"/><polygon fill="none" points="662.66,212.799,655.818,232.854,648.66,212.91,662.66,212.799" style="stroke: #A80036; stroke-width: 1.0;"/><!--link Xml to IFile--><path d="M580.874,152.294 C593.843,170.196 612.058,195.341 627.304,216.388 " fill="none" id="Xml-IFile" style="stroke: #A80036; stroke-width: 1.0;"/><polygon fill="none" points="633.169,212.551,639.233,232.854,621.831,220.764,633.169,212.551" style="stroke: #A80036; stroke-width: 1.0;"/><!--link IScraperConfiguration to IFile--><path d="M605.888,257 C613.2,257 620.512,257 627.824,257 " fill="none" id="IScraperConfiguration-IFile" style="stroke: #A80036; stroke-width: 1.0;"/><polygon fill="#A80036" points="592.727,257,598.727,261,604.727,257,598.727,253,592.727,257" style="stroke: #A80036; stroke-width: 1.0;"/><!--
@startuml Importer
package Importer {
  package Parser {
    note top of IParser
      Extrahiert die gew端nschten Daten aus dem gegebenen IFile.
    end note

    interface IParser<T extends IFile> {
      JSON parse(content: T) 
    }

    class DipProcedureDataParser<Html> {
    }

    class PlenarProtocolSpeechesParser<Xml> {
    }

    IParser <|- - DipProcedureDataParser
    IParser <|- - PlenarProtocolSpeechesParser
  }

  package Browser {    
    note top of IBrowser
      Navigiert in einer Struktur und liefert die gew端nschten IFile-Fragmente.  
    end note
    
    interface IBrowser<T extends IFile> {
      void load(uri: URI)
      boolean hasNext()
      T next()
    }

    class DipBrowser<Html> {
    }

    class PlenarProtocolBrowser<Xml> {
    }

    IBrowser <|- - DipBrowser
    IBrowser <|- - PlenarProtocolBrowser
  }

  package Scraper {
    note top of IScraper
      Sammelt die Daten aus verschiedenen Quellen zusammen.
    end note

    interface IScraper {
      + JSON[]: scrape(configs: ScraperConfiguration[])
    }

    interface IScraperConfiguration<T extends IFile> {
      URI getUri()
      IBrowser<T> getBrowser()
      IParser<T> getParser()
    }

    IScraper "1" -> "*" IScraperConfiguration

    class DipProcedureScraperConfiguration<Html> {
      IBrowser<Html> getBrowser()
      IParser<Html> getParser()
    }

    class PlenarProtocolSpeechScraperConfiguration<Xml> {
      IBrowser<Xml> getBrowser()
      IParser<Xml> getParser()
    }

    IScraperConfiguration <|- - DipProcedureScraperConfiguration
    IScraperConfiguration <|- - PlenarProtocolSpeechScraperConfiguration

    interface IFile {
    }

    class Html {
    }

    class Xml {
    }


    Html - -|> IFile
    Xml - -|> IFile
    
    IScraperConfiguration *- IFile
  }
}

@enduml

PlantUML version 1.2018.12(Sun Oct 21 12:15:15 CEST 2018)
(GPL source distribution)
Java Runtime: Java(TM) SE Runtime Environment
JVM: Java HotSpot(TM) 64-Bit Server VM
Java Version: 1.8.0_191-b12
Operating System: Windows 10
OS Version: 10.0
Default Encoding: Cp1252
Language: de
Country: DE
--></g></svg>