<?xml version="1.0" encoding="UTF-8" standalone="no"?><svg xmlns="http://www.w3.org/2000/svg" xmlns:xlink="http://www.w3.org/1999/xlink" contentScriptType="application/ecmascript" contentStyleType="text/css" height="422px" preserveAspectRatio="none" style="width:788px;height:422px;" version="1.1" viewBox="0 0 788 422" width="788px" zoomAndPan="magnify"><defs><filter height="300%" id="f1wo2cv5bwtzb2" width="300%" x="-1" y="-1"><feGaussianBlur result="blurOut" stdDeviation="2.0"/><feColorMatrix in="blurOut" result="blurOut2" type="matrix" values="0 0 0 0 0 0 0 0 0 0 0 0 0 0 0 0 0 0 .4 0"/><feOffset dx="4.0" dy="4.0" in="blurOut2" result="blurOut3"/><feBlend in="SourceGraphic" in2="blurOut3" mode="normal"/></filter></defs><g><!--cluster Scraper--><polygon fill="#FFFFFF" filter="url(#f1wo2cv5bwtzb2)" points="22,24,83,24,90,47.6094,766,47.6094,766,410,22,410,22,24" style="stroke: #000000; stroke-width: 1.5;"/><line style="stroke: #000000; stroke-width: 1.5;" x1="22" x2="90" y1="47.6094" y2="47.6094"/><text fill="#000000" font-family="sans-serif" font-size="14" font-weight="bold" lengthAdjust="spacingAndGlyphs" textLength="55" x="26" y="40.5332">Scraper</text><!--class IScraper--><rect fill="#FEFECE" filter="url(#f1wo2cv5bwtzb2)" height="61.8359" id="IScraper" style="stroke: #A80036; stroke-width: 1.5;" width="258" x="38" y="182"/><ellipse cx="139.25" cy="198" fill="#B4A7E5" rx="11" ry="11" style="stroke: #A80036; stroke-width: 1.0;"/><path d="M140.2031,194.6406 L140.2031,201.2969 L141.9219,201.2969 Q142.5313,201.2969 142.7969,201.5313 Q143.0625,201.7656 143.0625,202.1563 Q143.0625,202.5313 142.7969,202.7656 Q142.5313,203 141.9219,203 L136.7813,203 Q136.1719,203 135.9063,202.7656 Q135.6406,202.5313 135.6406,202.1406 Q135.6406,201.7656 135.9063,201.5313 Q136.1719,201.2969 136.7813,201.2969 L138.5,201.2969 L138.5,194.6406 L136.7813,194.6406 Q136.1719,194.6406 135.9063,194.4063 Q135.6406,194.1719 135.6406,193.7813 Q135.6406,193.4063 135.9063,193.1719 Q136.1719,192.9375 136.7813,192.9375 L141.9219,192.9375 Q142.5313,192.9375 142.7969,193.1719 Q143.0625,193.4063 143.0625,193.7813 Q143.0625,194.1719 142.7969,194.4063 Q142.5313,194.6406 141.9219,194.6406 L140.2031,194.6406 Z "/><text fill="#000000" font-family="sans-serif" font-size="12" font-style="italic" lengthAdjust="spacingAndGlyphs" textLength="47" x="159.75" y="202.9102">IScraper</text><line style="stroke: #A80036; stroke-width: 1.5;" x1="39" x2="295" y1="214" y2="214"/><line style="stroke: #A80036; stroke-width: 1.5;" x1="39" x2="295" y1="222" y2="222"/><ellipse cx="49" cy="234.418" fill="#84BE84" rx="3" ry="3" style="stroke: #038048; stroke-width: 1.0;"/><text fill="#000000" font-family="sans-serif" font-size="11" lengthAdjust="spacingAndGlyphs" textLength="232" x="58" y="237.4189">JSON[]: scrape(configs: ScraperConfiguration[])</text><path d="M38.5,71 L38.5,97.3516 A0,0 0 0 0 38.5,97.3516 L210.918,97.3516 L179.522,181.993 L218.918,97.3516 L401.5,97.3516 A0,0 0 0 0 401.5,97.3516 L401.5,81 L391.5,71 L38.5,71 A0,0 0 0 0 38.5,71 " fill="#FBFB77" filter="url(#f1wo2cv5bwtzb2)" style="stroke: #A80036; stroke-width: 1.0;"/><path d="M391.5,71 L391.5,81 L401.5,81 L391.5,71 " fill="#FBFB77" style="stroke: #A80036; stroke-width: 1.0;"/><text fill="#000000" font-family="sans-serif" font-size="13" lengthAdjust="spacingAndGlyphs" textLength="342" x="44.5" y="89.4951">Sammelt die Daten aus verschiedenen Quellen zusammen.</text><!--class IScraperConfiguration--><rect fill="#FEFECE" filter="url(#f1wo2cv5bwtzb2)" height="89.5078" id="IScraperConfiguration" style="stroke: #A80036; stroke-width: 1.5;" width="282" x="331" y="168"/><ellipse cx="346" cy="184" fill="#B4A7E5" rx="11" ry="11" style="stroke: #A80036; stroke-width: 1.0;"/><path d="M346.9531,180.6406 L346.9531,187.2969 L348.6719,187.2969 Q349.2813,187.2969 349.5469,187.5313 Q349.8125,187.7656 349.8125,188.1563 Q349.8125,188.5313 349.5469,188.7656 Q349.2813,189 348.6719,189 L343.5313,189 Q342.9219,189 342.6563,188.7656 Q342.3906,188.5313 342.3906,188.1406 Q342.3906,187.7656 342.6563,187.5313 Q342.9219,187.2969 343.5313,187.2969 L345.25,187.2969 L345.25,180.6406 L343.5313,180.6406 Q342.9219,180.6406 342.6563,180.4063 Q342.3906,180.1719 342.3906,179.7813 Q342.3906,179.4063 342.6563,179.1719 Q342.9219,178.9375 343.5313,178.9375 L348.6719,178.9375 Q349.2813,178.9375 349.5469,179.1719 Q349.8125,179.4063 349.8125,179.7813 Q349.8125,180.1719 349.5469,180.4063 Q349.2813,180.6406 348.6719,180.6406 L346.9531,180.6406 Z "/><text fill="#000000" font-family="sans-serif" font-size="12" font-style="italic" lengthAdjust="spacingAndGlyphs" textLength="121" x="360" y="188.9102">IScraperConfiguration</text><rect fill="#FFFFFF" height="17.0938" style="stroke: #000000; stroke-width: 1.0; stroke-dasharray: 2.0,2.0;" width="127" x="489" y="165"/><text fill="#000000" font-family="sans-serif" font-size="12" font-style="italic" lengthAdjust="spacingAndGlyphs" textLength="125" x="490" y="178.457">T extends IDataFormat</text><line style="stroke: #A80036; stroke-width: 1.5;" x1="332" x2="612" y1="200" y2="200"/><line style="stroke: #A80036; stroke-width: 1.5;" x1="332" x2="612" y1="208" y2="208"/><text fill="#000000" font-family="sans-serif" font-size="11" lengthAdjust="spacingAndGlyphs" textLength="55" x="337" y="223.4189">URI getUri()</text><text fill="#000000" font-family="sans-serif" font-size="11" lengthAdjust="spacingAndGlyphs" textLength="132" x="337" y="237.2549">IBrowser&lt;T&gt; getBrowser()</text><text fill="#000000" font-family="sans-serif" font-size="11" lengthAdjust="spacingAndGlyphs" textLength="110" x="337" y="251.0908">IParser&lt;T&gt; getParser()</text><!--class DipProcedureScraperConfiguration--><rect fill="#FEFECE" filter="url(#f1wo2cv5bwtzb2)" height="75.6719" id="DipProcedureScraperConfiguration" style="stroke: #A80036; stroke-width: 1.5;" width="255" x="99.5" y="318"/><ellipse cx="114.5" cy="334" fill="#ADD1B2" rx="11" ry="11" style="stroke: #A80036; stroke-width: 1.0;"/><path d="M117.2656,329.875 Q117.4219,329.6563 117.6094,329.5469 Q117.7969,329.4375 118.0156,329.4375 Q118.3906,329.4375 118.625,329.6953 Q118.8594,329.9531 118.8594,330.5625 L118.8594,332.0156 Q118.8594,332.625 118.625,332.8906 Q118.3906,333.1563 118.0156,333.1563 Q117.6719,333.1563 117.4688,332.9531 Q117.2656,332.7656 117.1563,332.25 Q117.1094,331.8906 116.9219,331.7031 Q116.5938,331.3281 115.9844,331.1094 Q115.375,330.8906 114.75,330.8906 Q113.9844,330.8906 113.3516,331.2188 Q112.7188,331.5469 112.2266,332.2969 Q111.7344,333.0469 111.7344,334.0781 L111.7344,335.1719 Q111.7344,336.4063 112.625,337.2266 Q113.5156,338.0469 115.1094,338.0469 Q116.0469,338.0469 116.7031,337.7969 Q117.0938,337.6406 117.5156,337.2031 Q117.7813,336.9375 117.9297,336.8594 Q118.0781,336.7813 118.2813,336.7813 Q118.6094,336.7813 118.8672,337.0391 Q119.125,337.2969 119.125,337.6406 Q119.125,337.9844 118.7813,338.3906 Q118.2813,338.9688 117.4844,339.2969 Q116.4063,339.75 115.1094,339.75 Q113.5938,339.75 112.3906,339.125 Q111.4063,338.625 110.7188,337.5547 Q110.0313,336.4844 110.0313,335.2031 L110.0313,334.0469 Q110.0313,332.7188 110.6484,331.5703 Q111.2656,330.4219 112.3594,329.8047 Q113.4531,329.1875 114.6875,329.1875 Q115.4219,329.1875 116.0703,329.3516 Q116.7188,329.5156 117.2656,329.875 Z "/><text fill="#000000" font-family="sans-serif" font-size="12" lengthAdjust="spacingAndGlyphs" textLength="193" x="128.5" y="338.9102">DipProcedureScraperConfiguration</text><rect fill="#FFFFFF" height="17.0938" style="stroke: #000000; stroke-width: 1.0; stroke-dasharray: 2.0,2.0;" width="28" x="329.5" y="315"/><text fill="#000000" font-family="sans-serif" font-size="12" font-style="italic" lengthAdjust="spacingAndGlyphs" textLength="26" x="330.5" y="328.457">Html</text><line style="stroke: #A80036; stroke-width: 1.5;" x1="100.5" x2="353.5" y1="350" y2="350"/><line style="stroke: #A80036; stroke-width: 1.5;" x1="100.5" x2="353.5" y1="358" y2="358"/><text fill="#000000" font-family="sans-serif" font-size="11" lengthAdjust="spacingAndGlyphs" textLength="146" x="105.5" y="373.4189">IBrowser&lt;Html&gt; getBrowser()</text><text fill="#000000" font-family="sans-serif" font-size="11" lengthAdjust="spacingAndGlyphs" textLength="124" x="105.5" y="387.2549">IParser&lt;Html&gt; getParser()</text><!--class PlenarProtocolSpeechScraperConfiguration--><rect fill="#FEFECE" filter="url(#f1wo2cv5bwtzb2)" height="75.6719" id="PlenarProtocolSpeechScraperConfiguration" style="stroke: #A80036; stroke-width: 1.5;" width="298" x="390" y="318"/><ellipse cx="405" cy="334" fill="#ADD1B2" rx="11" ry="11" style="stroke: #A80036; stroke-width: 1.0;"/><path d="M407.7656,329.875 Q407.9219,329.6563 408.1094,329.5469 Q408.2969,329.4375 408.5156,329.4375 Q408.8906,329.4375 409.125,329.6953 Q409.3594,329.9531 409.3594,330.5625 L409.3594,332.0156 Q409.3594,332.625 409.125,332.8906 Q408.8906,333.1563 408.5156,333.1563 Q408.1719,333.1563 407.9688,332.9531 Q407.7656,332.7656 407.6563,332.25 Q407.6094,331.8906 407.4219,331.7031 Q407.0938,331.3281 406.4844,331.1094 Q405.875,330.8906 405.25,330.8906 Q404.4844,330.8906 403.8516,331.2188 Q403.2188,331.5469 402.7266,332.2969 Q402.2344,333.0469 402.2344,334.0781 L402.2344,335.1719 Q402.2344,336.4063 403.125,337.2266 Q404.0156,338.0469 405.6094,338.0469 Q406.5469,338.0469 407.2031,337.7969 Q407.5938,337.6406 408.0156,337.2031 Q408.2813,336.9375 408.4297,336.8594 Q408.5781,336.7813 408.7813,336.7813 Q409.1094,336.7813 409.3672,337.0391 Q409.625,337.2969 409.625,337.6406 Q409.625,337.9844 409.2813,338.3906 Q408.7813,338.9688 407.9844,339.2969 Q406.9063,339.75 405.6094,339.75 Q404.0938,339.75 402.8906,339.125 Q401.9063,338.625 401.2188,337.5547 Q400.5313,336.4844 400.5313,335.2031 L400.5313,334.0469 Q400.5313,332.7188 401.1484,331.5703 Q401.7656,330.4219 402.8594,329.8047 Q403.9531,329.1875 405.1875,329.1875 Q405.9219,329.1875 406.5703,329.3516 Q407.2188,329.5156 407.7656,329.875 Z "/><text fill="#000000" font-family="sans-serif" font-size="12" lengthAdjust="spacingAndGlyphs" textLength="240" x="419" y="338.9102">PlenarProtocolSpeechScraperConfiguration</text><rect fill="#FFFFFF" height="17.0938" style="stroke: #000000; stroke-width: 1.0; stroke-dasharray: 2.0,2.0;" width="24" x="667" y="315"/><text fill="#000000" font-family="sans-serif" font-size="12" font-style="italic" lengthAdjust="spacingAndGlyphs" textLength="22" x="668" y="328.457">Xml</text><line style="stroke: #A80036; stroke-width: 1.5;" x1="391" x2="687" y1="350" y2="350"/><line style="stroke: #A80036; stroke-width: 1.5;" x1="391" x2="687" y1="358" y2="358"/><text fill="#000000" font-family="sans-serif" font-size="11" lengthAdjust="spacingAndGlyphs" textLength="143" x="396" y="373.4189">IBrowser&lt;Xml&gt; getBrowser()</text><text fill="#000000" font-family="sans-serif" font-size="11" lengthAdjust="spacingAndGlyphs" textLength="121" x="396" y="387.2549">IParser&lt;Xml&gt; getParser()</text><!--class IDataFormat--><rect fill="#FEFECE" filter="url(#f1wo2cv5bwtzb2)" height="48" id="IDataFormat" style="stroke: #A80036; stroke-width: 1.5;" width="101" x="648.5" y="189"/><ellipse cx="663.5" cy="205" fill="#B4A7E5" rx="11" ry="11" style="stroke: #A80036; stroke-width: 1.0;"/><path d="M664.4531,201.6406 L664.4531,208.2969 L666.1719,208.2969 Q666.7813,208.2969 667.0469,208.5313 Q667.3125,208.7656 667.3125,209.1563 Q667.3125,209.5313 667.0469,209.7656 Q666.7813,210 666.1719,210 L661.0313,210 Q660.4219,210 660.1563,209.7656 Q659.8906,209.5313 659.8906,209.1406 Q659.8906,208.7656 660.1563,208.5313 Q660.4219,208.2969 661.0313,208.2969 L662.75,208.2969 L662.75,201.6406 L661.0313,201.6406 Q660.4219,201.6406 660.1563,201.4063 Q659.8906,201.1719 659.8906,200.7813 Q659.8906,200.4063 660.1563,200.1719 Q660.4219,199.9375 661.0313,199.9375 L666.1719,199.9375 Q666.7813,199.9375 667.0469,200.1719 Q667.3125,200.4063 667.3125,200.7813 Q667.3125,201.1719 667.0469,201.4063 Q666.7813,201.6406 666.1719,201.6406 L664.4531,201.6406 Z "/><text fill="#000000" font-family="sans-serif" font-size="12" font-style="italic" lengthAdjust="spacingAndGlyphs" textLength="69" x="677.5" y="209.9102">IDataFormat</text><line style="stroke: #A80036; stroke-width: 1.5;" x1="649.5" x2="748.5" y1="221" y2="221"/><line style="stroke: #A80036; stroke-width: 1.5;" x1="649.5" x2="748.5" y1="229" y2="229"/><!--class Html--><rect fill="#FEFECE" filter="url(#f1wo2cv5bwtzb2)" height="48" id="Html" style="stroke: #A80036; stroke-width: 1.5;" width="58" x="681" y="60"/><ellipse cx="696" cy="76" fill="#ADD1B2" rx="11" ry="11" style="stroke: #A80036; stroke-width: 1.0;"/><path d="M698.7656,71.875 Q698.9219,71.6563 699.1094,71.5469 Q699.2969,71.4375 699.5156,71.4375 Q699.8906,71.4375 700.125,71.6953 Q700.3594,71.9531 700.3594,72.5625 L700.3594,74.0156 Q700.3594,74.625 700.125,74.8906 Q699.8906,75.1563 699.5156,75.1563 Q699.1719,75.1563 698.9688,74.9531 Q698.7656,74.7656 698.6563,74.25 Q698.6094,73.8906 698.4219,73.7031 Q698.0938,73.3281 697.4844,73.1094 Q696.875,72.8906 696.25,72.8906 Q695.4844,72.8906 694.8516,73.2188 Q694.2188,73.5469 693.7266,74.2969 Q693.2344,75.0469 693.2344,76.0781 L693.2344,77.1719 Q693.2344,78.4063 694.125,79.2266 Q695.0156,80.0469 696.6094,80.0469 Q697.5469,80.0469 698.2031,79.7969 Q698.5938,79.6406 699.0156,79.2031 Q699.2813,78.9375 699.4297,78.8594 Q699.5781,78.7813 699.7813,78.7813 Q700.1094,78.7813 700.3672,79.0391 Q700.625,79.2969 700.625,79.6406 Q700.625,79.9844 700.2813,80.3906 Q699.7813,80.9688 698.9844,81.2969 Q697.9063,81.75 696.6094,81.75 Q695.0938,81.75 693.8906,81.125 Q692.9063,80.625 692.2188,79.5547 Q691.5313,78.4844 691.5313,77.2031 L691.5313,76.0469 Q691.5313,74.7188 692.1484,73.5703 Q692.7656,72.4219 693.8594,71.8047 Q694.9531,71.1875 696.1875,71.1875 Q696.9219,71.1875 697.5703,71.3516 Q698.2188,71.5156 698.7656,71.875 Z "/><text fill="#000000" font-family="sans-serif" font-size="12" lengthAdjust="spacingAndGlyphs" textLength="26" x="710" y="80.9102">Html</text><line style="stroke: #A80036; stroke-width: 1.5;" x1="682" x2="738" y1="92" y2="92"/><line style="stroke: #A80036; stroke-width: 1.5;" x1="682" x2="738" y1="100" y2="100"/><!--class Xml--><rect fill="#FEFECE" filter="url(#f1wo2cv5bwtzb2)" height="48" id="Xml" style="stroke: #A80036; stroke-width: 1.5;" width="53" x="592.5" y="60"/><ellipse cx="607.5" cy="76" fill="#ADD1B2" rx="11" ry="11" style="stroke: #A80036; stroke-width: 1.0;"/><path d="M610.2656,71.875 Q610.4219,71.6563 610.6094,71.5469 Q610.7969,71.4375 611.0156,71.4375 Q611.3906,71.4375 611.625,71.6953 Q611.8594,71.9531 611.8594,72.5625 L611.8594,74.0156 Q611.8594,74.625 611.625,74.8906 Q611.3906,75.1563 611.0156,75.1563 Q610.6719,75.1563 610.4688,74.9531 Q610.2656,74.7656 610.1563,74.25 Q610.1094,73.8906 609.9219,73.7031 Q609.5938,73.3281 608.9844,73.1094 Q608.375,72.8906 607.75,72.8906 Q606.9844,72.8906 606.3516,73.2188 Q605.7188,73.5469 605.2266,74.2969 Q604.7344,75.0469 604.7344,76.0781 L604.7344,77.1719 Q604.7344,78.4063 605.625,79.2266 Q606.5156,80.0469 608.1094,80.0469 Q609.0469,80.0469 609.7031,79.7969 Q610.0938,79.6406 610.5156,79.2031 Q610.7813,78.9375 610.9297,78.8594 Q611.0781,78.7813 611.2813,78.7813 Q611.6094,78.7813 611.8672,79.0391 Q612.125,79.2969 612.125,79.6406 Q612.125,79.9844 611.7813,80.3906 Q611.2813,80.9688 610.4844,81.2969 Q609.4063,81.75 608.1094,81.75 Q606.5938,81.75 605.3906,81.125 Q604.4063,80.625 603.7188,79.5547 Q603.0313,78.4844 603.0313,77.2031 L603.0313,76.0469 Q603.0313,74.7188 603.6484,73.5703 Q604.2656,72.4219 605.3594,71.8047 Q606.4531,71.1875 607.6875,71.1875 Q608.4219,71.1875 609.0703,71.3516 Q609.7188,71.5156 610.2656,71.875 Z "/><text fill="#000000" font-family="sans-serif" font-size="12" lengthAdjust="spacingAndGlyphs" textLength="21" x="621.5" y="80.9102">Xml</text><line style="stroke: #A80036; stroke-width: 1.5;" x1="593.5" x2="644.5" y1="92" y2="92"/><line style="stroke: #A80036; stroke-width: 1.5;" x1="593.5" x2="644.5" y1="100" y2="100"/><!--link IScraper to IScraperConfiguration--><path d="M296.268,213 C306.108,213 315.948,213 325.788,213 " fill="none" id="IScraper-IScraperConfiguration" style="stroke: #A80036; stroke-width: 1.0;"/><polygon fill="#A80036" points="330.934,213,321.934,209,325.934,213,321.934,217,330.934,213" style="stroke: #A80036; stroke-width: 1.0;"/><text fill="#000000" font-family="sans-serif" font-size="13" lengthAdjust="spacingAndGlyphs" textLength="7" x="303.9437" y="210.0475">1</text><text fill="#000000" font-family="sans-serif" font-size="13" lengthAdjust="spacingAndGlyphs" textLength="5" x="318.0827" y="210.0807">*</text><!--link IScraperConfiguration to DipProcedureScraperConfiguration--><path d="M377.847,268.186 C348.952,284.815 317.831,302.726 291.405,317.934 " fill="none" id="IScraperConfiguration-DipProcedureScraperConfiguration" style="stroke: #A80036; stroke-width: 1.0;"/><polygon fill="none" points="374.662,261.942,395.488,258.033,381.646,274.076,374.662,261.942" style="stroke: #A80036; stroke-width: 1.0;"/><!--link IScraperConfiguration to PlenarProtocolSpeechScraperConfiguration--><path d="M501.824,276.763 C508.444,290.695 515.258,305.035 521.214,317.57 " fill="none" id="IScraperConfiguration-PlenarProtocolSpeechScraperConfiguration" style="stroke: #A80036; stroke-width: 1.0;"/><polygon fill="none" points="495.277,279.295,493.015,258.226,507.922,273.286,495.277,279.295" style="stroke: #A80036; stroke-width: 1.0;"/><!--link Html to IDataFormat--><path d="M707.982,108.294 C706.517,125.211 704.492,148.597 702.735,168.88 " fill="none" id="Html-IDataFormat" style="stroke: #A80036; stroke-width: 1.0;"/><polygon fill="none" points="709.705,169.533,701.005,188.854,695.757,168.324,709.705,169.533" style="stroke: #A80036; stroke-width: 1.0;"/><!--link Xml to IDataFormat--><path d="M633.673,108.294 C644.837,126.017 660.473,150.839 673.649,171.755 " fill="none" id="Xml-IDataFormat" style="stroke: #A80036; stroke-width: 1.0;"/><polygon fill="none" points="679.683,168.201,684.42,188.854,667.837,175.662,679.683,168.201" style="stroke: #A80036; stroke-width: 1.0;"/><!--link IScraperConfiguration to IDataFormat--><path d="M626.467,213 C633.71,213 640.952,213 648.194,213 " fill="none" id="IScraperConfiguration-IDataFormat" style="stroke: #A80036; stroke-width: 1.0;"/><polygon fill="#A80036" points="613.432,213,619.432,217,625.432,213,619.432,209,613.432,213" style="stroke: #A80036; stroke-width: 1.0;"/><!--
@startuml Scraper
  package Scraper {
    note top of IScraper
      Sammelt die Daten aus verschiedenen Quellen zusammen.
    end note

    interface IScraper {
      + JSON[]: scrape(configs: ScraperConfiguration[])
    }

    interface IScraperConfiguration<T extends IDataFormat> {
      URI getUri()
      IBrowser<T> getBrowser()
      IParser<T> getParser()
    }

    IScraper "1" -> "*" IScraperConfiguration

    class DipProcedureScraperConfiguration<Html> {
      IBrowser<Html> getBrowser()
      IParser<Html> getParser()
    }

    class PlenarProtocolSpeechScraperConfiguration<Xml> {
      IBrowser<Xml> getBrowser()
      IParser<Xml> getParser()
    }

    IScraperConfiguration <|- - DipProcedureScraperConfiguration
    IScraperConfiguration <|- - PlenarProtocolSpeechScraperConfiguration

    interface IDataFormat {
    }

    class Html {
    }

    class Xml {
    }


    Html - -|> IDataFormat
    Xml - -|> IDataFormat
    
    IScraperConfiguration *- IDataFormat
  }
@enduml

PlantUML version 1.2018.12(Sun Oct 21 12:15:15 CEST 2018)
(GPL source distribution)
Java Runtime: Java(TM) SE Runtime Environment
JVM: Java HotSpot(TM) 64-Bit Server VM
Java Version: 1.8.0_191-b12
Operating System: Windows 10
OS Version: 10.0
Default Encoding: Cp1252
Language: de
Country: DE
--></g></svg>