<?xml version="1.0" encoding="UTF-8"?>
<svg width="162px" height="58px" viewBox="0 0 162 58" version="1.1" xmlns="http://www.w3.org/2000/svg" xmlns:xlink="http://www.w3.org/1999/xlink">
    <!-- Generator: Sketch 51.2 (57519) - http://www.bohemiancoding.com/sketch -->
    <title>Group</title>
    <desc>Created with Sketch.</desc>
    <defs></defs>
    <g id="Page-1" stroke="none" stroke-width="1" fill="none" fill-rule="evenodd">
        <g id="Group" fill="#4D4E4C">
            <path d="M144.058,15.661 C142.988,15.661 142.538,16.632 142.468,17.336 L145.479,17.336 C145.493,16.702 145.211,15.661 144.058,15.661 Z M76.748,19.418 C76.748,20.093 77.185,20.403 77.732,20.403 C78.437,20.403 78.929,19.953 79.098,19.46 C79.14,19.334 79.14,19.207 79.14,19.08 L79.14,18.138 C77.916,18.124 76.748,18.377 76.748,19.418 Z M110.051,15.731 C108.826,15.731 108.334,16.927 108.334,18.067 C108.334,19.39 108.995,20.389 110.037,20.389 C111.021,20.389 111.711,19.432 111.711,18.039 C111.711,16.97 111.232,15.731 110.051,15.731 Z M98.424,15.661 C97.355,15.661 96.904,16.632 96.834,17.336 L99.845,17.336 C99.858,16.702 99.577,15.661 98.424,15.661 Z M85.967,15.83 C85.264,15.83 84.616,16.337 84.434,17.096 C84.404,17.223 84.376,17.377 84.376,17.547 L84.376,18.658 C84.376,18.799 84.391,18.94 84.419,19.067 C84.602,19.769 85.207,20.276 85.952,20.276 C87.036,20.276 87.697,19.418 87.697,18.026 C87.697,16.815 87.12,15.83 85.967,15.83 Z M147.067,38.207 L138.197,38.207 C138.232,39.52 138.661,40.52 139.485,41.212 C140.231,41.834 141.197,42.145 142.385,42.145 C143.701,42.145 144.893,41.936 145.971,41.51 L146.436,43.566 C145.182,44.117 143.691,44.385 141.972,44.385 C139.914,44.385 138.294,43.782 137.117,42.569 C135.941,41.356 135.348,39.727 135.348,37.685 C135.348,35.674 135.898,34.008 136.99,32.67 C138.145,31.248 139.696,30.538 141.645,30.538 C143.567,30.538 145.016,31.248 145.998,32.67 C146.78,33.805 147.175,35.202 147.175,36.864 C147.175,37.389 147.137,37.836 147.067,38.207 Z M134.866,17.377 L134.866,21.486 L133.137,21.486 L133.137,11.497 L134.866,11.497 L134.866,15.563 L134.895,15.563 C135.105,15.24 135.401,14.972 135.753,14.789 C136.104,14.592 136.513,14.479 136.949,14.479 C138.117,14.479 139.342,15.253 139.342,17.448 L139.342,21.486 L137.61,21.486 L137.61,17.631 C137.61,16.646 137.244,15.886 136.288,15.886 C135.612,15.886 135.134,16.337 134.938,16.857 C134.881,17.012 134.866,17.195 134.866,17.377 Z M134.418,33.438 C134.127,33.385 133.813,33.363 133.487,33.363 C132.447,33.363 131.646,33.755 131.079,34.537 C130.585,35.233 130.34,36.096 130.34,37.162 L130.34,44.142 L127.384,44.142 L127.384,35.023 C127.384,33.498 127.357,32.102 127.305,30.838 L129.877,30.838 L129.987,33.385 L130.068,33.385 C130.377,32.512 130.867,31.807 131.546,31.282 C132.203,30.802 132.918,30.572 133.684,30.572 C133.955,30.572 134.203,30.586 134.418,30.621 L134.418,33.438 Z M126.83,14.634 L127.801,14.634 L127.801,13.353 L129.504,12.875 L129.504,14.634 L131.149,14.634 L131.149,15.928 L129.504,15.928 L129.504,18.953 C129.504,19.798 129.729,20.22 130.39,20.22 C130.699,20.22 130.868,20.205 131.065,20.15 L131.094,21.458 C130.84,21.556 130.376,21.641 129.842,21.641 C129.194,21.641 128.673,21.43 128.35,21.078 C127.97,20.684 127.801,20.051 127.801,19.151 L127.801,15.928 L126.83,15.928 L126.83,14.634 Z M123.775,42.422 C122.549,43.769 120.925,44.443 118.904,44.443 C116.948,44.443 115.388,43.796 114.23,42.5 C113.073,41.207 112.496,39.568 112.496,37.6 C112.496,35.539 113.092,33.85 114.287,32.537 C115.484,31.219 117.09,30.571 119.115,30.571 C121.075,30.571 122.643,31.212 123.829,32.514 C124.957,33.766 125.523,35.395 125.523,37.382 C125.523,39.432 124.943,41.104 123.775,42.422 Z M109.98,21.641 C108.053,21.641 106.547,20.318 106.547,18.11 C106.547,15.858 108.024,14.479 110.093,14.479 C112.133,14.479 113.498,15.915 113.498,17.997 C113.498,20.516 111.725,21.641 109.98,21.641 Z M111.647,33.053 L108.385,33.053 L108.385,39.52 C108.385,41.16 108.964,41.975 110.114,41.975 C110.643,41.975 111.077,41.936 111.427,41.846 L111.511,44.085 C110.926,44.304 110.161,44.414 109.212,44.414 C108.05,44.414 107.131,44.064 106.476,43.347 C105.813,42.639 105.486,41.442 105.486,39.763 L105.486,33.053 L103.545,33.053 L103.545,30.838 L105.486,30.838 L105.486,28.403 L108.385,27.528 L108.385,30.838 L111.647,30.838 L111.647,33.053 Z M101.226,42.799 C100.019,43.877 98.346,44.412 96.199,44.412 C94.21,44.412 92.619,44.028 91.418,43.265 L92.105,40.802 C93.399,41.565 94.821,41.951 96.369,41.951 C97.487,41.951 98.352,41.698 98.973,41.199 C99.59,40.699 99.9,40.03 99.9,39.18 C99.9,38.442 99.645,37.812 99.137,37.298 C98.621,36.787 97.779,36.317 96.592,35.875 C93.365,34.674 91.749,32.912 91.749,30.596 C91.749,29.081 92.313,27.838 93.455,26.87 C94.596,25.906 96.105,25.421 97.987,25.421 C99.665,25.421 101.062,25.715 102.177,26.295 L101.431,28.704 C100.391,28.141 99.209,27.855 97.891,27.855 C96.849,27.855 96.031,28.119 95.443,28.618 C94.952,29.081 94.705,29.638 94.705,30.293 C94.705,31.018 94.988,31.622 95.553,32.104 C96.047,32.539 96.941,33.012 98.232,33.522 C99.825,34.156 100.989,34.908 101.74,35.769 C102.486,36.626 102.862,37.692 102.862,38.967 C102.862,40.537 102.313,41.819 101.226,42.799 Z M86.347,21.641 C85.46,21.641 84.672,21.304 84.18,20.459 L84.151,20.459 L84.067,21.486 L82.59,21.486 C82.618,21.022 82.647,20.262 82.647,19.558 L82.647,11.497 L84.376,11.497 L84.376,15.576 L84.404,15.576 C84.826,14.915 85.572,14.479 86.6,14.479 C88.274,14.479 89.47,15.872 89.456,17.954 C89.456,20.417 87.895,21.641 86.347,21.641 Z M84.316,42.696 C83.215,43.859 81.851,44.443 80.216,44.443 C78.455,44.443 77.189,43.815 76.421,42.551 L76.421,49.537 L73.464,49.537 L73.464,35.21 C73.464,33.787 73.426,32.332 73.355,30.838 L75.948,30.838 L76.119,32.946 L76.17,32.946 C77.162,31.364 78.653,30.571 80.66,30.571 C82.23,30.571 83.54,31.186 84.589,32.43 C85.641,33.668 86.164,35.305 86.164,37.328 C86.164,39.598 85.55,41.379 84.316,42.696 Z M71.048,21.486 L72.778,21.486 L72.778,11.497 L71.048,11.497 L71.048,21.486 Z M69.701,42.696 C68.603,43.859 67.232,44.443 65.602,44.443 C63.836,44.443 62.572,43.815 61.804,42.551 L61.804,49.537 L58.85,49.537 L58.85,35.21 C58.85,33.787 58.812,32.332 58.736,30.838 L61.337,30.838 L61.5,32.946 L61.552,32.946 C62.542,31.364 64.036,30.571 66.046,30.571 C67.615,30.571 68.921,31.186 69.977,32.43 C71.022,33.668 71.549,35.305 71.549,37.328 C71.549,39.598 70.935,41.379 69.701,42.696 Z M58.127,19.601 C58.127,17.884 59.66,16.998 62.193,17.012 L62.193,16.899 C62.193,16.449 62.01,15.703 60.8,15.703 C60.124,15.703 59.422,15.915 58.957,16.21 L58.619,15.084 C59.125,14.775 60.012,14.479 61.096,14.479 C63.29,14.479 63.924,15.872 63.924,17.377 L63.924,19.84 C63.924,20.459 63.951,21.064 64.036,21.486 L62.474,21.486 L62.348,20.727 L62.306,20.727 C61.897,21.261 61.18,21.641 60.279,21.641 C58.9,21.641 58.127,20.642 58.127,19.601 Z M54.564,21.486 L52.861,21.486 L50.314,14.634 L52.187,14.634 L53.297,18.11 C53.494,18.715 53.635,19.263 53.762,19.826 L53.805,19.826 C53.931,19.263 54.086,18.728 54.269,18.11 L55.366,14.634 L57.182,14.634 L54.564,21.486 Z M53.893,44.142 L52.17,38.727 L46.174,38.727 L44.529,44.142 L41.467,44.142 L47.401,25.694 L51.073,25.694 L57.043,44.142 L53.893,44.142 Z M33.004,43.449 C33.004,45.119 31.642,46.474 29.972,46.474 L16.977,46.474 C15.305,46.474 13.942,45.119 13.942,43.449 L13.942,14.571 C13.942,12.901 15.305,11.542 16.977,11.542 L29.972,11.542 C31.642,11.542 33.004,12.901 33.004,14.571 L33.004,43.449 Z M44.528,12.003 L46.737,12.003 L49.818,21.486 L47.947,21.486 L47.09,18.799 L44.092,18.799 L43.275,21.486 L41.488,21.486 L44.528,12.003 Z M66.601,21.486 L68.33,21.486 L68.33,14.634 L66.601,14.634 L66.601,21.486 Z M67.473,11.778 C68.063,11.778 68.43,12.186 68.443,12.72 C68.443,13.227 68.063,13.649 67.458,13.649 C66.881,13.649 66.502,13.227 66.502,12.72 C66.502,12.186 66.896,11.778 67.473,11.778 Z M77.705,15.703 C77.029,15.703 76.326,15.915 75.862,16.21 L75.524,15.084 C76.03,14.775 76.917,14.479 78,14.479 C80.195,14.479 80.829,15.872 80.829,17.377 L80.829,19.84 C80.829,20.459 80.856,21.064 80.94,21.486 L79.379,21.486 L79.253,20.727 L79.211,20.727 C78.803,21.261 78.085,21.641 77.185,21.641 C75.805,21.641 75.031,20.642 75.031,19.601 C75.031,17.884 76.564,16.998 79.098,17.012 L79.098,16.899 C79.098,16.449 78.914,15.703 77.705,15.703 Z M91.43,21.486 L93.159,21.486 L93.159,11.497 L91.43,11.497 L91.43,21.486 Z M98.522,14.479 C100.745,14.479 101.478,16.308 101.478,17.814 C101.478,18.138 101.449,18.391 101.421,18.546 L96.834,18.546 C96.876,19.783 97.833,20.318 98.944,20.318 C99.746,20.318 100.309,20.192 100.844,20.009 L101.097,21.191 C100.506,21.444 99.69,21.627 98.705,21.627 C96.482,21.627 95.174,20.262 95.174,18.166 C95.174,16.266 96.327,14.479 98.522,14.479 Z M116.695,14.634 L116.779,15.661 L116.822,15.661 C117.131,15.126 117.877,14.479 119.017,14.479 C120.213,14.479 121.451,15.253 121.451,17.42 L121.451,21.486 L119.721,21.486 L119.721,17.616 C119.721,16.632 119.354,15.886 118.412,15.886 C117.723,15.886 117.244,16.379 117.06,16.899 C117.004,17.04 116.976,17.251 116.976,17.448 L116.976,21.486 L115.246,21.486 L115.246,16.675 C115.246,15.886 115.218,15.225 115.189,14.634 L116.695,14.634 Z M144.156,14.479 C146.379,14.479 147.111,16.308 147.111,17.814 C147.111,18.138 147.083,18.391 147.055,18.546 L142.468,18.546 C142.51,19.783 143.467,20.318 144.578,20.318 C145.38,20.318 145.943,20.192 146.477,20.009 L146.73,21.191 C146.14,21.444 145.324,21.627 144.339,21.627 C142.116,21.627 140.808,20.262 140.808,18.166 C140.808,16.266 141.961,14.479 144.156,14.479 Z M46.063,15.155 C45.879,14.577 45.725,13.93 45.584,13.382 L45.555,13.382 C45.415,13.93 45.26,14.592 45.105,15.155 L44.374,17.491 L46.808,17.491 L46.063,15.155 Z M62.193,19.46 C62.234,19.334 62.234,19.207 62.234,19.08 L62.234,18.138 C61.011,18.124 59.844,18.377 59.844,19.418 C59.844,20.093 60.279,20.403 60.828,20.403 C61.531,20.403 62.023,19.953 62.193,19.46 Z M141.427,32.588 C140.462,32.588 139.678,33 139.073,33.798 C138.581,34.435 138.286,35.202 138.197,36.092 L144.355,36.092 C144.371,35.219 144.184,34.465 143.783,33.823 C143.27,33.005 142.483,32.588 141.427,32.588 Z M49.156,28.158 L49.105,28.158 C48.919,28.942 48.631,30.099 48.226,31.634 L46.692,36.452 L51.646,36.452 L50.092,31.634 C49.924,31.139 49.61,29.98 49.156,28.158 Z M79.703,32.916 C78.971,32.916 78.316,33.157 77.721,33.64 C77.128,34.13 76.738,34.764 76.555,35.549 C76.464,35.916 76.421,36.215 76.421,36.453 L76.421,38.668 C76.421,39.637 76.713,40.455 77.309,41.121 C77.9,41.782 78.673,42.116 79.617,42.116 C80.736,42.116 81.602,41.691 82.223,40.83 C82.845,39.973 83.156,38.842 83.156,37.433 C83.156,36.141 82.862,35.072 82.28,34.235 C81.637,33.363 80.778,32.916 79.703,32.916 Z M119.007,32.733 C117.824,32.733 116.92,33.258 116.303,34.315 C115.768,35.185 115.506,36.246 115.506,37.503 C115.506,38.727 115.768,39.771 116.303,40.643 C116.935,41.698 117.83,42.223 118.985,42.223 C120.109,42.223 120.998,41.691 121.633,40.61 C122.184,39.727 122.459,38.668 122.459,37.451 C122.459,36.235 122.195,35.185 121.669,34.315 C121.04,33.258 120.158,32.733 119.007,32.733 Z M65.084,32.916 C64.355,32.916 63.697,33.157 63.103,33.64 C62.508,34.13 62.122,34.764 61.938,35.549 C61.849,35.916 61.804,36.215 61.804,36.453 L61.804,38.668 C61.804,39.637 62.095,40.455 62.691,41.121 C63.283,41.782 64.056,42.116 65.003,42.116 C66.113,42.116 66.986,41.691 67.605,40.83 C68.226,39.973 68.533,38.842 68.533,37.433 C68.533,36.141 68.245,35.072 67.66,34.235 C67.019,33.363 66.162,32.916 65.084,32.916 Z M15.785,40.384 L31.161,40.384 L31.161,17.643 L15.785,17.643 L15.785,40.384 Z M23.472,41.727 C22.609,41.727 21.906,42.432 21.906,43.297 C21.906,44.16 22.609,44.864 23.472,44.864 C24.338,44.864 25.039,44.16 25.039,43.297 C25.039,42.432 24.338,41.727 23.472,41.727 Z M21.966,15.324 L24.979,15.324 C25.176,15.324 25.337,15.161 25.337,14.972 C25.337,14.773 25.176,14.612 24.979,14.612 L21.966,14.612 C21.774,14.612 21.61,14.773 21.61,14.972 C21.61,15.161 21.774,15.324 21.966,15.324 Z" id="Fill-4"></path>
            <path d="M7.724,2.349 C4.567,2.349 2,4.917 2,8.073 L2,49.936 C2,53.087 4.567,55.651 7.724,55.651 L153.395,55.651 C156.551,55.651 159.119,53.087 159.119,49.936 L159.119,8.073 C159.119,4.917 156.551,2.349 153.395,2.349 L7.724,2.349 Z M153.395,57.651 L7.724,57.651 C3.465,57.651 0,54.19 0,49.936 L0,8.073 C0,3.814 3.465,0.349 7.724,0.349 L153.395,0.349 C157.654,0.349 161.119,3.814 161.119,8.073 L161.119,49.936 C161.119,54.19 157.654,57.651 153.395,57.651 Z" id="Fill-5"></path>
        </g>
    </g>
</svg>