<?xml version="1.0" encoding="UTF-8"?>
<svg width="172px" height="58px" viewBox="0 0 172 58" version="1.1" xmlns="http://www.w3.org/2000/svg" xmlns:xlink="http://www.w3.org/1999/xlink">
    <!-- Generator: Sketch 51.2 (57519) - http://www.bohemiancoding.com/sketch -->
    <title>Group 2</title>
    <desc>Created with Sketch.</desc>
    <defs></defs>
    <g id="Page-1" stroke="none" stroke-width="1" fill="none" fill-rule="evenodd">
        <g id="Group-2">
            <path d="M9.03,2.349 C5.465,2.349 2.563,5.25 2.563,8.816 L2.563,49.134 C2.563,52.7 5.465,55.601 9.03,55.601 L163.007,55.601 C166.572,55.601 169.473,52.7 169.473,49.134 L169.473,8.816 C169.473,5.25 166.572,2.349 163.007,2.349 L9.03,2.349 Z M163.007,57.601 L9.03,57.601 C4.361,57.601 0.563,53.803 0.563,49.134 L0.563,8.816 C0.563,4.147 4.361,0.349 9.03,0.349 L163.007,0.349 C167.675,0.349 171.473,4.147 171.473,8.816 L171.473,49.134 C171.473,53.803 167.675,57.601 163.007,57.601 Z" id="Fill-24" fill="#4D4E4C"></path>
            <path d="M55.719,15.056 C55.315,13.835 55.112,13.176 55.112,13.076 L55.056,13.076 C55.056,13.168 54.846,13.828 54.428,15.056 L55.719,15.056 Z M57.358,17.06 L56.223,17.06 C56.223,16.904 56.115,16.462 55.9,15.733 L54.261,15.733 C54.039,16.45 53.928,16.892 53.928,17.06 L52.86,17.06 C52.86,16.968 53.136,16.211 53.688,14.79 C54.24,13.368 54.516,12.586 54.516,12.441 L55.857,12.441 C55.857,12.576 56.107,13.348 56.608,14.756 C57.108,16.164 57.358,16.932 57.358,17.06 Z" id="Fill-25" fill="#515151"></path>
            <path d="M61.932,17.06 L61.056,17.06 C61.056,16.963 60.731,16.451 60.08,15.524 C59.399,14.547 59.011,13.879 58.917,13.52 L58.86,13.52 C58.919,14.038 58.949,14.506 58.949,14.924 C58.949,15.509 58.965,16.221 58.998,17.06 L58.126,17.06 C58.161,16.327 58.179,15.522 58.179,14.644 C58.179,13.781 58.161,13.047 58.126,12.441 L59.179,12.441 C59.179,12.567 59.471,13.067 60.056,13.942 C60.678,14.871 61.035,15.502 61.127,15.833 L61.18,15.833 C61.123,15.305 61.095,14.832 61.095,14.414 C61.095,13.773 61.078,13.115 61.045,12.441 L61.932,12.441 C61.899,13.028 61.883,13.762 61.883,14.644 C61.883,15.534 61.899,16.339 61.932,17.06" id="Fill-26" fill="#515151"></path>
            <path d="M66.105,14.744 C66.105,14.289 65.973,13.907 65.708,13.596 C65.443,13.285 65.039,13.129 64.495,13.129 C64.393,13.129 64.254,13.14 64.076,13.161 C64.1,13.634 64.112,14.129 64.112,14.644 C64.112,15.21 64.124,15.77 64.147,16.326 C64.301,16.357 64.455,16.372 64.608,16.372 C65.117,16.372 65.494,16.214 65.738,15.898 C65.983,15.583 66.105,15.198 66.105,14.744 Z M67.074,14.591 C67.074,15.263 66.859,15.849 66.428,16.351 C65.998,16.852 65.395,17.103 64.619,17.103 C64.269,17.103 63.787,17.088 63.172,17.06 C63.202,16.346 63.218,15.541 63.218,14.644 C63.218,13.783 63.202,13.049 63.172,12.441 L63.792,12.441 C63.894,12.441 64.045,12.438 64.247,12.431 C64.447,12.424 64.579,12.42 64.64,12.42 C65.494,12.42 66.113,12.633 66.497,13.059 C66.882,13.484 67.074,13.995 67.074,14.591 Z" id="Fill-27" fill="#515151"></path>
            <path d="M70.485,13.796 C70.485,13.326 70.182,13.09 69.576,13.09 C69.354,13.09 69.158,13.107 68.988,13.14 C69.014,13.507 69.027,13.984 69.027,14.573 C69.157,14.578 69.267,14.58 69.357,14.58 C70.109,14.58 70.485,14.319 70.485,13.796 Z M71.815,17.06 L70.765,17.06 C70.49,16.223 70.28,15.706 70.133,15.51 C69.987,15.314 69.75,15.215 69.424,15.215 C69.287,15.215 69.155,15.217 69.03,15.219 C69.03,15.827 69.041,16.441 69.062,17.06 L68.076,17.06 C68.107,16.346 68.122,15.541 68.122,14.644 C68.122,13.783 68.107,13.049 68.076,12.441 L68.69,12.441 C68.761,12.441 68.909,12.438 69.135,12.431 C69.361,12.424 69.569,12.42 69.761,12.42 C70.846,12.42 71.389,12.791 71.389,13.534 C71.389,14.123 71.079,14.533 70.46,14.765 L70.46,14.818 C70.699,14.884 70.908,15.071 71.088,15.377 C71.267,15.683 71.51,16.244 71.815,17.06 Z" id="Fill-28" fill="#515151"></path>
            <path d="M75.921,14.768 C75.921,14.274 75.794,13.873 75.541,13.566 C75.288,13.258 74.976,13.105 74.605,13.105 C74.259,13.105 73.966,13.26 73.725,13.569 C73.484,13.879 73.363,14.271 73.363,14.744 C73.363,15.236 73.49,15.636 73.745,15.944 C73.999,16.253 74.31,16.407 74.679,16.407 C75.025,16.407 75.318,16.252 75.559,15.941 C75.8,15.63 75.921,15.239 75.921,14.768 Z M76.9,14.666 C76.9,15.392 76.678,15.994 76.233,16.471 C75.788,16.949 75.239,17.188 74.584,17.188 C73.959,17.188 73.436,16.968 73.016,16.53 C72.595,16.091 72.384,15.534 72.384,14.857 C72.384,14.131 72.606,13.529 73.051,13.051 C73.496,12.574 74.045,12.335 74.701,12.335 C75.325,12.335 75.848,12.554 76.269,12.991 C76.689,13.429 76.9,13.987 76.9,14.666 Z" id="Fill-29" fill="#515151"></path>
            <path d="M78.906,17.06 L77.902,17.06 C77.933,16.327 77.948,15.522 77.948,14.644 C77.948,13.781 77.933,13.047 77.902,12.441 L78.906,12.441 C78.875,13.037 78.86,13.772 78.86,14.644 C78.86,15.536 78.875,16.341 78.906,17.06" id="Fill-30" fill="#515151"></path>
            <path d="M83.079,14.744 C83.079,14.289 82.947,13.907 82.682,13.596 C82.417,13.285 82.013,13.129 81.469,13.129 C81.367,13.129 81.227,13.14 81.05,13.161 C81.074,13.634 81.086,14.129 81.086,14.644 C81.086,15.21 81.097,15.77 81.121,16.326 C81.275,16.357 81.428,16.372 81.582,16.372 C82.091,16.372 82.467,16.214 82.712,15.898 C82.957,15.583 83.079,15.198 83.079,14.744 Z M84.048,14.591 C84.048,15.263 83.832,15.849 83.402,16.351 C82.972,16.852 82.368,17.103 81.593,17.103 C81.243,17.103 80.76,17.088 80.145,17.06 C80.176,16.346 80.192,15.541 80.192,14.644 C80.192,13.783 80.176,13.049 80.145,12.441 L80.766,12.441 C80.868,12.441 81.019,12.438 81.22,12.431 C81.421,12.424 81.553,12.42 81.614,12.42 C82.468,12.42 83.087,12.633 83.471,13.059 C83.855,13.484 84.048,13.995 84.048,14.591 Z" id="Fill-31" fill="#515151"></path>
            <path d="M89.23,15.056 C88.826,13.835 88.623,13.176 88.623,13.076 L88.566,13.076 C88.566,13.168 88.357,13.828 87.939,15.056 L89.23,15.056 Z M90.869,17.06 L89.734,17.06 C89.734,16.904 89.626,16.462 89.411,15.733 L87.772,15.733 C87.55,16.45 87.438,16.892 87.438,17.06 L86.371,17.06 C86.371,16.968 86.647,16.211 87.199,14.79 C87.751,13.368 88.027,12.586 88.027,12.441 L89.368,12.441 C89.368,12.576 89.618,13.348 90.119,14.756 C90.619,16.164 90.869,16.932 90.869,17.06 Z" id="Fill-32" fill="#515151"></path>
            <path d="M94.092,13.846 C94.092,13.34 93.756,13.087 93.084,13.087 C92.916,13.087 92.739,13.105 92.552,13.14 C92.578,13.587 92.591,14.093 92.591,14.658 C92.65,14.663 92.719,14.666 92.797,14.666 C93.66,14.666 94.092,14.392 94.092,13.846 Z M95.007,13.651 C95.007,14.216 94.797,14.634 94.377,14.903 C93.958,15.173 93.443,15.308 92.832,15.308 C92.721,15.308 92.642,15.305 92.595,15.301 C92.595,15.745 92.608,16.332 92.634,17.06 L91.637,17.06 C91.667,16.377 91.683,15.571 91.683,14.644 C91.683,13.793 91.667,13.059 91.637,12.441 L92.254,12.441 C92.341,12.441 92.51,12.438 92.758,12.431 C93.006,12.424 93.221,12.42 93.403,12.42 C93.853,12.42 94.232,12.522 94.542,12.725 C94.852,12.929 95.007,13.237 95.007,13.651 Z" id="Fill-33" fill="#515151"></path>
            <path d="M98.346,13.846 C98.346,13.34 98.011,13.087 97.339,13.087 C97.171,13.087 96.993,13.105 96.807,13.14 C96.833,13.587 96.846,14.093 96.846,14.658 C96.905,14.663 96.974,14.666 97.052,14.666 C97.915,14.666 98.346,14.392 98.346,13.846 Z M99.262,13.651 C99.262,14.216 99.052,14.634 98.632,14.903 C98.212,15.173 97.697,15.308 97.087,15.308 C96.976,15.308 96.897,15.305 96.849,15.301 C96.849,15.745 96.862,16.332 96.888,17.06 L95.892,17.06 C95.922,16.377 95.938,15.571 95.938,14.644 C95.938,13.793 95.922,13.059 95.892,12.441 L96.509,12.441 C96.596,12.441 96.764,12.438 97.013,12.431 C97.261,12.424 97.476,12.42 97.658,12.42 C98.107,12.42 98.487,12.522 98.797,12.725 C99.107,12.929 99.262,13.237 99.262,13.651 Z" id="Fill-34" fill="#515151"></path>
            <path d="M105.239,14.768 C105.239,14.274 105.112,13.873 104.859,13.566 C104.606,13.258 104.294,13.105 103.923,13.105 C103.577,13.105 103.284,13.26 103.043,13.569 C102.802,13.879 102.681,14.271 102.681,14.744 C102.681,15.236 102.808,15.636 103.063,15.944 C103.317,16.253 103.628,16.407 103.997,16.407 C104.343,16.407 104.636,16.252 104.877,15.941 C105.118,15.63 105.239,15.239 105.239,14.768 Z M106.218,14.666 C106.218,15.392 105.996,15.994 105.551,16.471 C105.106,16.949 104.556,17.188 103.901,17.188 C103.277,17.188 102.754,16.968 102.333,16.53 C101.913,16.091 101.702,15.534 101.702,14.857 C101.702,14.131 101.924,13.529 102.369,13.051 C102.814,12.574 103.363,12.335 104.018,12.335 C104.643,12.335 105.166,12.554 105.586,12.991 C106.007,13.429 106.218,13.987 106.218,14.666 Z" id="Fill-35" fill="#515151"></path>
            <path d="M111.026,17.06 L110.15,17.06 C110.15,16.963 109.825,16.451 109.175,15.524 C108.493,14.547 108.105,13.879 108.011,13.52 L107.954,13.52 C108.013,14.038 108.043,14.506 108.043,14.924 C108.043,15.509 108.059,16.221 108.093,17.06 L107.22,17.06 C107.255,16.327 107.273,15.522 107.273,14.644 C107.273,13.781 107.255,13.047 107.22,12.441 L108.273,12.441 C108.273,12.567 108.566,13.067 109.15,13.942 C109.772,14.871 110.129,15.502 110.221,15.833 L110.274,15.833 C110.217,15.305 110.189,14.832 110.189,14.414 C110.189,13.773 110.173,13.115 110.139,12.441 L111.026,12.441 C110.993,13.028 110.977,13.762 110.977,14.644 C110.977,15.534 110.993,16.339 111.026,17.06" id="Fill-36" fill="#515151"></path>
            <path d="M69.177,31.858 C69.177,34.15 68.497,35.977 67.137,37.337 C65.593,38.957 63.583,39.767 61.107,39.767 C58.738,39.767 56.725,38.946 55.067,37.303 C53.408,35.66 52.58,33.623 52.58,31.193 C52.58,28.764 53.408,26.727 55.067,25.084 C56.725,23.441 58.738,22.62 61.107,22.62 C62.284,22.62 63.407,22.848 64.478,23.307 C65.547,23.765 66.403,24.378 67.045,25.141 L65.601,26.586 C64.516,25.287 63.018,24.637 61.107,24.637 C59.38,24.637 57.887,25.244 56.626,26.46 C55.365,27.675 54.734,29.253 54.734,31.193 C54.734,33.135 55.365,34.712 56.626,35.928 C57.887,37.142 59.38,37.75 61.107,37.75 C62.941,37.75 64.47,37.139 65.692,35.916 C66.487,35.121 66.945,34.013 67.067,32.592 L61.107,32.592 L61.107,30.62 L69.062,30.62 C69.139,31.049 69.177,31.461 69.177,31.858" id="Fill-37" fill="#515151"></path>
            <path d="M73.246,36.729 C73.972,37.471 74.831,37.842 75.825,37.842 C76.818,37.842 77.678,37.471 78.404,36.729 C79.13,35.988 79.493,35.007 79.493,33.784 C79.493,32.561 79.13,31.58 78.404,30.838 C77.678,30.097 76.818,29.726 75.825,29.726 C74.831,29.726 73.972,30.097 73.246,30.838 C72.52,31.58 72.157,32.561 72.157,33.784 C72.157,35.007 72.52,35.988 73.246,36.729 Z M71.676,29.509 C72.761,28.37 74.144,27.801 75.825,27.801 C77.506,27.801 78.889,28.37 79.975,29.509 C81.06,30.647 81.602,32.072 81.602,33.784 C81.602,35.496 81.06,36.921 79.975,38.059 C78.889,39.198 77.506,39.767 75.825,39.767 C74.144,39.767 72.761,39.198 71.676,38.059 C70.591,36.921 70.048,35.496 70.048,33.784 C70.048,32.072 70.591,30.647 71.676,29.509 Z" id="Fill-38" fill="#515151"></path>
            <path d="M85.511,36.729 C86.236,37.471 87.096,37.842 88.09,37.842 C89.083,37.842 89.942,37.471 90.669,36.729 C91.395,35.988 91.758,35.007 91.758,33.784 C91.758,32.561 91.395,31.58 90.669,30.838 C89.942,30.097 89.083,29.726 88.09,29.726 C87.096,29.726 86.236,30.097 85.511,30.838 C84.784,31.58 84.422,32.561 84.422,33.784 C84.422,35.007 84.784,35.988 85.511,36.729 Z M83.94,29.509 C85.025,28.37 86.408,27.801 88.09,27.801 C89.77,27.801 91.153,28.37 92.239,29.509 C93.324,30.647 93.866,32.072 93.866,33.784 C93.866,35.496 93.324,36.921 92.239,38.059 C91.153,39.198 89.77,39.767 88.09,39.767 C86.408,39.767 85.025,39.198 83.94,38.059 C82.855,36.921 82.312,35.496 82.312,33.784 C82.312,32.072 82.855,30.647 83.94,29.509 Z" id="Fill-39" fill="#515151"></path>
            <path d="M100.263,37.842 C101.256,37.842 102.101,37.474 102.796,36.741 C103.491,36.008 103.839,35.021 103.839,33.784 C103.839,32.546 103.491,31.56 102.796,30.827 C102.101,30.093 101.256,29.726 100.263,29.726 C99.284,29.726 98.443,30.097 97.741,30.838 C97.038,31.58 96.686,32.561 96.686,33.784 C96.686,35.007 97.038,35.988 97.741,36.729 C98.443,37.471 99.284,37.842 100.263,37.842 Z M100.103,44.719 C98.772,44.719 97.687,44.387 96.847,43.722 C96.006,43.056 95.402,42.296 95.036,41.44 L96.962,40.639 C97.176,41.249 97.569,41.762 98.143,42.174 C98.715,42.587 99.368,42.793 100.103,42.793 C101.264,42.793 102.177,42.445 102.842,41.75 C103.507,41.055 103.839,40.111 103.839,38.919 L103.839,37.842 L103.747,37.842 C103.38,38.391 102.86,38.85 102.188,39.217 C101.516,39.584 100.759,39.767 99.919,39.767 C98.467,39.767 97.214,39.194 96.159,38.048 C95.104,36.901 94.577,35.48 94.577,33.784 C94.577,32.088 95.104,30.666 96.159,29.519 C97.214,28.374 98.467,27.801 99.919,27.801 C100.759,27.801 101.516,27.984 102.188,28.35 C102.86,28.718 103.38,29.176 103.747,29.726 L103.839,29.726 L103.839,28.167 L105.856,28.167 L105.856,38.827 C105.856,40.753 105.298,42.216 104.183,43.218 C103.067,44.218 101.707,44.719 100.103,44.719 Z" id="Fill-40" fill="#515151"></path>
            <polygon id="Fill-41" fill="#515151" points="107.851 39.4 109.959 39.4 109.959 22.986 107.851 22.986"></polygon>
            <path d="M119.954,32.431 C119.908,31.789 119.613,31.179 119.071,30.597 C118.528,30.016 117.722,29.726 116.652,29.726 C115.873,29.726 115.197,29.971 114.624,30.46 C114.051,30.949 113.657,31.606 113.443,32.431 L119.954,32.431 Z M116.928,39.767 C115.231,39.767 113.852,39.202 112.79,38.07 C111.728,36.94 111.196,35.511 111.196,33.784 C111.196,32.148 111.712,30.743 112.744,29.565 C113.775,28.389 115.094,27.801 116.698,27.801 C118.364,27.801 119.697,28.344 120.698,29.429 C121.699,30.514 122.2,31.966 122.2,33.784 L122.178,34.174 L113.306,34.174 C113.366,35.305 113.745,36.199 114.44,36.855 C115.136,37.513 115.949,37.842 116.882,37.842 C118.395,37.842 119.419,37.199 119.954,35.916 L121.833,36.695 C121.467,37.566 120.862,38.297 120.022,38.885 C119.182,39.472 118.15,39.767 116.928,39.767 Z" id="Fill-42" fill="#515151"></path>
            <path d="M130.499,30.735 L134.029,30.735 C134.915,30.735 135.626,30.436 136.161,29.841 C136.696,29.245 136.964,28.588 136.964,27.869 C136.964,27.151 136.696,26.494 136.161,25.898 C135.626,25.302 134.915,25.004 134.029,25.004 L130.499,25.004 L130.499,30.735 Z M130.499,39.4 L128.39,39.4 L128.39,22.986 L133.983,22.986 C135.374,22.986 136.577,23.449 137.594,24.373 C138.61,25.299 139.118,26.464 139.118,27.869 C139.118,29.275 138.61,30.441 137.594,31.365 C136.577,32.29 135.374,32.752 133.983,32.752 L130.499,32.752 L130.499,39.4 Z" id="Fill-43" fill="#515151"></path>
            <polygon id="Fill-44" fill="#515151" points="140.494 39.4 142.603 39.4 142.603 22.986 140.494 22.986"></polygon>
            <path d="M148.379,37.842 C149.25,37.842 150.041,37.516 150.752,36.867 C151.463,36.218 151.817,35.45 151.817,34.563 C151.222,34.074 150.328,33.83 149.136,33.83 C148.111,33.83 147.34,34.052 146.82,34.494 C146.301,34.938 146.041,35.457 146.041,36.054 C146.041,36.603 146.277,37.039 146.752,37.36 C147.225,37.68 147.768,37.842 148.379,37.842 Z M148.035,39.767 C146.843,39.767 145.846,39.423 145.044,38.735 C144.241,38.048 143.84,37.139 143.84,36.008 C143.84,34.785 144.313,33.826 145.262,33.131 C146.209,32.435 147.378,32.088 148.769,32.088 C150.007,32.088 151.023,32.316 151.817,32.775 L151.817,32.454 C151.817,31.629 151.535,30.968 150.97,30.472 C150.404,29.974 149.709,29.726 148.884,29.726 C148.272,29.726 147.718,29.872 147.222,30.162 C146.725,30.452 146.385,30.849 146.201,31.353 L144.275,30.528 C144.535,29.856 145.047,29.233 145.811,28.66 C146.575,28.087 147.584,27.801 148.838,27.801 C150.274,27.801 151.466,28.222 152.414,29.061 C153.361,29.902 153.835,31.087 153.835,32.615 L153.835,39.4 L151.817,39.4 L151.817,37.842 L151.727,37.842 C150.886,39.125 149.655,39.767 148.035,39.767 Z" id="Fill-45" fill="#515151"></path>
            <polyline id="Fill-46" fill="#515151" points="158.421 44.351 156.243 44.351 158.856 38.689 154.226 28.167 156.518 28.167 159.865 36.237 159.911 36.237 163.166 28.167 165.458 28.167 158.421 44.351"></polyline>
            <path d="M13.242,30.915 C13.242,25.672 13.244,20.429 13.239,15.187 C13.239,14.543 13.364,13.956 13.82,13.47 C13.997,13.281 14.124,13.23 14.342,13.452 C17.869,17.051 21.405,20.643 24.941,24.235 C27.23,26.561 29.518,28.888 31.817,31.205 C32.04,31.43 32.06,31.548 31.824,31.783 C26.201,37.373 20.583,42.969 14.981,48.579 C14.638,48.922 14.398,48.886 14.07,48.633 C13.469,48.171 13.239,47.553 13.24,46.816 C13.241,43.711 13.235,40.606 13.233,37.501 C13.232,35.305 13.233,33.11 13.233,30.915 C13.236,30.915 13.239,30.915 13.242,30.915" id="Fill-47" fill="#4D4E4C"></path>
            <path d="M15.257,12.8709467 C15.686,12.868 15.988,12.992 16.28,13.155 C23.46,17.179 30.639,21.204 37.824,25.219 C38.154,25.403 38.147,25.506 37.892,25.757 C36.286,27.337 34.693,28.93 33.101,30.524 C32.929,30.696 32.825,30.795 32.594,30.56 C26.882,24.734 21.161,18.917 15.442,13.098 C15.394,13.049 15.354,12.992 15.257,12.8709467" id="Fill-48" fill="#4D4E4C"></path>
            <path d="M16.864,48.446 C22.076,43.178 27.291,37.914 32.491,32.634 C32.813,32.306 32.964,32.35 33.253,32.651 C34.574,34.026 35.914,35.383 37.26,36.733 C37.497,36.971 37.517,37.068 37.196,37.244 C30.505,40.906 23.82,44.58 17.134,48.249 C17.024,48.31 16.921,48.409 16.864,48.446" id="Fill-49" fill="#4D4E4C"></path>
            <path d="M46.637,31.061 C46.615,31.651 46.336,32.066 45.914,32.377 C45.602,32.608 45.258,32.797 44.917,32.985 C42.894,34.104 40.866,35.211 38.847,36.337 C38.575,36.489 38.413,36.483 38.188,36.249 C36.751,34.765 35.301,33.293 33.843,31.829 C33.631,31.616 33.625,31.499 33.843,31.285 C35.541,29.612 37.23,27.93 38.912,26.24 C39.11,26.04 39.252,26.018 39.499,26.158 C41.497,27.29 43.505,28.407 45.508,29.53 C46.128,29.877 46.61,30.327 46.637,31.061" id="Fill-50" fill="#4D4E4C"></path>
        </g>
    </g>
</svg>