<svg xmlns="http://www.w3.org/2000/svg" width="512" height="300" fill="none" viewBox="0 0 512 300">
  <path fill="#1FA12D" d="M0 0h512v300H0z"/>
  <path fill="#0066AC" d="M102.517 231.417H290.5l1.828-10.859H104.344l-1.822 10.859"/>
  <path fill="#FFE400" d="M408.462 137.082c0-.412-1.08-.781-1.785-1.352-2.331-1.962-10.722-10.238-27.214-9.702-2.087.072-3.987.263-5.714.562 3.497-1.145 5.325-1.828 6.376-2.253 1.281-.505 9.7-3.4 14.233-18.237.403-1.271 1.482-4.329 1.209-4.559-.345-.286-3.166.221-6.03 1.97-2.864 1.749-12.492 3.275-13.658 3.461-.662.101-3.497-.319-7.728 1.912 4.763-4.912 9.815-11.895 11.182-21.691.648-4.7.36-6.618.187-6.605-.288.014-.432.014-.791.13-1.065.312-2.145 1.214-5.627 3.566a433.65 433.65 0 0 0-7.239 4.96s1.266-12.803.863-13.092c-.374-.289-7.628-.217-18.738 12.197 0 0 1.267-10.638-.82-14.652 0 0-.576-2.905-1.036-4.421-.216-.758-.806-1.552-.907-1.499-.173 0-1.108.253-2.691 2.076-2.447 2.816-13.831 6.263-15.73 21.052-1.44-5.97-4.462-13.959-11.946-18.002-4.216-4.151-6.087-5.379-6.303-5.27-.202 0-.187 1.932-.763 6.083-.719 4.666-1.367 6.138-1.367 6.138s-7.843-6.915-8.031-7.113c-.359-.38-5.152 14.814-3.741 22.396 0 0-2.49-1.927-7.009-4.257-5.124-2.64-13.744-3.093-13.687-2.688.187.681 7.283 14.746 10.305 19.685 0 0-19.328-3.332-18.997-2.121.187.4.575 1.163 1.353 4.399 0 0-7.585-.164-7.498.465.172.703 5.756 10.057 6.188 10.568 0 0-5.872 1.138-7.109 1.206-.85.029 3.928 13.231 16.967 16.523 1.857.466 3.627.81 5.354 1.061 1.482.145 3.281.318 4.85.465 7.771.311 12.852-1.689 11.974-4.573 0 0-.259-1.068-8.203-3.984 0 0 .215-.953.748-1.083.532-.13 8.808 2.913 8.232 2.428-.59-.494-3.627-3.873-3.08-3.844.533.014 4.433 1.676 5.728.462 1.238-1.161 2.015-3.292 2.821-3.759.806-.463-2.159-3.227 1.756-1.956 0 0 2.648-1.498.561-3.945-2.087-2.455-8.721-10.336 2.101-.825 2.591 2.279 9.067-4.661 8.534-8.433 0 0 2.605 2.618 3.152 2.899.533.281 4.159.713 4.994-.548.374-.577-1.338-5.95-.23-8.311 0 0 .46-.029.892.459.432.505.489 6.109 2.447 7.172 0 0 2.216-1.298 2.59-2.265.389-.977-.604 6.054 6.03 3.023 0 0 3.224-2.879 4.159-2.963.921-.086-.705 3.415.173 4.661.82 1.248 3.526 2.084 4.39.525.863-1.561 5.008-4.679 5.324-4.555.331.13-2.101 6.625-2.374 7.263-.403.923-.691 2.298-.691 2.298s.317 1.815 2.562 2.314c0 0 4.274-2.496 8.707-5.744a43.88 43.88 0 0 0-1.396 1.769s-5.743 5.916-5.743 6.772c0 .858 1.958 2.779 3.57 1.69 1.611-1.08 5.497-2.696 5.843-2.414.316.281.949 1.078.172 1.547-.806.463-5.325 2.835-5.325 2.835s5.167.354 11.485-.928c-6.836 2.784-9.211 7.017-9.153 7.42.216 1.359 10.822-1.402 11.11-.731 1.526 3.473-3.367 1.329-5.497 1.69-2.145.354-7.657.478-2.577 4.833 0 0 .936.072-1.568 1.552-2.519 1.485 5.555 2.36 6.534 3.437.949 1.081-8.031-.116-7.844 2.605.173 2.711-1.54 1.002 4.418 7.38 0 0-3.583-.835-3.986-.328-.432.508 7.815 7.37 7.771 9.322 0 0-1.683 1.169-2.403.145-.72-1.025-5.699-6.559-6.505-6.722-.619-.13-1.77.163-2.303 1.236 0 0 2.173 5.094 1.497 5.239-.691.144-4.102-2.269-4.102-2.269s-2.23.991-1.496 3.025c.719 2.031 6.793 8.946 6.462 9.369 0 0-.533 1.139-1.296 1.058-.791-.086-5.008-7.718-6.03-8.012-1.05-.292 1.209 7.133 1.209 7.133s-3.799-4.007-4.807-4.845c-1.007-.837-1.166.887-1.166.887l1.109 8.472s-11.816-17.676-8.938 3.403c0 0-.273 1.194-.662 1.153-.388-.044-2.907-6.975-2.619-8.869.288-1.896-2.058 5.251-2.058 5.251s-3.713-14.764-11.398.373c0 0-.518-5.72-1.698-6.699-1.18-.98-2.116-1.322-2.447-1.331-.259 0-1.799-.058-3.209 2.58-5.411 7.038-8.865 16.086-9.858 23.927-.173 5.429.446 15.234.187 17.328-.187 1.242 0 1.371.287 1.776 0 .144 2.087-1.545 2.706-1.978.964-.636 10.837-13.949 11.441-17.285 0 0 5.282 23.205 7.052 25.688.403.535.706 1.127.979.708.518-.823 1.31-2.989 1.9-3.162.762-.231 2.993-.506 4.159-3.812 1.166-3.322 3.281-6.542 4.26-15.133 0 0 11.182 14.31 12.636 15.638.575.534 3.612-4.534 4.95-12.692 1.339-8.144-1.539-19.104-3.367-19.48 0 0-.763-1.198 1.367-.433 1.209.433 5.857 8.548 16.608 14.7 1.799 1.039 5.641 1.054 5.656.982.863-2.412-7.556-24.542-7.556-24.542s.202-.253 1.9.446c1.698.698 17.788 11.143 27.531 6.245 1.986-.989 2.116-1.203 2.116-1.203 1.108-4.817-7.484-13.935-12.766-18.081 0 0 13.86-.563 16.004-4.251 0 0 2.547-.924 3.857-2.749.245-.324-1.482-3.496-3.483-4.89-5.238-3.644-6.375-5.016-6.375-5.016s1.468-1.775 3.583-2.439c2.101-.664 8.937-4.895 7.124-6.979 0 0 2.202-1.917 2.101-2.418"/>
  <path fill="#fff" d="M154.85 141.278c-.479-.547-1.113-.82-1.899-.82-.8 0-1.526.268-2.175.804-.647.534-1.036 1.177-1.157 1.931-.129.765.029 1.416.514 1.948.472.535 1.112.803 1.925.803.785 0 1.504-.268 2.153-.803.647-.532 1.031-1.167 1.153-1.896.13-.779-.029-1.433-.514-1.967m-7.991 0c-.461-.536-1.088-.804-1.888-.804-.786 0-1.506.268-2.156.804-.648.534-1.034 1.184-1.16 1.947-.13.753.057 1.399.518 1.93.47.539 1.101.806 1.888.806.777 0 1.488-.267 2.137-.806.661-.544 1.054-1.187 1.177-1.93.13-.763-.057-1.413-.516-1.947Zm-.101 24.142c-.197 1.195-.472 2.03-.829 2.499-.353.449-.888.672-1.607.672-.701 0-1.155-.241-1.368-.722-.218-.481-.229-1.303-.028-2.465l2.83-17.166h-7.518l-2.954 17.803c-.565 3.415.129 5.894 2.086 7.442 1.54 1.223 3.598 1.832 6.171 1.832 2.273 0 4.294-.554 6.064-1.656 1.314-.826 2.31-1.754 2.986-2.774.678-.979 1.146-2.252 1.406-3.828l3.122-18.819h-7.521l-2.847 17.182m86.55 12.188c-.489-.544-1.123-.817-1.9-.817-.806 0-1.525.263-2.173.801-.648.535-1.036 1.179-1.166 1.934-.144.761 0 1.411.518 1.945.475.536 1.109.803 1.929.803.777 0 1.497-.267 2.144-.803.648-.534 1.036-1.168 1.152-1.899.143-.778 0-1.429-.504-1.964Zm-8.002 0c-.446-.537-1.079-.801-1.885-.801-.792 0-1.497.264-2.145.801-.662.535-1.036 1.183-1.165 1.95-.144.751 0 1.395.518 1.929.475.537 1.094.804 1.885.804.777 0 1.497-.267 2.144-.804.648-.546 1.051-1.187 1.166-1.929.144-.767 0-1.415-.518-1.95Zm-.144 24.149c-.201 1.184-.475 2.022-.835 2.498-.345.448-.877.665-1.611.665-.691 0-1.152-.231-1.368-.722-.215-.477-.215-1.3 0-2.47l2.85-17.155h-7.525l-2.951 17.805c-.567 3.408.13 5.892 2.084 7.437 1.541 1.213 3.6 1.834 6.176 1.834 2.259 0 4.288-.564 6.059-1.661 1.309-.823 2.302-1.747 2.979-2.772.676-.982 1.151-2.253 1.41-3.827l3.123-18.816h-7.512l-2.85 17.184m-99.012-45.652c-.129.723-.473 1.285-1.063 1.685-.593.403-1.339.601-2.238.601h-.504l.757-4.56c.18-.015.337-.015.462-.029h.317c1.767 0 2.525.768 2.269 2.31m-4.14 7.878c.975 0 1.705.23 2.186.692.482.462.656 1.102.521 1.918-.144.818-.526 1.47-1.162 1.955-.643.488-1.429.727-2.367.727h-.269c-.101 0-.232-.014-.377-.028l.873-5.258h.595v-.006Zm11.654-8.174c.371-2.238-.129-4.068-1.489-5.484-1.349-1.375-3.654-2.062-6.927-2.062h-8.747l-4.409 26.601h10.531c2.515 0 4.656-.698 6.429-2.103 1.78-1.39 2.859-3.224 3.239-5.51.301-1.818.072-3.206-.689-4.172-.762-.966-2.101-1.585-4.028-1.861 3.508-.276 5.537-2.078 6.089-5.409m30.077 19.055 1.124-6.788c.18-1.047.306-2.266.4-3.654.086-1.392.144-3.022.144-4.895.086.829.23 1.697.394 2.612.161.913.354 1.893.571 2.936l2.116 9.789h7.245l4.411-26.601h-7.246l-.993 5.979c-.182 1.112-.34 2.493-.467 4.133a187.294 187.294 0 0 0-.352 5.932l-.387-2.345c-.144-.932-.3-1.75-.436-2.465-.144-.712-.26-1.346-.373-1.896l-2.168-9.371h-6.833l-4.408 26.602h7.248m29.195-13.015c-.714 4.308-2.43 6.524-5.144 6.651l2.245-13.547h.235c1.167 0 1.989.622 2.469 1.864.481 1.232.544 2.904.195 5.032m7.728-.265c.741-4.485-.029-7.971-2.344-10.462-1.752-1.906-4.485-2.86-8.201-2.86h-6.49l-4.413 26.602h7.036c3.882 0 6.976-1.024 9.273-3.067 2.694-2.401 4.404-5.808 5.139-10.213m7.337 13.28 1.125-6.79c.18-1.047.307-2.265.397-3.653.087-1.392.144-3.021.144-4.895.116.829.234 1.697.395 2.612.162.914.354 1.893.574 2.937l2.114 9.789h7.242l4.418-26.602h-7.249l-.993 5.979c-.184 1.112-.34 2.494-.469 4.134-.13 1.645-.243 3.62-.35 5.931l-.388-2.344c-.163-.931-.3-1.752-.438-2.466-.144-.711-.259-1.345-.37-1.895l-2.166-9.339h-6.831l-4.407 26.602h7.245m27.411-26.602h-7.526l-4.404 26.602h7.512l4.418-26.602m4.131 26.602c2.562 0 4.807-.819 6.75-2.458 1.942-1.64 3.123-3.722 3.54-6.249.245-1.486.144-2.783-.389-3.889-.503-1.106-1.468-2.188-2.878-3.242l-1.051-.811c-.921-.677-1.309-1.356-1.194-2.046.144-.42.316-.78.748-1.079.432-.31.921-.466 1.511-.466.749 0 1.483.265 2.173.785.691.523 1.267 1.238 1.727 2.145l1.339-7.974c-1.684-.878-3.411-1.318-5.195-1.318-2.015 0-3.814.554-5.426 1.662a9.306 9.306 0 0 0-1.583 1.34c-.49.505-.921 1.062-1.324 1.67-.821 1.31-1.339 2.56-1.526 3.76a4.667 4.667 0 0 0 0 1.997c0 .63.216 1.242.49 1.831.259.6.633 1.174 1.122 1.736.475.559 1.079 1.122 1.799 1.689l1.094.878c.777.654 1.108 1.324.993 2.012-.144.478-.346.875-.806 1.19-.461.319-1.022.473-1.67.473-1.712 0-3.151-.964-4.317-2.895l-1.353 8.177c1.9.721 3.728 1.082 5.498 1.082m34.396-17.475c-.389 2.277-1.267 3.413-2.663 3.413-1.482 0-2.014-1.127-1.655-3.377.389-2.385 1.324-3.577 2.778-3.577 1.41 0 1.928 1.179 1.54 3.541Zm5.828-6.521c-1.396-1.74-3.454-2.606-6.188-2.606-2.878 0-5.368.872-7.44 2.619-2.087 1.763-3.339 4.03-3.814 6.792-.374 2.293 0 4.256 1.007 5.889 1.08 1.6 2.562 2.397 4.49 2.397.763 0 1.684-.248 2.764-.76-.36.419-.677.797-.965 1.15-.287.351-.547.668-.762.953l-5.714 7.562h8.074l3.31-4.569c3.9-5.357 6.102-9.55 6.606-12.575.46-2.829 0-5.115-1.368-6.852m15.558 10.822c-.403 2.34-.878 4.057-1.454 5.158-.604 1.102-1.324 1.652-2.158 1.652-1.584 0-1.943-2.517-1.123-7.555.705-4.213 1.857-6.321 3.468-6.321 1.627 0 2.044 2.353 1.267 7.066m6.491-9.853c-1.325-2.383-3.526-3.575-6.606-3.575-3.037 0-5.642 1.176-7.815 3.526-2.187 2.343-3.583 5.523-4.245 9.549-.72 4.259-.389 7.576 1.007 9.949 1.396 2.385 3.684 3.576 6.836 3.576 2.921 0 5.44-1.178 7.57-3.54 2.116-2.376 3.526-5.573 4.188-9.587.705-4.212.374-7.511-.935-9.898m-182.156 46.14c-.714 4.318-2.428 6.527-5.142 6.657l2.245-13.544h.235c1.164 0 1.99.621 2.468 1.862.485 1.228.547 2.903.194 5.025m7.731-.259c.742-4.477-.043-7.971-2.344-10.469-1.753-1.899-4.487-2.852-8.202-2.852h-6.492l-4.408 26.605h7.035c3.88 0 6.971-1.025 9.269-3.076 2.697-2.397 4.408-5.804 5.142-10.208m12.501-13.321h-7.521l-4.41 26.605h7.521l4.41-26.605Zm13.023 26.605 1.055-6.368h-6.458l.621-3.74h5.789l1.054-6.368h-5.788l.626-3.768h6.456l1.056-6.361h-13.979l-4.411 26.605h13.979Zm26.505-9.79h2.782c-.086.52-.23.996-.427 1.415-.196.419-.429.78-.701 1.083-.272.289-.582.52-.933.679a2.707 2.707 0 0 1-1.122.245c-1.001 0-1.644-.491-1.939-1.473-.295-.982-.26-2.555.086-4.736.847-5.112 2.306-7.667 4.373-7.667.59 0 1.039.245 1.348.736.31.491.449 1.155.417 1.993l7.71-2.556c-1.262-4.361-4.093-6.534-8.491-6.534-3.32 0-6.134 1.206-8.441 3.588-2.308 2.397-3.809 5.675-4.497 9.834-.681 4.115-.266 7.335 1.245 9.689 1.525 2.324 3.966 3.494 7.319 3.494 3.413 0 6.19-1.198 8.329-3.581 1.961-2.18 3.353-5.761 4.176-10.729l.18-1.068h-10.493l-.928 5.588m25.702-8.245c-.163.982-.583 1.776-1.264 2.411-.683.636-1.457.953-2.324.953h-.505l1.055-6.339h.269c2.173 0 3.099.982 2.769 2.975m7.418.303c.497-3.003-.188-5.328-2.057-6.96-1.474-1.276-3.902-1.913-7.295-1.913h-7.7l-4.409 26.605h7.482l1.544-9.314.239-1.747c.072.361.13.679.18.939.057.26.072.476.086.635l2.146 9.487h8.136l-3.761-11.061c3.079-1.227 4.883-3.451 5.417-6.671m29.509 17.732 1.122-6.801c.173-1.04.303-2.253.403-3.639.144-1.4.144-3.032.144-4.895.144.823.231 1.69.389 2.599.158.924.345 1.892.575 2.946l2.116 9.79h7.239l4.418-26.605h-7.253l-.993 5.985c-.187 1.112-.331 2.484-.461 4.13-.144 1.646-.244 3.624-.359 5.935l-.375-2.354c-.172-.924-.302-1.747-.446-2.455-.144-.722-.259-1.357-.374-1.906l-2.159-9.335h-6.836l-4.404 26.605h7.239m29.475 0 1.036-6.368h-6.448l.619-3.74h5.8l1.022-6.368h-5.757l.619-3.768h6.447l1.065-6.361h-13.974l-4.404 26.605h13.975m10.362 0 1.108-6.801c.187-1.04.316-2.253.403-3.639.172-1.4.172-3.032.172-4.895 0 .823.245 1.69.403 2.599.173.924.36 1.892.576 2.946l2.101 9.79h7.254l4.403-26.605h-7.253l-.979 5.985c-.187 1.112-.331 2.484-.475 4.13-.172 1.646-.23 3.624-.345 5.935l-.389-2.354c-.187-.924-.287-1.747-.431-2.455-.173-.722-.274-1.357-.374-1.906l-2.159-9.335h-6.836l-4.418 26.605h7.253"/>
</svg>
