<svg xmlns="http://www.w3.org/2000/svg" width="512" height="300" fill="none" viewBox="0 0 512 300">
  <path fill="#E2001A" d="M0 0h512v300H0z"/>
  <path fill="#fff" d="m195.879 127.591 11.801-18.057c-65.359-36.113-96.223 42.433-37.219 52.365 29.049 4.514 3.632 28.89-23.601 5.417l-11.801 19.862c67.174 44.239 110.746-44.239 41.757-50.559-14.524-.903-15.432-23.474 19.063-9.028Z"/>
  <path fill="#fff" fill-rule="evenodd" d="M216.505 101.311v94.611h27.017v-31.537h20.714c33.322 0 34.222-63.975 0-63.074h-47.731Zm27.017 20.724h10.807c11.708 0 11.708 22.526 0 22.526h-10.807v-22.526Z" clip-rule="evenodd"/>
  <path fill="#fff" fill-rule="evenodd" d="M294.357 101.301v94.614h42.064c53.952.902 53.952-94.614.914-94.614h-42.978Zm26.519 22.527h4.572c33.834 0 33.834 50.461 0 50.461h-4.572v-50.461Z" clip-rule="evenodd"/>
</svg>
