<svg version="1" xmlns="http://www.w3.org/2000/svg" width="933.333" height="933.333" viewBox="0 0 700.000000 700.000000"><path d="M323.5.6c-50.7 4.9-89.4 15.8-131.2 36.8C94.1 86.6 23.9 181 5.1 289 1 312.6.5 319.1.5 349.5c0 30.2.4 35.9 4.6 60.5C17.5 484.5 55.5 554 113 607.2c88.4 81.9 213 112 330.2 79.8 64.7-17.7 123.6-54.6 168.5-105.3 82.8-93.8 109.4-223 70.3-341.7-32.3-97.9-107.5-177.7-203.6-215.8-26.4-10.5-52.2-17.1-85-21.8C383 1 333.1-.3 323.5.6zm57 35.9c62.6 6.4 118.5 29.3 167 68.2 14.4 11.6 35.9 33 46.9 46.8l8.7 11-16.3.6c-33.8 1.3-57.7 11.7-100.5 43.7-35.8 26.8-54.9 46.4-96.7 99.2-9.8 12.4-18.2 22.5-18.6 22.5-.5 0-5.9-6.8-12.1-15-30.5-40.5-54.7-77.2-66.3-100.3-11.5-22.9-23.3-59.3-32.2-99.2-2-9.1-3.8-16.6-3.9-16.8-.5-.5-25.1 14.4-34 20.6-22.9 16-40.9 32.8-52.8 49.3-9 12.6-18.1 30.9-21.4 43.4-2.4 9.1-2.7 11.7-2.7 28 0 15.6.3 19.3 2.3 27.5 8.6 34.7 26.9 70.6 52.9 103.4 13.2 16.7 33.2 39.8 54.1 62.6 6.3 6.9 12.4 13.5 13.4 14.7 1.9 2.1 1.9 2.2-8.4 15.5-25.5 33.1-53.6 63.8-76.4 83.6-16.4 14.1-44.7 35.2-47.4 35.2-1.4 0-23.9-24.1-32.6-35-35.5-44.4-57.8-96.9-66.2-156.1-2.2-15.8-2.5-61.1-.4-76.9 7.7-59.8 30.1-113.4 66.8-159.8 9.8-12.5 37-39.7 49.5-49.5 28.2-22.4 60.4-40.1 92.8-51.2 28-9.5 48.8-13.9 81-16.9 9.9-.9 41.2-.4 53.5.9zM662.6 314c2.3 19.2 2.3 53.6 0 71.9-6.5 52.9-23.6 98.4-53.3 141.8l-8.3 12.2-4.7-2c-10.1-4.3-34.9-20-54.3-34.3-15.9-11.7-31.3-25-49-42.3l-16.9-16.4 3.1-5.2c21.4-35.4 89.8-103.9 132.3-132.6 15.2-10.3 30.5-18.5 41-22.1l5-1.7 1.7 8.1c.9 4.5 2.4 14.6 3.4 22.6zM395.8 579.1c24.7 23.9 40.5 37.7 65 56.8 2.4 1.9 5.8 3.7 7.5 4 2.8.6 1.8 1.2-9.8 5.4-30.8 11.2-57.7 16.7-92.3 18.8-18.7 1.1-42.5.2-58.8-2.2l-7.5-1.2 16.3-16.6c9-9.1 18.4-19.1 21-22.1 6.1-7.3 20.4-28.2 31.3-45.8 4.9-7.8 9-14.2 9.3-14.2.2 0 8.3 7.7 18 17.1z"/></svg>