<?xml version="1.0" encoding="UTF-8" standalone="no"?><svg xmlns="http://www.w3.org/2000/svg" xmlns:xlink="http://www.w3.org/1999/xlink" contentScriptType="application/ecmascript" contentStyleType="text/css" height="372px" preserveAspectRatio="none" style="width:510px;height:372px;" version="1.1" viewBox="0 0 510 372" width="510px" zoomAndPan="magnify"><defs><filter height="300%" id="f1htnf4srdendb" width="300%" x="-1" y="-1"><feGaussianBlur result="blurOut" stdDeviation="2.0"/><feColorMatrix in="blurOut" result="blurOut2" type="matrix" values="0 0 0 0 0 0 0 0 0 0 0 0 0 0 0 0 0 0 .4 0"/><feOffset dx="4.0" dy="4.0" in="blurOut2" result="blurOut3"/><feBlend in="SourceGraphic" in2="blurOut3" mode="normal"/></filter></defs><g><!--cluster Browser--><polygon fill="#FFFFFF" filter="url(#f1htnf4srdendb)" points="22,24,87,24,94,47.6094,488,47.6094,488,360,22,360,22,24" style="stroke: #000000; stroke-width: 1.5;"/><line style="stroke: #000000; stroke-width: 1.5;" x1="22" x2="94" y1="47.6094" y2="47.6094"/><text fill="#000000" font-family="sans-serif" font-size="14" font-weight="bold" lengthAdjust="spacingAndGlyphs" textLength="59" x="26" y="40.5332">Browser</text><!--class IBrowser--><rect fill="#FEFECE" filter="url(#f1htnf4srdendb)" height="89.5078" id="IBrowser" style="stroke: #A80036; stroke-width: 1.5;" width="164" x="173" y="146"/><ellipse cx="188" cy="162" fill="#B4A7E5" rx="11" ry="11" style="stroke: #A80036; stroke-width: 1.0;"/><path d="M188.9531,158.6406 L188.9531,165.2969 L190.6719,165.2969 Q191.2813,165.2969 191.5469,165.5313 Q191.8125,165.7656 191.8125,166.1563 Q191.8125,166.5313 191.5469,166.7656 Q191.2813,167 190.6719,167 L185.5313,167 Q184.9219,167 184.6563,166.7656 Q184.3906,166.5313 184.3906,166.1406 Q184.3906,165.7656 184.6563,165.5313 Q184.9219,165.2969 185.5313,165.2969 L187.25,165.2969 L187.25,158.6406 L185.5313,158.6406 Q184.9219,158.6406 184.6563,158.4063 Q184.3906,158.1719 184.3906,157.7813 Q184.3906,157.4063 184.6563,157.1719 Q184.9219,156.9375 185.5313,156.9375 L190.6719,156.9375 Q191.2813,156.9375 191.5469,157.1719 Q191.8125,157.4063 191.8125,157.7813 Q191.8125,158.1719 191.5469,158.4063 Q191.2813,158.6406 190.6719,158.6406 L188.9531,158.6406 Z "/><text fill="#000000" font-family="sans-serif" font-size="12" font-style="italic" lengthAdjust="spacingAndGlyphs" textLength="48" x="202" y="166.9102">IBrowser</text><rect fill="#FFFFFF" height="17.0938" style="stroke: #000000; stroke-width: 1.0; stroke-dasharray: 2.0,2.0;" width="82" x="258" y="143"/><text fill="#000000" font-family="sans-serif" font-size="12" font-style="italic" lengthAdjust="spacingAndGlyphs" textLength="80" x="259" y="156.457">T extends IFile</text><line style="stroke: #A80036; stroke-width: 1.5;" x1="174" x2="336" y1="178" y2="178"/><line style="stroke: #A80036; stroke-width: 1.5;" x1="174" x2="336" y1="186" y2="186"/><text fill="#000000" font-family="sans-serif" font-size="11" lengthAdjust="spacingAndGlyphs" textLength="85" x="179" y="201.4189">void load(uri: URI)</text><text fill="#000000" font-family="sans-serif" font-size="11" lengthAdjust="spacingAndGlyphs" textLength="89" x="179" y="215.2549">boolean hasNext()</text><text fill="#000000" font-family="sans-serif" font-size="11" lengthAdjust="spacingAndGlyphs" textLength="38" x="179" y="229.0908">T next()</text><path d="M38.5,60 L38.5,86.3516 A0,0 0 0 0 38.5,86.3516 L251,86.3516 L255,145.763 L259,86.3516 L471.5,86.3516 A0,0 0 0 0 471.5,86.3516 L471.5,70 L461.5,60 L38.5,60 A0,0 0 0 0 38.5,60 " fill="#FBFB77" filter="url(#f1htnf4srdendb)" style="stroke: #A80036; stroke-width: 1.0;"/><path d="M461.5,60 L461.5,70 L471.5,70 L461.5,60 " fill="#FBFB77" style="stroke: #A80036; stroke-width: 1.0;"/><text fill="#000000" font-family="sans-serif" font-size="13" lengthAdjust="spacingAndGlyphs" textLength="404" x="44.5" y="78.4951">Navigiert in einer Struktur und liefert die gewünschten IFile-Fragmente.</text><!--class DipBrowser--><rect fill="#FEFECE" filter="url(#f1htnf4srdendb)" height="48" id="DipBrowser" style="stroke: #A80036; stroke-width: 1.5;" width="127" x="81.5" y="296"/><ellipse cx="96.5" cy="312" fill="#ADD1B2" rx="11" ry="11" style="stroke: #A80036; stroke-width: 1.0;"/><path d="M99.2656,307.875 Q99.4219,307.6563 99.6094,307.5469 Q99.7969,307.4375 100.0156,307.4375 Q100.3906,307.4375 100.625,307.6953 Q100.8594,307.9531 100.8594,308.5625 L100.8594,310.0156 Q100.8594,310.625 100.625,310.8906 Q100.3906,311.1563 100.0156,311.1563 Q99.6719,311.1563 99.4688,310.9531 Q99.2656,310.7656 99.1563,310.25 Q99.1094,309.8906 98.9219,309.7031 Q98.5938,309.3281 97.9844,309.1094 Q97.375,308.8906 96.75,308.8906 Q95.9844,308.8906 95.3516,309.2188 Q94.7188,309.5469 94.2266,310.2969 Q93.7344,311.0469 93.7344,312.0781 L93.7344,313.1719 Q93.7344,314.4063 94.625,315.2266 Q95.5156,316.0469 97.1094,316.0469 Q98.0469,316.0469 98.7031,315.7969 Q99.0938,315.6406 99.5156,315.2031 Q99.7813,314.9375 99.9297,314.8594 Q100.0781,314.7813 100.2813,314.7813 Q100.6094,314.7813 100.8672,315.0391 Q101.125,315.2969 101.125,315.6406 Q101.125,315.9844 100.7813,316.3906 Q100.2813,316.9688 99.4844,317.2969 Q98.4063,317.75 97.1094,317.75 Q95.5938,317.75 94.3906,317.125 Q93.4063,316.625 92.7188,315.5547 Q92.0313,314.4844 92.0313,313.2031 L92.0313,312.0469 Q92.0313,310.7188 92.6484,309.5703 Q93.2656,308.4219 94.3594,307.8047 Q95.4531,307.1875 96.6875,307.1875 Q97.4219,307.1875 98.0703,307.3516 Q98.7188,307.5156 99.2656,307.875 Z "/><text fill="#000000" font-family="sans-serif" font-size="12" lengthAdjust="spacingAndGlyphs" textLength="65" x="110.5" y="316.9102">DipBrowser</text><rect fill="#FFFFFF" height="17.0938" style="stroke: #000000; stroke-width: 1.0; stroke-dasharray: 2.0,2.0;" width="28" x="183.5" y="293"/><text fill="#000000" font-family="sans-serif" font-size="12" font-style="italic" lengthAdjust="spacingAndGlyphs" textLength="26" x="184.5" y="306.457">Html</text><line style="stroke: #A80036; stroke-width: 1.5;" x1="82.5" x2="207.5" y1="328" y2="328"/><line style="stroke: #A80036; stroke-width: 1.5;" x1="82.5" x2="207.5" y1="336" y2="336"/><!--class PlenarProtocolBrowser--><rect fill="#FEFECE" filter="url(#f1htnf4srdendb)" height="48" id="PlenarProtocolBrowser" style="stroke: #A80036; stroke-width: 1.5;" width="185" x="243.5" y="296"/><ellipse cx="258.5" cy="312" fill="#ADD1B2" rx="11" ry="11" style="stroke: #A80036; stroke-width: 1.0;"/><path d="M261.2656,307.875 Q261.4219,307.6563 261.6094,307.5469 Q261.7969,307.4375 262.0156,307.4375 Q262.3906,307.4375 262.625,307.6953 Q262.8594,307.9531 262.8594,308.5625 L262.8594,310.0156 Q262.8594,310.625 262.625,310.8906 Q262.3906,311.1563 262.0156,311.1563 Q261.6719,311.1563 261.4688,310.9531 Q261.2656,310.7656 261.1563,310.25 Q261.1094,309.8906 260.9219,309.7031 Q260.5938,309.3281 259.9844,309.1094 Q259.375,308.8906 258.75,308.8906 Q257.9844,308.8906 257.3516,309.2188 Q256.7188,309.5469 256.2266,310.2969 Q255.7344,311.0469 255.7344,312.0781 L255.7344,313.1719 Q255.7344,314.4063 256.625,315.2266 Q257.5156,316.0469 259.1094,316.0469 Q260.0469,316.0469 260.7031,315.7969 Q261.0938,315.6406 261.5156,315.2031 Q261.7813,314.9375 261.9297,314.8594 Q262.0781,314.7813 262.2813,314.7813 Q262.6094,314.7813 262.8672,315.0391 Q263.125,315.2969 263.125,315.6406 Q263.125,315.9844 262.7813,316.3906 Q262.2813,316.9688 261.4844,317.2969 Q260.4063,317.75 259.1094,317.75 Q257.5938,317.75 256.3906,317.125 Q255.4063,316.625 254.7188,315.5547 Q254.0313,314.4844 254.0313,313.2031 L254.0313,312.0469 Q254.0313,310.7188 254.6484,309.5703 Q255.2656,308.4219 256.3594,307.8047 Q257.4531,307.1875 258.6875,307.1875 Q259.4219,307.1875 260.0703,307.3516 Q260.7188,307.5156 261.2656,307.875 Z "/><text fill="#000000" font-family="sans-serif" font-size="12" lengthAdjust="spacingAndGlyphs" textLength="127" x="272.5" y="316.9102">PlenarProtocolBrowser</text><rect fill="#FFFFFF" height="17.0938" style="stroke: #000000; stroke-width: 1.0; stroke-dasharray: 2.0,2.0;" width="24" x="407.5" y="293"/><text fill="#000000" font-family="sans-serif" font-size="12" font-style="italic" lengthAdjust="spacingAndGlyphs" textLength="22" x="408.5" y="306.457">Xml</text><line style="stroke: #A80036; stroke-width: 1.5;" x1="244.5" x2="427.5" y1="328" y2="328"/><line style="stroke: #A80036; stroke-width: 1.5;" x1="244.5" x2="427.5" y1="336" y2="336"/><!--link IBrowser to DipBrowser--><path d="M203.464,251.501 C189.873,267.192 176,283.2096 165.18,295.7016 " fill="none" id="IBrowser-DipBrowser" style="stroke: #A80036; stroke-width: 1.0;"/><polygon fill="none" points="198.451,246.597,216.836,236.062,209.033,255.763,198.451,246.597" style="stroke: #A80036; stroke-width: 1.0;"/><!--link IBrowser to PlenarProtocolBrowser--><path d="M293.888,252.973 C303.593,268.19 313.422,283.6 321.14,295.7016 " fill="none" id="IBrowser-PlenarProtocolBrowser" style="stroke: #A80036; stroke-width: 1.0;"/><polygon fill="none" points="287.955,256.688,283.103,236.062,299.759,249.16,287.955,256.688" style="stroke: #A80036; stroke-width: 1.0;"/><!--
@startuml Browser
  package Browser {    
    note top of IBrowser
      Navigiert in einer Struktur und liefert die gewünschten IFile-Fragmente.  
    end note
    
    interface IBrowser<T extends IFile> {
      void load(uri: URI)
      boolean hasNext()
      T next()
    }

    class DipBrowser<Html> {
    }

    class PlenarProtocolBrowser<Xml> {
    }

    IBrowser <|- - DipBrowser
    IBrowser <|- - PlenarProtocolBrowser
  }
@enduml

PlantUML version 1.2018.12(Sun Oct 21 12:15:15 CEST 2018)
(GPL source distribution)
Java Runtime: Java(TM) SE Runtime Environment
JVM: Java HotSpot(TM) 64-Bit Server VM
Java Version: 1.8.0_191-b12
Operating System: Windows 10
OS Version: 10.0
Default Encoding: Cp1252
Language: de
Country: DE
--></g></svg>